<svg width="2423" height="274" viewBox="0 0 2423 274" fill="none" xmlns="http://www.w3.org/2000/svg">
<path d="M3 153.605V3H365.275L410.198 271L23.1264 233.928V23.0807H345.149L384.114 246.509L43.2529 213.847V43.1613H325.022L356.581 224.117L63.3792 193.767V63.242H304.896L325.022 193.767" stroke="url(#paint0_radial_1661_3537)" stroke-width="5"/>
<path d="M2420.81 138.277L2398.46 128.33C2393.48 128.33 2371.1 129.372 2367.7 131.454C2364.34 133.538 2362.69 136.237 2362.73 139.553C2362.69 142.4 2363.78 144.717 2365.98 146.503C2368.23 148.288 2371.93 149.755 2377.08 150.902L2394.43 154.473C2404.03 156.471 2411.17 159.638 2415.85 163.974C2420.58 168.309 2422.96 173.985 2423 180.999C2422.96 187.163 2421.08 192.604 2417.37 197.322C2413.72 201.998 2408.62 205.655 2402.1 208.29C2395.56 210.926 2388.07 212.243 2379.6 212.243C2367.17 212.243 2357.16 209.735 2349.57 204.718C2341.99 199.661 2337.47 192.625 2336.02 183.613L2358.44 194.835C2364.14 194.835 2389.78 193.71 2393.23 191.457C2396.72 189.204 2398.46 186.419 2398.46 183.103C2398.46 180.297 2397.34 177.981 2395.08 176.153C2392.87 174.324 2389.44 172.922 2384.76 171.945L2367.43 168.437C2357.69 166.482 2350.48 163.188 2345.8 158.555C2341.13 153.878 2338.81 147.969 2338.86 140.828C2338.81 134.792 2340.51 129.563 2343.96 125.142C2347.43 120.678 2352.26 117.235 2358.44 114.812C2364.65 112.347 2371.82 111.114 2379.94 111.114C2391.84 111.114 2401.21 113.558 2408.04 118.446C2414.93 123.335 2419.19 129.945 2420.81 138.277Z" fill="#164E63"/>
<path d="M1357.99 138.277L1335.62 128.33C1330.64 128.33 1308.26 129.372 1304.87 131.454C1301.52 133.538 1299.86 136.237 1299.91 139.553C1299.86 142.4 1300.94 144.717 1303.14 146.503C1305.4 148.288 1309.1 149.755 1314.26 150.902L1331.58 154.473C1341.21 156.471 1348.35 159.638 1353.02 163.974C1357.74 168.309 1360.12 173.985 1360.16 180.999C1360.12 187.163 1358.25 192.604 1354.54 197.322C1350.88 201.998 1345.79 205.655 1339.26 208.29C1332.74 210.926 1325.24 212.243 1316.77 212.243C1304.34 212.243 1294.33 209.735 1286.75 204.718L1276.03 191.457L1299.89 200C1305.57 200 1326.96 193.71 1330.4 191.457C1333.89 189.204 1335.62 186.419 1335.62 183.103C1335.62 180.297 1334.5 177.981 1332.25 176.153C1330.05 174.324 1326.6 172.922 1321.93 171.945L1304.61 168.437C1294.86 166.482 1287.65 163.188 1282.98 158.555C1278.29 153.878 1275.99 147.969 1276.03 140.828C1275.99 134.792 1277.69 129.563 1281.12 125.142C1284.61 120.678 1289.44 117.235 1295.6 114.812C1301.83 112.347 1309 111.114 1317.1 111.114C1329.01 111.114 1338.39 113.558 1345.21 118.446C1352.09 123.335 1356.35 129.945 1357.99 138.277Z" fill="#164E63"/>
<path d="M517.432 210.33H543.625L554.828 178.129H544.486V159.128H561.439L579.741 106.523H580.798L599.134 159.128H615.922V178.129H605.757L616.981 210.33H643.173L595.417 79.7426L543.625 58.9785L517.432 210.33Z" fill="#164E63"/>
<path d="M599.134 159.128H561.439L554.828 178.129H605.757L599.134 159.128Z" fill="#164E63"/>
<path d="M659.957 210.33L639.951 93.0684L683.174 112.39V128.712H684.232C686.084 123.059 689.26 118.701 693.758 115.642C698.299 112.538 703.481 110.986 709.301 110.986C710.624 110.986 712.102 111.05 713.733 111.178C715.409 111.262 716.797 111.412 717.9 111.624V132.858C716.886 132.517 715.276 132.219 713.072 131.964C710.911 131.666 708.816 131.518 706.788 131.518C702.422 131.518 698.498 132.432 695.015 134.26C691.575 136.046 688.862 138.532 686.878 141.72C684.894 144.908 683.902 148.586 683.902 152.752V210.33H659.957Z" fill="#164E63"/>
<path d="M769.956 130.243H738.854L746.012 184.698C745.968 190.818 747.334 195.92 750.113 200C752.935 204.081 756.749 207.1 761.555 209.055C766.362 210.967 771.764 211.839 777.762 211.67C781.157 211.584 784.024 211.287 786.361 210.776C788.741 210.266 790.571 209.799 791.85 209.374L787.815 191.328C787.155 191.499 786.183 191.69 784.905 191.903C783.67 192.115 782.303 192.222 780.804 192.222C778.82 192.222 777.012 191.924 775.38 191.328C773.748 190.734 772.425 189.628 771.411 188.012C770.441 186.355 769.956 183.975 769.956 180.871V130.243Z" fill="#164E63"/>
<path d="M769.956 108.259L735.018 101.058L738.854 130.243H769.956V108.259Z" fill="#164E63"/>
<path d="M769.956 88.9243L731.592 74.9975L735.018 101.058L769.956 108.259V88.9243Z" fill="#164E63"/>
<path d="M872.828 207.397C879.487 210.628 887.446 212.243 896.706 212.243C902.836 212.243 909.074 211.265 915.425 209.31C921.493 207.454 926.828 204.602 931.426 200.756L918.395 186.368C916.292 187.831 914.09 189.08 911.787 190.117C907.068 192.201 902.285 193.242 897.433 193.242C893.025 193.242 889.165 192.413 885.858 190.754C882.595 189.054 880.06 186.801 878.252 183.996C876.444 181.19 875.54 178.065 875.54 174.622C875.54 172.369 876.509 169.649 878.45 166.461C880.39 163.23 883.609 160.042 888.108 156.896L890.301 155.349L887.314 152.051C883.951 148.261 880.684 144.52 877.516 140.825C872.669 144.037 868.372 147.27 864.625 150.52C860.701 153.963 857.614 157.704 855.365 161.743C853.161 165.781 852.058 170.414 852.058 175.643C852.058 182.571 853.844 188.799 857.416 194.325C861.032 199.809 866.169 204.167 872.828 207.397Z" fill="#164E63"/>
<path d="M1151.41 115.621L1118.21 123.803C1117.5 119.893 1116.2 116.428 1114.31 113.41C1112.41 110.349 1110.05 107.755 1107.23 105.63C1104.4 103.504 1101.18 101.911 1097.57 100.848C1094 99.742 1090.14 99.1905 1086 99.1905C1078.64 99.1905 1072.1 100.975 1066.41 104.546C1060.73 108.074 1056.27 113.26 1053.06 120.105C1049.84 126.907 1048.23 135.216 1048.23 145.036C1048.23 155.026 1049.84 163.443 1053.06 170.287C1056.32 177.088 1060.78 182.232 1066.41 185.718C1072.1 189.161 1078.61 190.882 1085.92 190.882C1089.99 190.882 1093.77 190.372 1097.31 189.352C1100.88 188.289 1104.08 186.738 1106.9 184.698C1109.77 182.657 1112.16 180.149 1114.1 177.173C1116.1 174.198 1117.46 170.797 1118.21 166.971L1142.94 167.098C1142.02 173.304 1140.01 179.128 1136.92 184.569C1133.88 190.01 1129.89 194.814 1124.95 198.981C1120.01 203.104 1114.23 206.334 1107.63 208.673C1101.02 210.967 1088.6 215.878 1080.53 215.878C989.114 149.945 987.665 148.799 987.665 148.799C999.982 135.072 989.839 146.446 1063.74 63.1769C1149.96 114.258 1146.34 111.668 1151.41 115.621Z" fill="#164E63"/>
<path d="M1229.11 169.139V112.39L1253.06 123.803V210.33H1229.85V192.923H1228.79C1226.49 198.407 1222.72 202.891 1217.48 206.377C1212.27 209.863 1205.86 211.606 1198.23 211.606C1191.56 211.606 1185.68 210.182 1180.56 207.333C1175.49 204.443 1171.53 200.255 1168.66 194.771C1165.8 189.246 1164.36 182.571 1164.36 174.751V121.955L1185.47 133.851L1188.31 171.179C1188.31 177.386 1190.07 182.316 1193.6 185.973C1197.12 189.628 1201.75 191.457 1207.48 191.457C1211.02 191.457 1214.43 190.627 1217.74 188.97C1221.05 187.311 1223.76 184.846 1225.87 181.572C1228.03 178.258 1229.11 174.112 1229.11 169.139Z" fill="#164E63"/>
<path d="M1410.6 130.243H1381.49L1386.65 184.698C1386.61 190.818 1387.98 195.92 1390.76 200C1393.58 204.081 1397.4 207.1 1402.2 209.055C1407.01 210.967 1412.4 211.839 1418.4 211.67C1421.8 211.584 1424.67 211.287 1427.01 210.776C1429.39 210.266 1431.22 209.799 1432.49 209.374L1428.46 191.328C1427.79 191.499 1426.83 191.69 1425.54 191.903C1424.32 192.115 1422.94 192.222 1421.45 192.222C1419.47 192.222 1417.65 191.924 1416.02 191.328C1414.4 190.734 1413.07 189.628 1412.06 188.012C1411.09 186.355 1410.6 183.975 1410.6 180.871V130.243Z" fill="#164E63"/>
<path d="M1379.08 104.874L1410.6 109.468V88.9243L1376.66 79.2709L1379.08 104.874Z" fill="#164E63"/>
<path d="M1381.49 130.243H1410.6V109.468L1379.08 104.874L1381.49 130.243Z" fill="#164E63"/>
<path fill-rule="evenodd" clip-rule="evenodd" d="M1493.9 212.243C1483.97 212.243 1475.38 210.139 1468.1 205.931C1460.82 201.723 1455.18 195.834 1451.16 188.267C1447.2 180.702 1445.21 171.859 1445.21 161.743C1445.21 151.625 1447.2 142.762 1451.16 135.152C1455.18 127.544 1460.82 121.635 1468.1 117.427C1475.38 113.217 1483.97 111.114 1493.9 111.114C1503.82 111.114 1512.41 113.217 1519.7 117.427C1526.97 121.635 1532.59 127.544 1536.56 135.152C1540.57 142.762 1542.58 151.625 1542.58 161.743C1542.58 171.859 1540.57 180.702 1536.56 188.267C1532.59 195.834 1526.97 201.723 1519.7 205.931C1512.41 210.139 1503.82 212.243 1493.9 212.243ZM1507.52 189.48C1503.91 192.327 1499.4 193.751 1494.02 193.751C1488.52 193.751 1483.92 192.327 1480.27 189.48C1476.65 186.589 1473.94 182.721 1472.13 177.874C1470.37 173.029 1469.48 167.629 1469.48 161.678C1469.48 155.685 1470.37 150.265 1472.13 145.418C1473.94 140.53 1476.65 136.64 1480.27 133.75C1483.92 130.86 1488.52 129.413 1494.02 129.413C1499.4 129.413 1503.91 130.86 1507.52 133.75C1511.14 136.64 1513.83 140.53 1515.59 145.418C1517.39 150.265 1518.31 155.685 1518.31 161.678C1518.31 167.629 1517.39 173.029 1515.59 177.874C1513.83 182.721 1511.14 186.589 1507.52 189.48Z" fill="#164E63"/>
<path d="M1562.89 198.926V99.5725L1585.79 112.39V129.031H1586.97C1589.09 123.42 1592.61 119.042 1597.5 115.897C1602.39 112.707 1608.23 111.114 1615.02 111.114C1621.9 111.114 1627.7 112.729 1632.42 115.959C1637.18 119.149 1640.53 123.505 1642.47 129.031H1643.53C1645.78 123.591 1649.56 119.254 1654.9 116.023C1660.28 112.75 1666.65 111.114 1674.03 111.114C1683.37 111.114 1691 113.961 1696.91 119.659C1702.81 125.355 1705.77 133.664 1705.77 144.59V210.33L1681.76 198.926V148.16C1681.76 142.082 1680.09 137.639 1676.73 134.834C1673.38 131.986 1669.28 130.562 1664.43 130.562C1658.65 130.562 1654.13 132.305 1650.86 135.791C1647.66 139.234 1646.05 143.718 1646.05 149.245V210.33L1622.56 198.926V147.204C1622.56 142.145 1620.97 138.108 1617.8 135.089C1614.66 132.071 1610.57 130.562 1605.5 130.562C1602.05 130.562 1598.93 131.411 1596.11 133.113C1593.29 134.77 1591.04 137.13 1589.35 140.19C1587.68 143.208 1586.84 146.737 1586.84 150.775V210.33L1562.89 198.926Z" fill="#164E63"/>
<path d="M1778.15 210.33L1765.83 59.6783L1864.11 79.7426L1839.01 99.5725H1801.86V135.025H1839.01L1858.15 154.855H1801.86V210.33H1778.15Z" fill="#164E63"/>
<path d="M1883.94 210.33L1875.24 103.982L1907.17 112.39V128.712H1908.22C1910.08 123.059 1913.24 118.701 1917.75 115.642C1922.29 112.538 1927.47 110.986 1933.29 110.986C1934.62 110.986 1936.1 111.05 1937.72 111.178C1939.4 111.262 1940.78 111.412 1941.89 111.624V132.858C1940.87 132.517 1939.26 132.219 1937.06 131.964C1934.9 131.666 1932.8 131.518 1930.78 131.518C1926.42 131.518 1922.48 132.432 1919.01 134.26C1915.57 136.046 1912.86 138.532 1910.86 141.72C1908.88 144.908 1907.89 148.586 1907.89 152.752V210.33H1883.94Z" fill="#164E63"/>
<path fill-rule="evenodd" clip-rule="evenodd" d="M1985.22 212.307C1978.78 212.307 1972.98 211.202 1967.82 208.991C1962.71 206.738 1958.64 203.423 1955.66 199.044C1952.7 194.666 1951.22 189.266 1951.22 182.848C1951.22 177.321 1952.27 172.753 1954.4 169.139C1956.51 165.526 1959.4 162.635 1963.06 160.467C1966.71 158.3 1970.84 156.662 1975.42 155.558C1980.06 154.409 1984.84 153.581 1989.78 153.071C1995.73 152.475 2000.57 151.944 2004.26 151.476C2007.97 150.966 2010.66 150.201 2012.33 149.181C2014.05 148.117 2014.92 146.481 2014.92 144.271V143.888C2014.92 139.085 2013.44 135.366 2010.49 132.73C2007.53 130.095 2003.27 128.776 1997.71 128.776C1991.86 128.776 1987.2 130.009 1983.76 132.474C1980.36 134.94 1978.07 137.853 1976.88 141.21L1961.48 124.947C1961.48 124.947 1972.27 116.173 1978.14 114.175C1984.01 112.134 1990.48 111.114 1997.58 111.114C2002.47 111.114 2007.35 111.667 2012.2 112.771C2017.05 113.877 2021.48 115.704 2025.51 118.255C2029.51 120.763 2032.73 124.185 2035.16 128.521C2037.63 132.858 2038.85 138.277 2038.85 144.781V210.33L2015.84 196.876H2015.05C2013.59 199.597 2011.54 202.148 2008.89 204.527C2006.29 206.866 2003.01 208.757 1999.04 210.203C1995.11 211.606 1990.51 212.307 1985.22 212.307ZM2003.94 192.604C2000.4 194.432 1996.24 195.346 1991.43 195.346C1986.45 195.346 1982.35 194.261 1979.13 192.094C1975.91 189.926 1974.3 186.717 1974.3 182.466C1974.3 179.49 1975.13 177.066 1976.75 175.197C1978.38 173.284 1980.61 171.796 1983.43 170.733C1986.26 169.67 1989.45 168.905 1993.03 168.437C1994.61 168.225 1996.49 167.97 1998.64 167.672C2000.8 167.374 2002.99 167.035 2005.19 166.652C2007.4 166.27 2009.38 165.822 2011.15 165.314C2012.95 164.804 2014.23 164.251 2014.98 163.655V175.197C2014.98 178.809 2014 182.147 2012.07 185.208C2010.18 188.267 2007.47 190.734 2003.94 192.604Z" fill="#164E63"/>
<path d="M2062.94 204.527V106.02L2085.82 112.39V129.031H2087.02C2089.13 123.42 2092.63 119.042 2097.53 115.897C2102.42 112.707 2108.27 111.114 2115.06 111.114C2121.93 111.114 2127.74 112.729 2132.46 115.959C2137.22 119.149 2140.57 123.505 2142.51 129.031H2143.56C2145.82 123.591 2149.61 119.254 2154.94 116.023C2160.32 112.75 2166.7 111.114 2174.06 111.114C2183.42 111.114 2191.04 113.961 2196.94 119.659C2202.85 125.355 2205.81 133.664 2205.81 144.59V210.33L2181.8 204.527V148.16C2181.8 142.082 2180.12 137.639 2176.78 134.834C2173.42 131.986 2169.31 130.562 2164.46 130.562C2158.7 130.562 2154.17 132.305 2150.91 135.791C2147.69 139.234 2146.07 143.718 2146.07 149.245V210.33L2122.6 204.527V147.204C2122.6 142.145 2121.02 138.108 2117.84 135.089C2114.7 132.071 2110.61 130.562 2105.54 130.562C2102.09 130.562 2098.96 131.411 2096.14 133.113C2093.31 134.77 2091.07 137.13 2089.4 140.19C2087.71 143.208 2086.88 146.737 2086.88 150.775V210.33L2062.94 204.527Z" fill="#164E63"/>
<path d="M938.245 195.792C941.007 193.725 943.648 191.096 946.17 187.903L931.736 171.6C929.784 175.138 927.434 178.292 924.685 181.062C922.698 183.065 920.602 184.834 918.395 186.368L931.426 200.756C931.672 200.549 931.917 200.34 932.159 200.128C933.218 199.406 934.232 198.683 935.202 197.961C936.173 197.237 937.187 196.514 938.245 195.792Z" fill="#164E63"/>
<path d="M937.385 148.799C937.385 155.472 936.238 161.552 933.945 167.035C933.276 168.622 932.54 170.144 931.736 171.6L946.17 187.903C946.709 187.221 947.242 186.514 947.77 185.781C950.768 181.572 953.216 176.429 955.112 170.35C957.008 164.229 957.957 157.046 957.957 148.799H937.385Z" fill="#164E63"/>
<path d="M887.314 152.051L890.301 155.349L906.949 143.603L902.461 138.532C899.742 135.38 897.165 132.38 894.727 129.533L878.384 140.254C878.092 140.444 877.803 140.635 877.516 140.825C880.684 144.52 883.951 148.261 887.314 152.051Z" fill="#164E63"/>
<path d="M940.098 210.33H966.025L946.17 187.903C943.648 191.096 941.007 193.725 938.245 195.792C937.187 196.514 936.173 197.237 935.202 197.961C934.232 198.683 933.218 199.406 932.159 200.128C931.917 200.34 931.672 200.549 931.426 200.756L940.098 210.33Z" fill="#164E63"/>
<path d="M918.395 186.368C920.602 184.834 922.698 183.065 924.685 181.062C927.434 178.292 929.784 175.138 931.736 171.6L906.949 143.603L890.301 155.349L918.395 186.368Z" fill="#164E63"/>
<path d="M910.397 117.49C908.59 119.955 905.923 122.294 902.394 124.504L894.727 129.533C897.165 132.38 899.742 135.38 902.461 138.532L906.949 143.603L915.492 137.576C921.136 133.623 925.545 129.222 928.721 124.377C931.895 119.488 933.482 113.961 933.482 107.798C933.482 102.484 932.093 97.5745 929.315 93.0684C926.537 88.5624 922.59 84.9498 917.475 82.2293C912.361 79.5089 906.23 78.148 899.087 78.148C891.944 78.148 885.704 79.5502 880.368 82.3562C875.077 85.1621 870.954 89.0084 867.999 93.8978C865.045 98.7431 863.567 104.248 863.567 110.413C863.567 115.854 864.714 120.913 867.007 125.589C869.344 130.221 872.321 134.685 875.937 138.978C876.461 139.593 876.987 140.208 877.516 140.825C877.803 140.635 878.092 140.444 878.384 140.254L894.727 129.533L893.861 128.521C891.217 125.376 889.055 122.337 887.379 119.404C885.748 116.47 884.933 113.579 884.933 110.731C884.933 108.394 885.527 106.183 886.718 104.1C887.953 102.016 889.651 100.338 891.811 99.0623C894.017 97.7441 896.552 97.0857 899.418 97.0857C903.695 97.0857 907.046 98.3398 909.472 100.848C911.941 103.356 913.177 106.012 913.177 108.818C913.177 112.134 912.25 115.024 910.397 117.49Z" fill="#164E63"/>
<path d="M544.486 159.128V178.129H554.828L561.439 159.128H544.486Z" fill="#164E63"/>
<path d="M615.922 178.129V159.128H599.134L605.757 178.129H615.922Z" fill="#164E63"/>
<path d="M715.745 97.0857L731.592 130.243H738.854L735.018 101.058L715.745 97.0857Z" fill="#164E63"/>
<path d="M789.999 130.243V112.39L769.956 108.259V130.243H789.999Z" fill="#164E63"/>
<path d="M1361.85 102.362L1372.24 130.243H1381.49L1379.08 104.874L1361.85 102.362Z" fill="#164E63"/>
<path d="M1430.64 130.243V112.39L1410.6 109.468V130.243H1430.64Z" fill="#164E63"/>
<path d="M2275.08 212.243C2264.9 212.243 2256.1 210.203 2248.68 206.122C2241.32 201.998 2235.66 196.175 2231.68 188.651C2227.72 181.084 2225.74 172.178 2225.74 161.933C2225.74 151.858 2227.72 143.017 2231.68 135.407C2235.7 127.756 2241.3 121.805 2248.49 117.554C2255.67 113.26 2264.11 111.114 2273.83 111.114C2280.08 111.114 2285.99 112.092 2291.55 114.047C2297.15 115.959 2302.09 118.935 2306.36 122.974C2310.68 127.012 2314.08 132.155 2316.55 138.404C2319.02 144.612 2320.26 152.008 2320.26 160.594V167.672H2278.62L2249.63 150.902L2297.3 152.113C2297.26 147.693 2296.27 143.761 2294.33 140.318C2292.39 136.832 2289.67 134.09 2286.19 132.093C2282.76 130.095 2278.73 129.096 2274.15 129.096C2269.26 129.096 2264.96 130.243 2261.26 132.539C2257.55 134.792 2254.67 137.767 2252.58 141.465C2250.56 145.12 2249.52 149.138 2249.48 153.517V167.098C2249.48 172.795 2250.56 177.683 2252.72 181.765C2254.89 185.802 2257.91 188.906 2261.78 191.073C2265.67 193.2 2270.21 194.261 2275.41 194.261C2278.9 194.261 2299.1 181.765 2299.1 181.765L2320.26 193.328C2316.33 197.537 2302.24 206.463 2296.12 208.8C2289.98 211.096 2282.98 212.243 2275.08 212.243Z" fill="#164E63"/>
<defs>
<radialGradient id="paint0_radial_1661_3537" cx="0" cy="0" r="1" gradientUnits="userSpaceOnUse" gradientTransform="translate(206.961 109.01) rotate(-56.0758) scale(163.715 377.25)">
<stop offset="0.47" stop-color="#FFA500"/>
<stop offset="0.99" stop-color="#164E63"/>
</radialGradient>
</defs>
</svg>
