<svg width="1730" height="194" viewBox="0 0 1730 194" fill="none" xmlns="http://www.w3.org/2000/svg">
<path d="M1 108.615V1H259.832L291.927 192.5L15.3796 166.01V15.3487H245.453L273.292 175L29.7592 151.661V29.6974H231.073L253.62 159L44.1387 137.313V44.0461H216.694L231.073 137.313" stroke="url(#paint0_radial_1661_3537)" stroke-width="2"/>
<path d="M1728.44 97.6631L1712.47 90.5555C1708.91 90.5555 1692.92 91.2999 1690.49 92.7876C1688.09 94.2763 1686.91 96.205 1686.94 98.5745C1686.91 100.609 1687.69 102.265 1689.26 103.541C1690.87 104.817 1693.51 105.864 1697.19 106.684L1709.58 109.236C1716.45 110.664 1721.55 112.926 1724.89 116.025C1728.27 119.123 1729.97 123.178 1730 128.19C1729.97 132.594 1728.63 136.482 1725.98 139.854C1723.37 143.195 1719.72 145.808 1715.07 147.691C1710.4 149.574 1705.04 150.515 1698.99 150.515C1690.11 150.515 1682.96 148.723 1677.54 145.139C1672.12 141.525 1668.89 136.498 1667.85 130.058L1683.88 138.077C1687.94 138.077 1706.27 137.272 1708.73 135.663C1711.22 134.053 1712.47 132.063 1712.47 129.693C1712.47 127.688 1711.66 126.034 1710.05 124.727C1708.47 123.421 1706.02 122.419 1702.68 121.72L1690.3 119.214C1683.34 117.817 1678.18 115.463 1674.85 112.152C1671.51 108.81 1669.85 104.589 1669.88 99.4859C1669.85 95.1724 1671.06 91.4363 1673.53 88.2776C1676.01 85.0873 1679.46 82.6271 1683.88 80.896C1688.31 79.1344 1693.43 78.2536 1699.23 78.2536C1707.74 78.2536 1714.43 79.9999 1719.31 83.4927C1724.23 86.9864 1727.27 91.7092 1728.44 97.6631Z" fill="#164E63"/>
<path d="M969.087 97.6631L953.108 90.5555C949.548 90.5555 933.558 91.2999 931.139 92.7876C928.741 94.2763 927.559 96.205 927.59 98.5745C927.559 100.609 928.329 102.265 929.903 103.541C931.519 104.817 934.16 105.864 937.846 106.684L950.224 109.236C957.1 110.664 962.201 112.926 965.539 116.025C968.908 119.123 970.608 123.178 970.64 128.19C970.608 132.594 969.278 136.482 966.627 139.854C964.007 143.195 960.374 145.808 955.706 147.691C951.048 149.574 945.693 150.515 939.641 150.515C930.759 150.515 923.608 148.723 918.19 145.139L910.533 135.663L927.58 141.767C931.635 141.767 946.918 137.272 949.379 135.663C951.872 134.053 953.108 132.063 953.108 129.693C953.108 127.688 952.305 126.034 950.699 124.727C949.126 123.421 946.665 122.419 943.327 121.72L930.949 119.214C923.989 117.817 918.834 115.463 915.497 112.152C912.149 108.81 910.501 104.589 910.533 99.4859C910.501 95.1724 911.716 91.4363 914.166 88.2776C916.659 85.0873 920.112 82.6271 924.517 80.896C928.963 79.1344 934.086 78.2536 939.874 78.2536C948.386 78.2536 955.083 79.9999 959.962 83.4927C964.873 86.9864 967.915 91.7092 969.087 97.6631Z" fill="#164E63"/>
<path d="M368.542 149.149H387.256L395.261 126.14H387.871V112.562H399.984L413.06 74.9727H413.815L426.915 112.562H438.91V126.14H431.647L439.666 149.149H458.379L424.26 55.837L387.256 41L368.542 149.149Z" fill="#164E63"/>
<path d="M426.915 112.562H399.984L395.261 126.14H431.647L426.915 112.562Z" fill="#164E63"/>
<path d="M470.371 149.149L456.078 65.359L486.958 79.1649V90.8284H487.715C489.038 86.7889 491.307 83.6749 494.521 81.4887C497.765 79.2708 501.467 78.1619 505.625 78.1619C506.571 78.1619 507.627 78.2078 508.792 78.2994C509.989 78.3595 510.981 78.4664 511.769 78.6181V93.7906C511.045 93.5472 509.894 93.3344 508.32 93.1521C506.776 92.9393 505.279 92.8334 503.83 92.8334C500.711 92.8334 497.907 93.4861 495.418 94.7926C492.961 96.0685 491.023 97.8454 489.605 100.123C488.188 102.401 487.479 105.029 487.479 108.006V149.149H470.371Z" fill="#164E63"/>
<path d="M548.961 91.922H526.74L531.854 130.833C531.823 135.206 532.799 138.852 534.784 141.767C536.801 144.684 539.525 146.84 542.959 148.237C546.394 149.604 550.253 150.227 554.538 150.106C556.964 150.045 559.012 149.832 560.682 149.467C562.382 149.103 563.69 148.769 564.603 148.465L561.721 135.571C561.249 135.693 560.555 135.83 559.641 135.981C558.759 136.133 557.783 136.209 556.712 136.209C555.294 136.209 554.002 135.997 552.836 135.571C551.67 135.146 550.725 134.356 550.001 133.201C549.308 132.017 548.961 130.317 548.961 128.099V91.922Z" fill="#164E63"/>
<path d="M548.961 76.2132L523.999 71.0678L526.74 91.922H548.961V76.2132Z" fill="#164E63"/>
<path d="M548.961 62.3979L521.551 52.4464L523.999 71.0678L548.961 76.2132V62.3979Z" fill="#164E63"/>
<path d="M622.46 147.053C627.217 149.362 632.903 150.515 639.519 150.515C643.899 150.515 648.356 149.817 652.893 148.42C657.229 147.094 661.04 145.056 664.325 142.307L655.015 132.027C653.513 133.072 651.939 133.964 650.294 134.705C646.923 136.194 643.505 136.938 640.039 136.938C636.889 136.938 634.131 136.346 631.769 135.161C629.438 133.946 627.626 132.336 626.335 130.332C625.043 128.327 624.397 126.094 624.397 123.634C624.397 122.024 625.09 120.08 626.476 117.802C627.862 115.493 630.162 113.215 633.376 110.967L634.943 109.861L632.809 107.505C630.406 104.797 628.072 102.124 625.809 99.4837C622.346 101.779 619.276 104.089 616.599 106.411C613.795 108.871 611.589 111.544 609.983 114.43C608.408 117.316 607.62 120.627 607.62 124.363C607.62 129.314 608.896 133.763 611.448 137.712C614.031 141.631 617.702 144.745 622.46 147.053Z" fill="#164E63"/>
<path d="M821.498 81.4739L797.776 87.3204C797.269 84.5262 796.339 82.0508 794.987 79.894C793.635 77.7068 791.945 75.8535 789.928 74.3352C787.911 72.8159 785.608 71.6775 783.031 70.9179C780.475 70.1277 777.719 69.7336 774.761 69.7336C769.502 69.7336 764.833 71.0085 760.767 73.5603C756.711 76.0816 753.525 79.7871 751.226 84.6779C748.925 89.5382 747.775 95.4759 747.775 102.493C747.775 109.631 748.925 115.645 751.226 120.536C753.557 125.395 756.743 129.071 760.767 131.562C764.833 134.022 769.481 135.252 774.709 135.252C777.613 135.252 780.317 134.888 782.841 134.159C785.397 133.399 787.678 132.291 789.696 130.833C791.745 129.375 793.456 127.582 794.839 125.456C796.265 123.33 797.237 120.9 797.776 118.166L815.445 118.257C814.79 122.692 813.354 126.853 811.147 130.741C808.971 134.629 806.119 138.062 802.592 141.039C799.064 143.985 794.934 146.293 790.213 147.964C785.492 149.604 776.619 153.113 770.853 153.113C705.542 106 704.506 105.181 704.506 105.181C713.307 95.3731 706.059 103.5 758.861 44C820.463 80.5 817.876 78.6492 821.498 81.4739Z" fill="#164E63"/>
<path d="M877.01 119.715V79.1649L894.12 87.3204V149.149H877.538V136.71H876.778C875.141 140.629 872.447 143.833 868.698 146.324C864.98 148.815 860.396 150.06 854.946 150.06C850.183 150.06 845.979 149.043 842.325 147.007C838.702 144.942 835.872 141.949 833.823 138.031C831.774 134.083 830.749 129.314 830.749 123.725V86L845.829 94.5L847.859 121.173C847.859 125.608 849.116 129.131 851.641 131.744C854.154 134.356 857.46 135.663 861.558 135.663C864.082 135.663 866.522 135.07 868.888 133.886C871.254 132.7 873.186 130.939 874.697 128.6C876.239 126.231 877.01 123.269 877.01 119.715Z" fill="#164E63"/>
<path d="M1006.68 91.922H985.878L989.567 130.833C989.535 135.206 990.517 138.852 992.503 141.767C994.52 144.684 997.245 146.84 1000.68 148.237C1004.11 149.604 1007.97 150.227 1012.25 150.106C1014.68 150.045 1016.73 149.832 1018.4 149.467C1020.1 149.103 1021.41 148.769 1022.32 148.465L1019.44 135.571C1018.96 135.693 1018.27 135.83 1017.35 135.981C1016.48 136.133 1015.5 136.209 1014.43 136.209C1013.01 136.209 1011.71 135.997 1010.55 135.571C1009.39 135.146 1008.44 134.356 1007.72 133.201C1007.03 132.017 1006.68 130.317 1006.68 128.099V91.922Z" fill="#164E63"/>
<path d="M984.159 73.7944L1006.68 77.0771V62.3979L982.425 55.5L984.159 73.7944Z" fill="#164E63"/>
<path d="M985.878 91.922H1006.68V77.0771L984.159 73.7944L985.878 91.922Z" fill="#164E63"/>
<path fill-rule="evenodd" clip-rule="evenodd" d="M1066.19 150.515C1059.09 150.515 1052.96 149.012 1047.76 146.005C1042.56 142.998 1038.53 138.791 1035.66 133.384C1032.83 127.978 1031.4 121.659 1031.4 114.43C1031.4 107.2 1032.83 100.868 1035.66 95.43C1038.53 89.9934 1042.56 85.7716 1047.76 82.7646C1052.96 79.7566 1059.09 78.2536 1066.19 78.2536C1073.28 78.2536 1079.42 79.7566 1084.62 82.7646C1089.82 85.7716 1093.83 89.9934 1096.67 95.43C1099.54 100.868 1100.97 107.2 1100.97 114.43C1100.97 121.659 1099.54 127.978 1096.67 133.384C1093.83 138.791 1089.82 142.998 1084.62 146.005C1079.42 149.012 1073.28 150.515 1066.19 150.515ZM1075.92 134.25C1073.34 136.285 1070.12 137.302 1066.28 137.302C1062.35 137.302 1059.06 136.285 1056.45 134.25C1053.87 132.184 1051.93 129.42 1050.63 125.957C1049.38 122.495 1048.74 118.637 1048.74 114.384C1048.74 110.102 1049.38 106.229 1050.63 102.766C1051.93 99.2731 1053.87 96.4931 1056.45 94.428C1059.06 92.363 1062.35 91.3294 1066.28 91.3294C1070.12 91.3294 1073.34 92.363 1075.92 94.428C1078.51 96.4931 1080.43 99.2731 1081.69 102.766C1082.98 106.229 1083.63 110.102 1083.63 114.384C1083.63 118.637 1082.98 122.495 1081.69 125.957C1080.43 129.42 1078.51 132.184 1075.92 134.25Z" fill="#164E63"/>
<path d="M1115.48 141V70.0065L1131.84 79.1649V91.0565H1132.69C1134.2 87.0465 1136.71 83.9183 1140.21 81.6709C1143.71 79.392 1147.88 78.2536 1152.72 78.2536C1157.65 78.2536 1161.79 79.4073 1165.16 81.7158C1168.56 83.9947 1170.95 87.1076 1172.34 91.0565H1173.1C1174.7 87.1687 1177.41 84.07 1181.22 81.7616C1185.07 79.4226 1189.62 78.2536 1194.89 78.2536C1201.56 78.2536 1207.01 80.2881 1211.24 84.3592C1215.45 88.4293 1217.56 94.367 1217.56 102.174V149.149L1200.41 141V104.725C1200.41 100.382 1199.22 97.2069 1196.82 95.203C1194.42 93.1674 1191.5 92.1501 1188.03 92.1501C1183.9 92.1501 1180.67 93.3955 1178.34 95.8862C1176.05 98.3464 1174.89 101.551 1174.89 105.5V149.149L1158.11 141V104.042C1158.11 100.427 1156.98 97.542 1154.71 95.3852C1152.47 93.2285 1149.55 92.1501 1145.92 92.1501C1143.46 92.1501 1141.23 92.757 1139.22 93.9729C1137.2 95.1571 1135.59 96.8434 1134.39 99.0297C1133.2 101.186 1132.59 103.708 1132.59 106.594V149.149L1115.48 141Z" fill="#164E63"/>
<path d="M1269.28 149.149L1260.48 41.5L1330.69 55.837L1312.76 70.0065H1286.22V95.3394H1312.76L1326.43 109.509H1286.22V149.149H1269.28Z" fill="#164E63"/>
<path d="M1344.86 149.149L1338.65 73.1577L1361.46 79.1649V90.8284H1362.21C1363.54 86.7889 1365.8 83.6749 1369.02 81.4887C1372.26 79.2708 1375.96 78.1619 1380.12 78.1619C1381.07 78.1619 1382.13 78.2078 1383.29 78.2994C1384.48 78.3595 1385.47 78.4664 1386.27 78.6181V93.7906C1385.54 93.5472 1384.39 93.3344 1382.81 93.1521C1381.27 92.9393 1379.77 92.8334 1378.32 92.8334C1375.21 92.8334 1372.4 93.4861 1369.92 94.7926C1367.46 96.0685 1365.52 97.8454 1364.1 100.123C1362.68 102.401 1361.97 105.029 1361.97 108.006V149.149H1344.86Z" fill="#164E63"/>
<path fill-rule="evenodd" clip-rule="evenodd" d="M1417.22 150.561C1412.62 150.561 1408.48 149.772 1404.79 148.192C1401.14 146.582 1398.23 144.213 1396.1 141.084C1393.99 137.956 1392.93 134.097 1392.93 129.511C1392.93 125.562 1393.68 122.298 1395.2 119.715C1396.71 117.134 1398.77 115.068 1401.39 113.519C1404 111.97 1406.95 110.8 1410.22 110.011C1413.54 109.19 1416.95 108.599 1420.48 108.234C1424.73 107.808 1428.19 107.429 1430.83 107.095C1433.48 106.73 1435.4 106.183 1436.59 105.454C1437.82 104.694 1438.44 103.525 1438.44 101.946V101.672C1438.44 98.2405 1437.39 95.5828 1435.27 93.699C1433.16 91.8161 1430.12 90.8742 1426.15 90.8742C1421.97 90.8742 1418.64 91.755 1416.18 93.5167C1413.75 95.2783 1412.11 97.3597 1411.27 99.7588L1400.26 88.1379C1400.26 88.1379 1407.97 81.8685 1412.16 80.4409C1416.36 78.9827 1420.98 78.2536 1426.05 78.2536C1429.55 78.2536 1433.03 78.6487 1436.5 79.4379C1439.96 80.228 1443.13 81.5335 1446 83.3562C1448.87 85.1484 1451.17 87.5933 1452.9 90.692C1454.66 93.7906 1455.54 97.6631 1455.54 102.311V149.149L1439.1 139.535H1438.54C1437.49 141.479 1436.02 143.302 1434.13 145.002C1432.27 146.673 1429.93 148.025 1427.1 149.058C1424.29 150.06 1421 150.561 1417.22 150.561ZM1430.59 136.482C1428.07 137.789 1425.09 138.441 1421.66 138.441C1418.1 138.441 1415.17 137.667 1412.87 136.118C1410.57 134.569 1409.42 132.276 1409.42 129.238C1409.42 127.112 1410.01 125.38 1411.17 124.044C1412.33 122.677 1413.93 121.614 1415.95 120.855C1417.96 120.095 1420.24 119.548 1422.8 119.214C1423.93 119.062 1425.27 118.88 1426.81 118.667C1428.36 118.455 1429.92 118.212 1431.49 117.938C1433.07 117.665 1434.48 117.346 1435.75 116.982C1437.04 116.618 1437.95 116.222 1438.48 115.797V124.044C1438.48 126.625 1437.79 129.01 1436.4 131.197C1435.05 133.384 1433.12 135.146 1430.59 136.482Z" fill="#164E63"/>
<path d="M1472.75 145.002V74.6133L1489.1 79.1649V91.0565H1489.95C1491.46 87.0465 1493.97 83.9183 1497.46 81.6709C1500.96 79.392 1505.14 78.2536 1509.99 78.2536C1514.9 78.2536 1519.05 79.4073 1522.42 81.7158C1525.82 83.9947 1528.22 87.1076 1529.6 91.0565H1530.35C1531.97 87.1687 1534.67 84.07 1538.48 81.7616C1542.33 79.4226 1546.88 78.2536 1552.14 78.2536C1558.82 78.2536 1564.27 80.2881 1568.49 84.3592C1572.71 88.4293 1574.83 94.367 1574.83 102.174V149.149L1557.67 145.002V104.725C1557.67 100.382 1556.47 97.2069 1554.08 95.203C1551.69 93.1674 1548.75 92.1501 1545.28 92.1501C1541.17 92.1501 1537.93 93.3955 1535.6 95.8862C1533.3 98.3464 1532.15 101.551 1532.15 105.5V149.149L1515.37 145.002V104.042C1515.37 100.427 1514.24 97.542 1511.97 95.3852C1509.73 93.2285 1506.81 92.1501 1503.19 92.1501C1500.72 92.1501 1498.49 92.757 1496.47 93.9729C1494.45 95.1571 1492.85 96.8434 1491.65 99.0297C1490.45 101.186 1489.86 103.708 1489.86 106.594V149.149L1472.75 145.002Z" fill="#164E63"/>
<path d="M669.198 138.76C671.171 137.283 673.057 135.405 674.859 133.124L664.547 121.474C663.152 124.002 661.473 126.256 659.509 128.235C658.09 129.666 656.592 130.93 655.015 132.027L664.325 142.307C664.502 142.16 664.676 142.01 664.849 141.859C665.605 141.343 666.33 140.826 667.023 140.31C667.717 139.793 668.441 139.276 669.198 138.76Z" fill="#164E63"/>
<path d="M668.583 105.181C668.583 109.95 667.763 114.294 666.125 118.212C665.647 119.346 665.121 120.433 664.547 121.474L674.859 133.124C675.244 132.636 675.625 132.131 676.003 131.607C678.144 128.6 679.893 124.925 681.249 120.581C682.603 116.207 683.281 111.074 683.281 105.181H668.583Z" fill="#164E63"/>
<path d="M632.809 107.505L634.943 109.861L646.838 101.468L643.631 97.8454C641.689 95.5928 639.847 93.449 638.106 91.415L626.429 99.0755C626.221 99.2115 626.014 99.3476 625.809 99.4837C628.072 102.124 630.406 104.797 632.809 107.505Z" fill="#164E63"/>
<path d="M670.521 149.149H689.045L674.859 133.124C673.057 135.405 671.171 137.283 669.198 138.76C668.441 139.276 667.717 139.793 667.023 140.31C666.33 140.826 665.605 141.343 664.849 141.859C664.676 142.01 664.502 142.16 664.325 142.307L670.521 149.149Z" fill="#164E63"/>
<path d="M655.015 132.027C656.592 130.93 658.09 129.666 659.509 128.235C661.473 126.256 663.152 124.002 664.547 121.474L646.838 101.468L634.943 109.861L655.015 132.027Z" fill="#164E63"/>
<path d="M649.301 82.8094C648.01 84.571 646.104 86.242 643.583 87.8214L638.106 91.415C639.847 93.449 641.689 95.5928 643.631 97.8454L646.838 101.468L652.941 97.1622C656.973 94.3374 660.124 91.1929 662.393 87.7308C664.66 84.237 665.795 80.2881 665.795 75.884C665.795 72.0868 664.802 68.5788 662.817 65.359C660.833 62.1392 658.013 59.5578 654.358 57.6139C650.704 55.67 646.324 54.6976 641.221 54.6976C636.117 54.6976 631.659 55.6996 627.846 57.7046C624.066 59.7096 621.12 62.4579 619.009 65.9517C616.899 69.4138 615.843 73.3475 615.843 77.7526C615.843 81.6404 616.662 85.2553 618.3 88.5963C619.97 91.9068 622.097 95.096 624.681 98.1641C625.055 98.6031 625.431 99.0429 625.809 99.4837C626.014 99.3476 626.221 99.2115 626.429 99.0755L638.106 91.415L637.487 90.692C635.597 88.4446 634.053 86.2726 632.856 84.177C631.691 82.0803 631.108 80.0152 631.108 77.9797C631.108 76.3097 631.532 74.7303 632.384 73.2416C633.265 71.7528 634.479 70.5533 636.022 69.6419C637.598 68.7 639.409 68.2296 641.457 68.2296C644.513 68.2296 646.907 69.1257 648.64 70.9179C650.404 72.71 651.287 74.6081 651.287 76.6131C651.287 78.9827 650.625 81.0478 649.301 82.8094Z" fill="#164E63"/>
<path d="M387.871 112.562V126.14H395.261L399.984 112.562H387.871Z" fill="#164E63"/>
<path d="M438.91 126.14V112.562H426.915L431.647 126.14H438.91Z" fill="#164E63"/>
<path d="M510.23 68.2296L521.551 91.922H526.74L523.999 71.0678L510.23 68.2296Z" fill="#164E63"/>
<path d="M563.281 91.922V79.1649L548.961 76.2132V91.922H563.281Z" fill="#164E63"/>
<path d="M971.851 72L979.269 91.922H985.878L984.159 73.7944L971.851 72Z" fill="#164E63"/>
<path d="M1021 91.922V79.1649L1006.68 77.0771V91.922H1021Z" fill="#164E63"/>
<path d="M1624.32 150.515C1617.04 150.515 1610.76 149.058 1605.46 146.142C1600.2 143.195 1596.15 139.034 1593.31 133.658C1590.48 128.25 1589.06 121.887 1589.06 114.567C1589.06 107.367 1590.48 101.05 1593.31 95.6123C1596.18 90.1451 1600.18 85.8928 1605.32 82.8552C1610.45 79.7871 1616.48 78.2536 1623.42 78.2536C1627.89 78.2536 1632.11 78.9521 1636.08 80.3492C1640.09 81.7158 1643.61 83.8419 1646.67 86.7278C1649.75 89.6136 1652.18 93.2886 1653.94 97.7538C1655.71 102.189 1656.6 107.474 1656.6 113.61V118.667H1626.84L1606.13 106.684L1640.19 107.55C1640.16 104.391 1639.45 101.582 1638.07 99.1213C1636.69 96.6306 1634.74 94.6714 1632.25 93.2438C1629.8 91.8161 1626.93 91.1023 1623.65 91.1023C1620.16 91.1023 1617.08 91.922 1614.44 93.5625C1611.79 95.1724 1609.73 97.2986 1608.24 99.941C1606.8 102.553 1606.06 105.424 1606.03 108.553V118.257C1606.03 122.328 1606.8 125.821 1608.34 128.737C1609.89 131.622 1612.05 133.84 1614.81 135.389C1617.59 136.908 1620.83 137.667 1624.55 137.667C1627.04 137.667 1641.48 128.737 1641.48 128.737L1656.6 137C1653.79 140.007 1643.72 146.385 1639.35 148.055C1634.96 149.696 1629.96 150.515 1624.32 150.515Z" fill="#164E63"/>
<defs>
<radialGradient id="paint0_radial_1661_3537" cx="0" cy="0" r="1" gradientUnits="userSpaceOnUse" gradientTransform="translate(146.723 76.75) rotate(-56.0791) scale(116.979 269.541)">
<stop offset="0.47" stop-color="#FFA500"/>
<stop offset="0.99" stop-color="#164E63"/>
</radialGradient>
</defs>
</svg>
