<svg width="60" height="60" viewBox="0 0 60 60" fill="none" xmlns="http://www.w3.org/2000/svg">
<circle cx="30" cy="30" r="29.5" fill="white" stroke="#D6D5D5"/>
<rect x="29.5" y="2.5" width="1" height="4" fill="black" stroke="#D6D5D5"/>
<rect x="43.683" y="5.68301" width="1" height="4" transform="rotate(30 43.683 5.68301)" fill="black" stroke="#D6D5D5"/>
<rect x="15.683" y="6.18301" width="1" height="4" transform="rotate(-30 15.683 6.18301)" fill="black" stroke="#D6D5D5"/>
<rect x="54.4146" y="16.683" width="1" height="4" transform="rotate(60 54.4146 16.683)" fill="black" stroke="#D6D5D5"/>
<rect x="6.68301" y="16.5494" width="1" height="4" transform="rotate(-60 6.68301 16.5494)" fill="black" stroke="#D6D5D5"/>
<rect x="29.5" y="53.2461" width="1" height="4" fill="black" stroke="#D6D5D5"/>
<rect x="2.5" y="30.5" width="1" height="4" transform="rotate(-90 2.5 30.5)" fill="black" stroke="#D6D5D5"/>
<rect x="53.5" y="30.2461" width="1" height="4" transform="rotate(-90 53.5 30.2461)" fill="black" stroke="#D6D5D5"/>
<rect x="54.9146" y="41.683" width="1" height="4" transform="rotate(120 54.9146 41.683)" fill="black" stroke="#D6D5D5"/>
<rect x="16.5494" y="53.9146" width="1" height="4" transform="rotate(-150 16.5494 53.9146)" fill="black" stroke="#D6D5D5"/>
<rect x="44.5494" y="53.4146" width="1" height="4" transform="rotate(150 44.5494 53.4146)" fill="black" stroke="#D6D5D5"/>
<rect x="6.18301" y="44.5494" width="1" height="4" transform="rotate(-120 6.18301 44.5494)" fill="black" stroke="#D6D5D5"/>
<circle cx="30" cy="30" r="1.75" fill="white" stroke="#D6D5D5" stroke-width="0.5"/>
</svg>
