<svg width="109" height="109" viewBox="0 0 109 109" fill="none" xmlns="http://www.w3.org/2000/svg">
<circle cx="54.5" cy="54.5" r="54" fill="white" stroke="#D6D5D5"/>
<rect x="53.1836" y="4.13379" width="2.63333" height="8.08333" fill="black" stroke="#D6D5D5"/>
<rect x="79.2084" y="9.76602" width="2.63334" height="8.08334" transform="rotate(30 79.2084 9.76602)" fill="black" stroke="#D6D5D5"/>
<rect x="27.933" y="11.0834" width="2.63333" height="8.08333" transform="rotate(-30 27.933 11.0834)" fill="black" stroke="#D6D5D5"/>
<rect x="99.0025" y="29.7494" width="2.63333" height="8.08333" transform="rotate(60 99.0025 29.7494)" fill="black" stroke="#D6D5D5"/>
<rect x="11.5834" y="30.2144" width="2.63333" height="8.08333" transform="rotate(-60 11.5834 30.2144)" fill="black" stroke="#D6D5D5"/>
<rect x="53.1836" y="96.3223" width="2.63333" height="8.08334" fill="black" stroke="#D6D5D5"/>
<rect x="4.13379" y="55.8164" width="2.63333" height="8.08333" transform="rotate(-90 4.13379 55.8164)" fill="black" stroke="#D6D5D5"/>
<rect x="96.7832" y="55.3555" width="2.63334" height="8.08334" transform="rotate(-90 96.7832 55.3555)" fill="black" stroke="#D6D5D5"/>
<rect x="100.319" y="75.5746" width="2.63333" height="8.08333" transform="rotate(120 100.319 75.5746)" fill="black" stroke="#D6D5D5"/>
<rect x="30.2144" y="98.5025" width="2.63333" height="8.08334" transform="rotate(-150 30.2144 98.5025)" fill="black" stroke="#D6D5D5"/>
<rect x="81.4889" y="97.1861" width="2.63333" height="8.08333" transform="rotate(150 81.4889 97.1861)" fill="black" stroke="#D6D5D5"/>
<rect x="11.0834" y="81.4889" width="2.63333" height="8.08333" transform="rotate(-120 11.0834 81.4889)" fill="black" stroke="#D6D5D5"/>
<circle cx="54.4995" cy="54.4995" r="3.38334" fill="white" stroke="#D6D5D5" stroke-width="0.5"/>
</svg>
