<svg width="1754" height="329" viewBox="0 0 1754 329" fill="none" xmlns="http://www.w3.org/2000/svg">
<path d="M1751.89 164.663L1735.93 157.556C1732.37 157.556 1716.38 158.3 1713.95 159.788C1711.55 161.276 1710.37 163.205 1710.4 165.575C1710.37 167.609 1711.15 169.265 1712.72 170.541C1714.33 171.817 1716.97 172.864 1720.65 173.684L1733.04 176.236C1739.91 177.664 1745.01 179.926 1748.35 183.025C1751.73 186.123 1753.43 190.178 1753.46 195.19C1753.43 199.594 1752.08 203.482 1749.43 206.854C1746.82 210.195 1743.18 212.808 1738.52 214.691C1733.85 216.574 1728.5 217.515 1722.45 217.515C1713.57 217.515 1706.42 215.723 1701 212.139C1695.58 208.525 1692.35 203.498 1691.31 197.058L1707.33 205.077C1711.4 205.077 1729.73 204.272 1732.19 202.663C1734.68 201.053 1735.93 199.063 1735.93 196.693C1735.93 194.688 1735.12 193.034 1733.51 191.727C1731.93 190.421 1729.48 189.419 1726.13 188.72L1713.76 186.214C1706.8 184.817 1701.64 182.463 1698.3 179.152C1694.97 175.81 1693.31 171.589 1693.34 166.486C1693.31 162.172 1694.52 158.436 1696.98 155.278C1699.47 152.087 1702.92 149.627 1707.33 147.896C1711.77 146.134 1716.89 145.254 1722.69 145.254C1731.19 145.254 1737.89 147 1742.77 150.493C1747.69 153.986 1750.73 158.709 1751.89 164.663Z" fill="url(#paint0_linear_1677_1693)"/>
<path d="M992.545 164.663L976.566 157.556C973.006 157.556 957.016 158.3 954.597 159.788C952.199 161.276 951.017 163.205 951.048 165.575C951.017 167.609 951.787 169.265 953.361 170.541C954.977 171.817 957.618 172.864 961.304 173.684L973.682 176.236C980.558 177.664 985.659 179.926 988.997 183.025C992.366 186.123 994.066 190.178 994.098 195.19C994.066 199.594 992.736 203.482 990.085 206.854C987.465 210.195 983.832 212.808 979.164 214.691C974.506 216.574 969.151 217.515 963.099 217.515C954.217 217.515 947.066 215.723 941.648 212.139L933.991 202.663L951.038 208.767C955.093 208.767 970.376 204.272 972.837 202.663C975.33 201.053 976.566 199.063 976.566 196.693C976.566 194.688 975.763 193.034 974.157 191.727C972.584 190.421 970.123 189.419 966.785 188.72L954.407 186.214C947.447 184.817 942.292 182.463 938.955 179.152C935.607 175.81 933.959 171.589 933.991 166.486C933.959 162.172 935.174 158.436 937.624 155.278C940.117 152.087 943.571 149.627 947.975 147.896C952.421 146.134 957.544 145.254 963.332 145.254C971.844 145.254 978.541 147 983.42 150.493C988.331 153.986 991.373 158.709 992.545 164.663Z" fill="url(#paint1_linear_1677_1693)"/>
<path d="M392 216.149H410.714L418.719 193.14H411.329V179.562H423.442L436.518 141.973H437.273L450.373 179.562H462.368V193.14H455.105L463.124 216.149H481.837L447.718 122.837L410.714 108L392 216.149Z" fill="url(#paint2_linear_1677_1693)"/>
<path d="M450.373 179.562H423.442L418.719 193.14H455.105L450.373 179.562Z" fill="url(#paint3_linear_1677_1693)"/>
<path d="M493.829 216.149L479.536 132.359L510.416 146.165V157.828H511.173C512.496 153.789 514.765 150.675 517.979 148.489C521.223 146.271 524.925 145.162 529.083 145.162C530.029 145.162 531.085 145.208 532.25 145.299C533.447 145.359 534.439 145.466 535.227 145.618V160.791C534.503 160.547 533.352 160.334 531.778 160.152C530.234 159.939 528.737 159.833 527.288 159.833C524.169 159.833 521.365 160.486 518.876 161.793C516.419 163.069 514.481 164.845 513.063 167.123C511.646 169.401 510.937 172.029 510.937 175.006V216.149H493.829Z" fill="url(#paint4_linear_1677_1693)"/>
<path d="M572.419 158.922H550.198L555.312 197.833C555.281 202.206 556.257 205.852 558.242 208.767C560.259 211.684 562.983 213.84 566.417 215.237C569.852 216.604 573.711 217.227 577.996 217.106C580.422 217.045 582.47 216.832 584.14 216.467C585.84 216.103 587.148 215.769 588.061 215.465L585.179 202.571C584.707 202.693 584.013 202.83 583.099 202.981C582.217 203.133 581.241 203.209 580.17 203.209C578.752 203.209 577.46 202.997 576.294 202.571C575.128 202.146 574.183 201.356 573.459 200.201C572.766 199.017 572.419 197.317 572.419 195.099V158.922Z" fill="url(#paint5_linear_1677_1693)"/>
<path d="M572.419 143.213L547.457 138.068L550.198 158.922H572.419V143.213Z" fill="url(#paint6_linear_1677_1693)"/>
<path d="M572.419 129.398L545.009 119.446L547.457 138.068L572.419 143.213V129.398Z" fill="url(#paint7_linear_1677_1693)"/>
<path d="M645.918 214.053C650.675 216.362 656.361 217.515 662.977 217.515C667.357 217.515 671.814 216.817 676.351 215.42C680.687 214.094 684.498 212.056 687.783 209.307L678.473 199.027C676.971 200.072 675.397 200.964 673.752 201.705C670.381 203.194 666.963 203.938 663.497 203.938C660.347 203.938 657.589 203.346 655.227 202.161C652.896 200.946 651.085 199.336 649.793 197.332C648.501 195.327 647.855 193.094 647.855 190.634C647.855 189.024 648.548 187.08 649.934 184.802C651.32 182.493 653.62 180.215 656.834 177.967L658.401 176.861L656.267 174.505C653.864 171.797 651.53 169.124 649.267 166.484C645.804 168.779 642.734 171.089 640.057 173.411C637.253 175.871 635.047 178.544 633.441 181.43C631.866 184.316 631.078 187.627 631.078 191.363C631.078 196.314 632.354 200.763 634.906 204.712C637.489 208.631 641.16 211.745 645.918 214.053Z" fill="url(#paint8_linear_1677_1693)"/>
<path d="M844.956 148.474L821.234 154.32C820.727 151.526 819.797 149.051 818.445 146.894C817.093 144.707 815.403 142.853 813.386 141.335C811.369 139.816 809.066 138.677 806.489 137.918C803.933 137.128 801.177 136.734 798.219 136.734C792.96 136.734 788.291 138.008 784.225 140.56C780.169 143.082 776.983 146.787 774.684 151.678C772.383 156.538 771.233 162.476 771.233 169.493C771.233 176.631 772.383 182.645 774.684 187.536C777.015 192.395 780.201 196.071 784.225 198.562C788.291 201.022 792.939 202.252 798.167 202.252C801.071 202.252 803.775 201.888 806.299 201.159C808.855 200.399 811.136 199.291 813.154 197.833C815.203 196.375 816.914 194.582 818.297 192.456C819.723 190.33 820.695 187.9 821.234 185.166L838.903 185.257C838.249 189.692 836.812 193.853 834.605 197.741C832.429 201.629 829.577 205.062 826.05 208.039C822.522 210.985 818.392 213.293 813.671 214.964C808.95 216.604 800.077 220.113 794.311 220.113C729 173 727.964 172.181 727.964 172.181C736.765 162.373 729.517 170.5 782.319 111C843.921 147.5 841.334 145.649 844.956 148.474Z" fill="url(#paint9_linear_1677_1693)"/>
<path d="M900.468 186.715V146.165L917.578 154.32V216.149H900.996V203.71H900.236C898.599 207.629 895.905 210.833 892.156 213.324C888.438 215.815 883.854 217.06 878.404 217.06C873.641 217.06 869.437 216.043 865.783 214.007C862.16 211.942 859.33 208.949 857.281 205.031C855.232 201.083 854.207 196.314 854.207 190.725V153L869.287 161.5L871.317 188.173C871.317 192.608 872.574 196.131 875.099 198.744C877.612 201.356 880.918 202.663 885.016 202.663C887.54 202.663 889.98 202.07 892.346 200.886C894.712 199.7 896.645 197.939 898.155 195.6C899.697 193.231 900.468 190.269 900.468 186.715Z" fill="url(#paint10_linear_1677_1693)"/>
<path d="M1030.13 158.922H1009.34L1013.02 197.833C1012.99 202.206 1013.98 205.852 1015.96 208.767C1017.98 211.684 1020.7 213.84 1024.14 215.237C1027.57 216.604 1031.42 217.227 1035.71 217.106C1038.14 217.045 1040.19 216.832 1041.86 216.467C1043.56 216.103 1044.87 215.769 1045.78 215.465L1042.89 202.571C1042.42 202.693 1041.73 202.83 1040.81 202.981C1039.94 203.133 1038.95 203.209 1037.89 203.209C1036.47 203.209 1035.17 202.997 1034.01 202.571C1032.85 202.146 1031.9 201.356 1031.18 200.201C1030.48 199.017 1030.13 197.317 1030.13 195.099V158.922Z" fill="url(#paint11_linear_1677_1693)"/>
<path d="M1007.62 140.794L1030.13 144.077V129.398L1005.88 122.5L1007.62 140.794Z" fill="url(#paint12_linear_1677_1693)"/>
<path d="M1009.34 158.922H1030.13V144.077L1007.62 140.794L1009.34 158.922Z" fill="url(#paint13_linear_1677_1693)"/>
<path fill-rule="evenodd" clip-rule="evenodd" d="M1089.65 217.515C1082.55 217.515 1076.42 216.012 1071.22 213.005C1066.01 209.998 1061.99 205.791 1059.12 200.384C1056.29 194.978 1054.86 188.659 1054.86 181.43C1054.86 174.2 1056.29 167.868 1059.12 162.43C1061.99 156.993 1066.01 152.772 1071.22 149.765C1076.42 146.757 1082.55 145.254 1089.65 145.254C1096.74 145.254 1102.87 146.757 1108.08 149.765C1113.28 152.772 1117.29 156.993 1120.13 162.43C1122.99 167.868 1124.43 174.2 1124.43 181.43C1124.43 188.659 1122.99 194.978 1120.13 200.384C1117.29 205.791 1113.28 209.998 1108.08 213.005C1102.87 216.012 1096.74 217.515 1089.65 217.515ZM1099.38 201.25C1096.8 203.285 1093.58 204.302 1089.73 204.302C1085.81 204.302 1082.52 203.285 1079.91 201.25C1077.32 199.184 1075.39 196.42 1074.09 192.957C1072.84 189.495 1072.2 185.637 1072.2 181.384C1072.2 177.102 1072.84 173.229 1074.09 169.766C1075.39 166.273 1077.32 163.493 1079.91 161.428C1082.52 159.363 1085.81 158.329 1089.73 158.329C1093.58 158.329 1096.8 159.363 1099.38 161.428C1101.97 163.493 1103.89 166.273 1105.14 169.766C1106.43 173.229 1107.09 177.102 1107.09 181.384C1107.09 185.637 1106.43 189.495 1105.14 192.957C1103.89 196.42 1101.97 199.184 1099.38 201.25Z" fill="url(#paint14_linear_1677_1693)"/>
<path d="M1138.94 208V137.007L1155.3 146.165V158.057H1156.15C1157.66 154.046 1160.17 150.918 1163.67 148.671C1167.16 146.392 1171.34 145.254 1176.18 145.254C1181.1 145.254 1185.24 146.407 1188.61 148.716C1192.01 150.995 1194.41 154.108 1195.8 158.057H1196.56C1198.16 154.169 1200.87 151.07 1204.68 148.762C1208.52 146.423 1213.08 145.254 1218.35 145.254C1225.02 145.254 1230.47 147.288 1234.7 151.359C1238.91 155.429 1241.02 161.367 1241.02 169.174V216.149L1223.87 208V171.725C1223.87 167.382 1222.68 164.207 1220.28 162.203C1217.88 160.167 1214.96 159.15 1211.49 159.15C1207.36 159.15 1204.13 160.396 1201.8 162.886C1199.5 165.346 1198.35 168.551 1198.35 172.5V216.149L1181.57 208V171.042C1181.57 167.427 1180.44 164.542 1178.17 162.385C1175.93 160.228 1173 159.15 1169.38 159.15C1166.92 159.15 1164.69 159.757 1162.67 160.973C1160.66 162.157 1159.05 163.843 1157.85 166.03C1156.65 168.186 1156.05 170.708 1156.05 173.594V216.149L1138.94 208Z" fill="url(#paint15_linear_1677_1693)"/>
<path d="M1292.74 216.149L1283.94 108.5L1354.15 122.837L1336.22 137.007H1309.67V162.339H1336.22L1349.89 176.509H1309.67V216.149H1292.74Z" fill="url(#paint16_linear_1677_1693)"/>
<path d="M1368.32 216.149L1362.1 140.158L1384.92 146.165V157.828H1385.67C1387 153.789 1389.26 150.675 1392.48 148.489C1395.72 146.271 1399.42 145.162 1403.58 145.162C1404.53 145.162 1405.58 145.208 1406.75 145.299C1407.94 145.359 1408.93 145.466 1409.72 145.618V160.791C1409 160.547 1407.84 160.334 1406.27 160.152C1404.73 159.939 1403.23 159.833 1401.78 159.833C1398.67 159.833 1395.86 160.486 1393.38 161.793C1390.91 163.069 1388.98 164.845 1387.56 167.123C1386.14 169.401 1385.43 172.029 1385.43 175.006V216.149H1368.32Z" fill="url(#paint17_linear_1677_1693)"/>
<path fill-rule="evenodd" clip-rule="evenodd" d="M1440.68 217.561C1436.08 217.561 1431.94 216.772 1428.25 215.192C1424.6 213.582 1421.69 211.213 1419.56 208.084C1417.45 204.956 1416.39 201.097 1416.39 196.511C1416.39 192.562 1417.14 189.298 1418.66 186.715C1420.17 184.134 1422.23 182.068 1424.85 180.519C1427.46 178.97 1430.4 177.8 1433.68 177.011C1437 176.19 1440.41 175.599 1443.93 175.234C1448.19 174.808 1451.64 174.429 1454.28 174.095C1456.94 173.73 1458.86 173.183 1460.05 172.454C1461.28 171.694 1461.9 170.525 1461.9 168.946V168.672C1461.9 165.241 1460.84 162.583 1458.73 160.699C1456.62 158.816 1453.58 157.874 1449.61 157.874C1445.42 157.874 1442.1 158.755 1439.64 160.517C1437.21 162.278 1435.57 164.36 1434.72 166.759L1423.72 155.138C1423.72 155.138 1431.43 148.868 1435.62 147.441C1439.82 145.983 1444.44 145.254 1449.51 145.254C1453.01 145.254 1456.49 145.649 1459.96 146.438C1463.42 147.228 1466.59 148.533 1469.46 150.356C1472.32 152.148 1474.63 154.593 1476.36 157.692C1478.12 160.791 1479 164.663 1479 169.311V216.149L1462.55 206.535H1462C1460.95 208.479 1459.48 210.302 1457.59 212.002C1455.73 213.673 1453.39 215.025 1450.56 216.058C1447.75 217.06 1444.46 217.561 1440.68 217.561ZM1454.05 203.482C1451.53 204.789 1448.55 205.441 1445.12 205.441C1441.56 205.441 1438.63 204.667 1436.33 203.118C1434.03 201.569 1432.88 199.276 1432.88 196.238C1432.88 194.112 1433.47 192.38 1434.63 191.044C1435.79 189.677 1437.39 188.614 1439.4 187.855C1441.42 187.095 1443.7 186.548 1446.26 186.214C1447.39 186.062 1448.73 185.88 1450.27 185.667C1451.81 185.455 1453.38 185.212 1454.95 184.938C1456.52 184.665 1457.94 184.346 1459.21 183.982C1460.5 183.618 1461.4 183.222 1461.94 182.797V191.044C1461.94 193.625 1461.25 196.01 1459.86 198.197C1458.51 200.384 1456.58 202.146 1454.05 203.482Z" fill="url(#paint18_linear_1677_1693)"/>
<path d="M1496.2 212.002V141.613L1512.55 146.165V158.057H1513.41C1514.92 154.046 1517.42 150.918 1520.92 148.671C1524.42 146.392 1528.6 145.254 1533.45 145.254C1538.36 145.254 1542.51 146.407 1545.88 148.716C1549.28 150.995 1551.67 154.108 1553.06 158.057H1553.81C1555.42 154.169 1558.13 151.07 1561.94 148.762C1565.79 146.423 1570.34 145.254 1575.6 145.254C1582.28 145.254 1587.73 147.288 1591.95 151.359C1596.17 155.429 1598.28 161.367 1598.28 169.174V216.149L1581.13 212.002V171.725C1581.13 167.382 1579.93 164.207 1577.54 162.203C1575.14 160.167 1572.21 159.15 1568.74 159.15C1564.62 159.15 1561.39 160.396 1559.06 162.886C1556.76 165.346 1555.6 168.551 1555.6 172.5V216.149L1538.83 212.002V171.042C1538.83 167.427 1537.7 164.542 1535.43 162.385C1533.19 160.228 1530.27 159.15 1526.64 159.15C1524.18 159.15 1521.94 159.757 1519.93 160.973C1517.91 162.157 1516.3 163.843 1515.11 166.03C1513.91 168.186 1513.31 170.708 1513.31 173.594V216.149L1496.2 212.002Z" fill="url(#paint19_linear_1677_1693)"/>
<path d="M692.656 205.76C694.629 204.283 696.515 202.405 698.318 200.124L688.005 188.474C686.61 191.002 684.931 193.256 682.967 195.235C681.548 196.666 680.05 197.93 678.473 199.027L687.783 209.307C687.96 209.16 688.134 209.01 688.307 208.859C689.064 208.343 689.788 207.826 690.481 207.31C691.175 206.793 691.899 206.276 692.656 205.76Z" fill="url(#paint20_linear_1677_1693)"/>
<path d="M692.041 172.181C692.041 176.95 691.221 181.294 689.583 185.212C689.105 186.346 688.579 187.433 688.005 188.474L698.318 200.124C698.702 199.636 699.083 199.131 699.461 198.607C701.602 195.6 703.351 191.925 704.707 187.581C706.061 183.207 706.739 178.074 706.739 172.181H692.041Z" fill="url(#paint21_linear_1677_1693)"/>
<path d="M656.267 174.505L658.401 176.861L670.296 168.468L667.089 164.845C665.147 162.593 663.305 160.449 661.564 158.415L649.887 166.076C649.679 166.212 649.472 166.348 649.267 166.484C651.53 169.124 653.864 171.797 656.267 174.505Z" fill="url(#paint22_linear_1677_1693)"/>
<path d="M693.979 216.149H712.503L698.318 200.124C696.515 202.405 694.629 204.283 692.656 205.76C691.899 206.276 691.175 206.793 690.481 207.31C689.788 207.826 689.064 208.343 688.307 208.859C688.134 209.01 687.96 209.16 687.783 209.307L693.979 216.149Z" fill="url(#paint23_linear_1677_1693)"/>
<path d="M678.473 199.027C680.05 197.93 681.548 196.666 682.967 195.235C684.931 193.256 686.61 191.002 688.005 188.474L670.296 168.468L658.401 176.861L678.473 199.027Z" fill="url(#paint24_linear_1677_1693)"/>
<path d="M672.759 149.809C671.468 151.571 669.562 153.242 667.041 154.821L661.564 158.415C663.305 160.449 665.147 162.593 667.089 164.845L670.296 168.468L676.399 164.162C680.431 161.337 683.582 158.193 685.851 154.731C688.118 151.237 689.253 147.288 689.253 142.884C689.253 139.087 688.26 135.579 686.275 132.359C684.291 129.139 681.471 126.558 677.816 124.614C674.162 122.67 669.782 121.698 664.679 121.698C659.575 121.698 655.117 122.7 651.304 124.705C647.524 126.71 644.578 129.458 642.467 132.952C640.357 136.414 639.301 140.347 639.301 144.753C639.301 148.64 640.12 152.255 641.758 155.596C643.428 158.907 645.555 162.096 648.139 165.164C648.513 165.603 648.889 166.043 649.267 166.484C649.472 166.348 649.679 166.212 649.887 166.076L661.564 158.415L660.945 157.692C659.055 155.445 657.511 153.273 656.314 151.177C655.149 149.08 654.566 147.015 654.566 144.98C654.566 143.31 654.99 141.73 655.842 140.242C656.723 138.753 657.937 137.553 659.48 136.642C661.056 135.7 662.867 135.23 664.915 135.23C667.971 135.23 670.365 136.126 672.098 137.918C673.862 139.71 674.745 141.608 674.745 143.613C674.745 145.983 674.083 148.048 672.759 149.809Z" fill="url(#paint25_linear_1677_1693)"/>
<path d="M411.329 179.562V193.14H418.719L423.442 179.562H411.329Z" fill="url(#paint26_linear_1677_1693)"/>
<path d="M462.368 193.14V179.562H450.373L455.105 193.14H462.368Z" fill="url(#paint27_linear_1677_1693)"/>
<path d="M533.688 135.23L545.009 158.922H550.198L547.457 138.068L533.688 135.23Z" fill="url(#paint28_linear_1677_1693)"/>
<path d="M586.739 158.922V146.165L572.419 143.213V158.922H586.739Z" fill="url(#paint29_linear_1677_1693)"/>
<path d="M995.309 139L1002.73 158.922H1009.34L1007.62 140.794L995.309 139Z" fill="url(#paint30_linear_1677_1693)"/>
<path d="M1044.46 158.922V146.165L1030.13 144.077V158.922H1044.46Z" fill="url(#paint31_linear_1677_1693)"/>
<path d="M1647.78 217.515C1640.5 217.515 1634.22 216.058 1628.91 213.142C1623.65 210.195 1619.61 206.034 1616.77 200.658C1613.94 195.25 1612.52 188.887 1612.52 181.567C1612.52 174.367 1613.94 168.05 1616.77 162.612C1619.64 157.145 1623.64 152.893 1628.78 149.855C1633.91 146.787 1639.94 145.254 1646.88 145.254C1651.35 145.254 1655.57 145.952 1659.54 147.349C1663.55 148.716 1667.07 150.842 1670.13 153.728C1673.21 156.614 1675.64 160.289 1677.4 164.754C1679.17 169.189 1680.05 174.474 1680.05 180.61V185.667H1650.3L1629.59 173.684L1663.65 174.55C1663.62 171.391 1662.91 168.582 1661.53 166.121C1660.14 163.631 1658.2 161.671 1655.71 160.244C1653.26 158.816 1650.39 158.102 1647.11 158.102C1643.62 158.102 1640.54 158.922 1637.9 160.563C1635.25 162.172 1633.19 164.299 1631.7 166.941C1630.25 169.553 1629.52 172.424 1629.48 175.553V185.257C1629.48 189.328 1630.25 192.821 1631.8 195.737C1633.35 198.622 1635.5 200.84 1638.27 202.389C1641.05 203.908 1644.29 204.667 1648.01 204.667C1650.5 204.667 1664.94 195.737 1664.94 195.737L1680.05 204C1677.24 207.007 1667.18 213.385 1662.81 215.055C1658.42 216.696 1653.42 217.515 1647.78 217.515Z" fill="url(#paint32_linear_1677_1693)"/>
<path d="M93 82.7895V17L264.053 47.7018V214.368H202.649V100.333L93 82.7895Z" fill="#164E63"/>
<path d="M61.4035 13.1579L0 0V328.947L250 315.789V250H61.4035V13.1579Z" fill="#0891B2"/>
<defs>
<linearGradient id="paint0_linear_1677_1693" x1="392" y1="164.056" x2="1753.46" y2="164.056" gradientUnits="userSpaceOnUse">
<stop stop-color="#164E63"/>
<stop offset="1" stop-color="#2D9EC9"/>
</linearGradient>
<linearGradient id="paint1_linear_1677_1693" x1="392" y1="164.056" x2="1753.46" y2="164.056" gradientUnits="userSpaceOnUse">
<stop stop-color="#164E63"/>
<stop offset="1" stop-color="#2D9EC9"/>
</linearGradient>
<linearGradient id="paint2_linear_1677_1693" x1="392" y1="164.056" x2="1753.46" y2="164.056" gradientUnits="userSpaceOnUse">
<stop stop-color="#164E63"/>
<stop offset="1" stop-color="#2D9EC9"/>
</linearGradient>
<linearGradient id="paint3_linear_1677_1693" x1="392" y1="164.056" x2="1753.46" y2="164.056" gradientUnits="userSpaceOnUse">
<stop stop-color="#164E63"/>
<stop offset="1" stop-color="#2D9EC9"/>
</linearGradient>
<linearGradient id="paint4_linear_1677_1693" x1="392" y1="164.056" x2="1753.46" y2="164.056" gradientUnits="userSpaceOnUse">
<stop stop-color="#164E63"/>
<stop offset="1" stop-color="#2D9EC9"/>
</linearGradient>
<linearGradient id="paint5_linear_1677_1693" x1="392" y1="164.056" x2="1753.46" y2="164.056" gradientUnits="userSpaceOnUse">
<stop stop-color="#164E63"/>
<stop offset="1" stop-color="#2D9EC9"/>
</linearGradient>
<linearGradient id="paint6_linear_1677_1693" x1="392" y1="164.056" x2="1753.46" y2="164.056" gradientUnits="userSpaceOnUse">
<stop stop-color="#164E63"/>
<stop offset="1" stop-color="#2D9EC9"/>
</linearGradient>
<linearGradient id="paint7_linear_1677_1693" x1="392" y1="164.056" x2="1753.46" y2="164.056" gradientUnits="userSpaceOnUse">
<stop stop-color="#164E63"/>
<stop offset="1" stop-color="#2D9EC9"/>
</linearGradient>
<linearGradient id="paint8_linear_1677_1693" x1="392" y1="164.056" x2="1753.46" y2="164.056" gradientUnits="userSpaceOnUse">
<stop stop-color="#164E63"/>
<stop offset="1" stop-color="#2D9EC9"/>
</linearGradient>
<linearGradient id="paint9_linear_1677_1693" x1="392" y1="164.056" x2="1753.46" y2="164.056" gradientUnits="userSpaceOnUse">
<stop stop-color="#164E63"/>
<stop offset="1" stop-color="#2D9EC9"/>
</linearGradient>
<linearGradient id="paint10_linear_1677_1693" x1="392" y1="164.056" x2="1753.46" y2="164.056" gradientUnits="userSpaceOnUse">
<stop stop-color="#164E63"/>
<stop offset="1" stop-color="#2D9EC9"/>
</linearGradient>
<linearGradient id="paint11_linear_1677_1693" x1="392" y1="164.056" x2="1753.46" y2="164.056" gradientUnits="userSpaceOnUse">
<stop stop-color="#164E63"/>
<stop offset="1" stop-color="#2D9EC9"/>
</linearGradient>
<linearGradient id="paint12_linear_1677_1693" x1="392" y1="164.056" x2="1753.46" y2="164.056" gradientUnits="userSpaceOnUse">
<stop stop-color="#164E63"/>
<stop offset="1" stop-color="#2D9EC9"/>
</linearGradient>
<linearGradient id="paint13_linear_1677_1693" x1="392" y1="164.056" x2="1753.46" y2="164.056" gradientUnits="userSpaceOnUse">
<stop stop-color="#164E63"/>
<stop offset="1" stop-color="#2D9EC9"/>
</linearGradient>
<linearGradient id="paint14_linear_1677_1693" x1="392" y1="164.056" x2="1753.46" y2="164.056" gradientUnits="userSpaceOnUse">
<stop stop-color="#164E63"/>
<stop offset="1" stop-color="#2D9EC9"/>
</linearGradient>
<linearGradient id="paint15_linear_1677_1693" x1="392" y1="164.056" x2="1753.46" y2="164.056" gradientUnits="userSpaceOnUse">
<stop stop-color="#164E63"/>
<stop offset="1" stop-color="#2D9EC9"/>
</linearGradient>
<linearGradient id="paint16_linear_1677_1693" x1="392" y1="164.056" x2="1753.46" y2="164.056" gradientUnits="userSpaceOnUse">
<stop stop-color="#164E63"/>
<stop offset="1" stop-color="#2D9EC9"/>
</linearGradient>
<linearGradient id="paint17_linear_1677_1693" x1="392" y1="164.056" x2="1753.46" y2="164.056" gradientUnits="userSpaceOnUse">
<stop stop-color="#164E63"/>
<stop offset="1" stop-color="#2D9EC9"/>
</linearGradient>
<linearGradient id="paint18_linear_1677_1693" x1="392" y1="164.056" x2="1753.46" y2="164.056" gradientUnits="userSpaceOnUse">
<stop stop-color="#164E63"/>
<stop offset="1" stop-color="#2D9EC9"/>
</linearGradient>
<linearGradient id="paint19_linear_1677_1693" x1="392" y1="164.056" x2="1753.46" y2="164.056" gradientUnits="userSpaceOnUse">
<stop stop-color="#164E63"/>
<stop offset="1" stop-color="#2D9EC9"/>
</linearGradient>
<linearGradient id="paint20_linear_1677_1693" x1="392" y1="164.056" x2="1753.46" y2="164.056" gradientUnits="userSpaceOnUse">
<stop stop-color="#164E63"/>
<stop offset="1" stop-color="#2D9EC9"/>
</linearGradient>
<linearGradient id="paint21_linear_1677_1693" x1="392" y1="164.056" x2="1753.46" y2="164.056" gradientUnits="userSpaceOnUse">
<stop stop-color="#164E63"/>
<stop offset="1" stop-color="#2D9EC9"/>
</linearGradient>
<linearGradient id="paint22_linear_1677_1693" x1="392" y1="164.056" x2="1753.46" y2="164.056" gradientUnits="userSpaceOnUse">
<stop stop-color="#164E63"/>
<stop offset="1" stop-color="#2D9EC9"/>
</linearGradient>
<linearGradient id="paint23_linear_1677_1693" x1="392" y1="164.056" x2="1753.46" y2="164.056" gradientUnits="userSpaceOnUse">
<stop stop-color="#164E63"/>
<stop offset="1" stop-color="#2D9EC9"/>
</linearGradient>
<linearGradient id="paint24_linear_1677_1693" x1="392" y1="164.056" x2="1753.46" y2="164.056" gradientUnits="userSpaceOnUse">
<stop stop-color="#164E63"/>
<stop offset="1" stop-color="#2D9EC9"/>
</linearGradient>
<linearGradient id="paint25_linear_1677_1693" x1="392" y1="164.056" x2="1753.46" y2="164.056" gradientUnits="userSpaceOnUse">
<stop stop-color="#164E63"/>
<stop offset="1" stop-color="#2D9EC9"/>
</linearGradient>
<linearGradient id="paint26_linear_1677_1693" x1="392" y1="164.056" x2="1753.46" y2="164.056" gradientUnits="userSpaceOnUse">
<stop stop-color="#164E63"/>
<stop offset="1" stop-color="#2D9EC9"/>
</linearGradient>
<linearGradient id="paint27_linear_1677_1693" x1="392" y1="164.056" x2="1753.46" y2="164.056" gradientUnits="userSpaceOnUse">
<stop stop-color="#164E63"/>
<stop offset="1" stop-color="#2D9EC9"/>
</linearGradient>
<linearGradient id="paint28_linear_1677_1693" x1="392" y1="164.056" x2="1753.46" y2="164.056" gradientUnits="userSpaceOnUse">
<stop stop-color="#164E63"/>
<stop offset="1" stop-color="#2D9EC9"/>
</linearGradient>
<linearGradient id="paint29_linear_1677_1693" x1="392" y1="164.056" x2="1753.46" y2="164.056" gradientUnits="userSpaceOnUse">
<stop stop-color="#164E63"/>
<stop offset="1" stop-color="#2D9EC9"/>
</linearGradient>
<linearGradient id="paint30_linear_1677_1693" x1="392" y1="164.056" x2="1753.46" y2="164.056" gradientUnits="userSpaceOnUse">
<stop stop-color="#164E63"/>
<stop offset="1" stop-color="#2D9EC9"/>
</linearGradient>
<linearGradient id="paint31_linear_1677_1693" x1="392" y1="164.056" x2="1753.46" y2="164.056" gradientUnits="userSpaceOnUse">
<stop stop-color="#164E63"/>
<stop offset="1" stop-color="#2D9EC9"/>
</linearGradient>
<linearGradient id="paint32_linear_1677_1693" x1="392" y1="164.056" x2="1753.46" y2="164.056" gradientUnits="userSpaceOnUse">
<stop stop-color="#164E63"/>
<stop offset="1" stop-color="#2D9EC9"/>
</linearGradient>
</defs>
</svg>
