<svg width="664" height="620" viewBox="0 0 664 620" fill="none" xmlns="http://www.w3.org/2000/svg">
<path d="M109 232.87V2H645V356H138.778V32.7826H615.222V325.217H168.556V63.5652H585.444V294.435H198.333V94.3478H555.667V232.87" stroke="black" stroke-width="4"/>
<path d="M6.88636 224V154.182H33.0682C38.4318 154.182 42.9318 155.114 46.5682 156.977C50.2273 158.841 52.9886 161.455 54.8523 164.818C56.7386 168.159 57.6818 172.057 57.6818 176.511C57.6818 180.989 56.7273 184.875 54.8182 188.17C52.9318 191.443 50.1477 193.977 46.4659 195.773C42.7841 197.545 38.2614 198.432 32.8977 198.432H14.25V187.932H31.1932C34.3295 187.932 36.8977 187.5 38.8977 186.636C40.8977 185.75 42.375 184.466 43.3295 182.784C44.3068 181.08 44.7955 178.989 44.7955 176.511C44.7955 174.034 44.3068 171.92 43.3295 170.17C42.3523 168.398 40.8636 167.057 38.8636 166.148C36.8636 165.216 34.2841 164.75 31.125 164.75H19.5341V224H6.88636ZM42.9545 192.364L60.2386 224H46.125L29.1477 192.364H42.9545Z" fill="black"/>
<path d="M15.8523 107H2.35227L26.9318 37.1818H42.5455L67.1591 107H53.6591L35.0114 51.5H34.4659L15.8523 107ZM16.2955 79.625H53.1136V89.7841H16.2955V79.625Z" fill="black"/>
<path d="M3.81818 272.784V262.182H59.5227V272.784H37.9432V332H25.3977V272.784H3.81818Z" fill="black"/>
<path d="M225.648 447.739H212.898C212.534 445.648 211.864 443.795 210.886 442.182C209.909 440.545 208.693 439.159 207.239 438.023C205.784 436.886 204.125 436.034 202.261 435.466C200.42 434.875 198.432 434.58 196.295 434.58C192.5 434.58 189.136 435.534 186.205 437.443C183.273 439.33 180.977 442.102 179.318 445.761C177.659 449.398 176.83 453.841 176.83 459.091C176.83 464.432 177.659 468.932 179.318 472.591C181 476.227 183.295 478.977 186.205 480.841C189.136 482.682 192.489 483.602 196.261 483.602C198.352 483.602 200.307 483.33 202.125 482.784C203.966 482.216 205.614 481.386 207.068 480.295C208.545 479.205 209.784 477.864 210.784 476.273C211.807 474.682 212.511 472.864 212.898 470.818L225.648 470.886C225.17 474.205 224.136 477.318 222.545 480.227C220.977 483.136 218.92 485.705 216.375 487.932C213.83 490.136 210.852 491.864 207.443 493.114C204.034 494.341 200.25 494.955 196.091 494.955C189.955 494.955 184.477 493.534 179.659 490.693C174.841 487.852 171.045 483.75 168.273 478.386C165.5 473.023 164.114 466.591 164.114 459.091C164.114 451.568 165.511 445.136 168.307 439.795C171.102 434.432 174.909 430.33 179.727 427.489C184.545 424.648 190 423.227 196.091 423.227C199.977 423.227 203.591 423.773 206.932 424.864C210.273 425.955 213.25 427.557 215.864 429.67C218.477 431.761 220.625 434.33 222.307 437.375C224.011 440.398 225.125 443.852 225.648 447.739ZM270.06 471.977V441.636H282.401V494H270.435V484.693H269.889C268.707 487.625 266.764 490.023 264.06 491.886C261.378 493.75 258.071 494.682 254.139 494.682C250.707 494.682 247.673 493.92 245.037 492.398C242.423 490.852 240.378 488.614 238.901 485.682C237.423 482.727 236.685 479.159 236.685 474.977V441.636H249.026V473.068C249.026 476.386 249.935 479.023 251.753 480.977C253.571 482.932 255.957 483.909 258.912 483.909C260.73 483.909 262.491 483.466 264.196 482.58C265.901 481.693 267.298 480.375 268.389 478.625C269.503 476.852 270.06 474.636 270.06 471.977ZM336.477 455.477L325.227 456.705C324.909 455.568 324.352 454.5 323.557 453.5C322.784 452.5 321.739 451.693 320.42 451.08C319.102 450.466 317.489 450.159 315.58 450.159C313.011 450.159 310.852 450.716 309.102 451.83C307.375 452.943 306.523 454.386 306.545 456.159C306.523 457.682 307.08 458.92 308.216 459.875C309.375 460.83 311.284 461.614 313.943 462.227L322.875 464.136C327.83 465.205 331.511 466.898 333.92 469.216C336.352 471.534 337.58 474.568 337.602 478.318C337.58 481.614 336.614 484.523 334.705 487.045C332.818 489.545 330.193 491.5 326.83 492.909C323.466 494.318 319.602 495.023 315.239 495.023C308.83 495.023 303.67 493.682 299.761 491C295.852 488.295 293.523 484.534 292.773 479.716L304.807 478.557C305.352 480.92 306.511 482.705 308.284 483.909C310.057 485.114 312.364 485.716 315.205 485.716C318.136 485.716 320.489 485.114 322.261 483.909C324.057 482.705 324.955 481.216 324.955 479.443C324.955 477.943 324.375 476.705 323.216 475.727C322.08 474.75 320.307 474 317.898 473.477L308.966 471.602C303.943 470.557 300.227 468.795 297.818 466.318C295.409 463.818 294.216 460.659 294.239 456.841C294.216 453.614 295.091 450.818 296.864 448.455C298.659 446.068 301.148 444.227 304.33 442.932C307.534 441.614 311.227 440.955 315.409 440.955C321.545 440.955 326.375 442.261 329.898 444.875C333.443 447.489 335.636 451.023 336.477 455.477ZM373.926 441.636V451.182H343.824V441.636H373.926ZM351.256 429.091H363.597V478.25C363.597 479.909 363.847 481.182 364.347 482.068C364.869 482.932 365.551 483.523 366.392 483.841C367.233 484.159 368.165 484.318 369.188 484.318C369.96 484.318 370.665 484.261 371.301 484.148C371.96 484.034 372.46 483.932 372.801 483.841L374.881 493.489C374.222 493.716 373.278 493.966 372.051 494.239C370.847 494.511 369.369 494.67 367.619 494.716C364.528 494.807 361.744 494.341 359.267 493.318C356.79 492.273 354.824 490.659 353.369 488.477C351.938 486.295 351.233 483.568 351.256 480.295V429.091ZM406.526 495.023C401.412 495.023 396.98 493.898 393.23 491.648C389.48 489.398 386.571 486.25 384.503 482.205C382.457 478.159 381.435 473.432 381.435 468.023C381.435 462.614 382.457 457.875 384.503 453.807C386.571 449.739 389.48 446.58 393.23 444.33C396.98 442.08 401.412 440.955 406.526 440.955C411.639 440.955 416.071 442.08 419.821 444.33C423.571 446.58 426.469 449.739 428.514 453.807C430.582 457.875 431.616 462.614 431.616 468.023C431.616 473.432 430.582 478.159 428.514 482.205C426.469 486.25 423.571 489.398 419.821 491.648C416.071 493.898 411.639 495.023 406.526 495.023ZM406.594 485.136C409.366 485.136 411.685 484.375 413.548 482.852C415.412 481.307 416.798 479.239 417.707 476.648C418.639 474.057 419.105 471.17 419.105 467.989C419.105 464.784 418.639 461.886 417.707 459.295C416.798 456.682 415.412 454.602 413.548 453.057C411.685 451.511 409.366 450.739 406.594 450.739C403.753 450.739 401.389 451.511 399.503 453.057C397.639 454.602 396.241 456.682 395.31 459.295C394.401 461.886 393.946 464.784 393.946 467.989C393.946 471.17 394.401 474.057 395.31 476.648C396.241 479.239 397.639 481.307 399.503 482.852C401.389 484.375 403.753 485.136 406.594 485.136ZM442.091 494V441.636H453.886V450.534H454.5C455.591 447.534 457.398 445.193 459.92 443.511C462.443 441.807 465.455 440.955 468.955 440.955C472.5 440.955 475.489 441.818 477.92 443.545C480.375 445.25 482.102 447.58 483.102 450.534H483.648C484.807 447.625 486.761 445.307 489.511 443.58C492.284 441.83 495.568 440.955 499.364 440.955C504.182 440.955 508.114 442.477 511.159 445.523C514.205 448.568 515.727 453.011 515.727 458.852V494H503.352V460.761C503.352 457.511 502.489 455.136 500.761 453.636C499.034 452.114 496.92 451.352 494.42 451.352C491.443 451.352 489.114 452.284 487.432 454.148C485.773 455.989 484.943 458.386 484.943 461.341V494H472.841V460.25C472.841 457.545 472.023 455.386 470.386 453.773C468.773 452.159 466.659 451.352 464.045 451.352C462.273 451.352 460.659 451.807 459.205 452.716C457.75 453.602 456.591 454.864 455.727 456.5C454.864 458.114 454.432 460 454.432 462.159V494H442.091Z" fill="black"/>
<path d="M307.886 618V548.182H352.614V558.784H320.534V577.739H349.545V588.341H320.534V618H307.886ZM362.841 618V565.636H374.807V574.364H375.352C376.307 571.341 377.943 569.011 380.261 567.375C382.602 565.716 385.273 564.886 388.273 564.886C388.955 564.886 389.716 564.92 390.557 564.989C391.42 565.034 392.136 565.114 392.705 565.227V576.58C392.182 576.398 391.352 576.239 390.216 576.102C389.102 575.943 388.023 575.864 386.977 575.864C384.727 575.864 382.705 576.352 380.909 577.33C379.136 578.284 377.739 579.614 376.716 581.318C375.693 583.023 375.182 584.989 375.182 587.216V618H362.841ZM415.034 619.057C411.716 619.057 408.727 618.466 406.068 617.284C403.432 616.08 401.341 614.307 399.795 611.966C398.273 609.625 397.511 606.739 397.511 603.307C397.511 600.352 398.057 597.909 399.148 595.977C400.239 594.045 401.727 592.5 403.614 591.341C405.5 590.182 407.625 589.307 409.989 588.716C412.375 588.102 414.841 587.659 417.386 587.386C420.455 587.068 422.943 586.784 424.852 586.534C426.761 586.261 428.148 585.852 429.011 585.307C429.898 584.739 430.341 583.864 430.341 582.682V582.477C430.341 579.909 429.58 577.92 428.057 576.511C426.534 575.102 424.341 574.398 421.477 574.398C418.455 574.398 416.057 575.057 414.284 576.375C412.534 577.693 411.352 579.25 410.739 581.045L399.216 579.409C400.125 576.227 401.625 573.568 403.716 571.432C405.807 569.273 408.364 567.659 411.386 566.591C414.409 565.5 417.75 564.955 421.409 564.955C423.932 564.955 426.443 565.25 428.943 565.841C431.443 566.432 433.727 567.409 435.795 568.773C437.864 570.114 439.523 571.943 440.773 574.261C442.045 576.58 442.682 579.477 442.682 582.955V618H430.818V610.807H430.409C429.659 612.261 428.602 613.625 427.239 614.898C425.898 616.148 424.205 617.159 422.159 617.932C420.136 618.682 417.761 619.057 415.034 619.057ZM418.239 609.989C420.716 609.989 422.864 609.5 424.682 608.523C426.5 607.523 427.898 606.205 428.875 604.568C429.875 602.932 430.375 601.148 430.375 599.216V593.045C429.989 593.364 429.33 593.659 428.398 593.932C427.489 594.205 426.466 594.443 425.33 594.648C424.193 594.852 423.068 595.034 421.955 595.193C420.841 595.352 419.875 595.489 419.057 595.602C417.216 595.852 415.568 596.261 414.114 596.83C412.659 597.398 411.511 598.193 410.67 599.216C409.83 600.216 409.409 601.511 409.409 603.102C409.409 605.375 410.239 607.091 411.898 608.25C413.557 609.409 415.67 609.989 418.239 609.989ZM455.091 618V565.636H466.886V574.534H467.5C468.591 571.534 470.398 569.193 472.92 567.511C475.443 565.807 478.455 564.955 481.955 564.955C485.5 564.955 488.489 565.818 490.92 567.545C493.375 569.25 495.102 571.58 496.102 574.534H496.648C497.807 571.625 499.761 569.307 502.511 567.58C505.284 565.83 508.568 564.955 512.364 564.955C517.182 564.955 521.114 566.477 524.159 569.523C527.205 572.568 528.727 577.011 528.727 582.852V618H516.352V584.761C516.352 581.511 515.489 579.136 513.761 577.636C512.034 576.114 509.92 575.352 507.42 575.352C504.443 575.352 502.114 576.284 500.432 578.148C498.773 579.989 497.943 582.386 497.943 585.341V618H485.841V584.25C485.841 581.545 485.023 579.386 483.386 577.773C481.773 576.159 479.659 575.352 477.045 575.352C475.273 575.352 473.659 575.807 472.205 576.716C470.75 577.602 469.591 578.864 468.727 580.5C467.864 582.114 467.432 584 467.432 586.159V618H455.091ZM564.429 619.023C559.179 619.023 554.645 617.932 550.827 615.75C547.031 613.545 544.111 610.432 542.065 606.409C540.02 602.364 538.997 597.602 538.997 592.125C538.997 586.739 540.02 582.011 542.065 577.943C544.134 573.852 547.02 570.67 550.724 568.398C554.429 566.102 558.781 564.955 563.781 564.955C567.009 564.955 570.054 565.477 572.918 566.523C575.804 567.545 578.349 569.136 580.554 571.295C582.781 573.455 584.531 576.205 585.804 579.545C587.077 582.864 587.713 586.818 587.713 591.409V595.193H544.793V586.875H575.884C575.861 584.511 575.349 582.409 574.349 580.568C573.349 578.705 571.952 577.239 570.156 576.17C568.384 575.102 566.315 574.568 563.952 574.568C561.429 574.568 559.213 575.182 557.304 576.409C555.395 577.614 553.906 579.205 552.838 581.182C551.793 583.136 551.259 585.284 551.236 587.625V594.886C551.236 597.932 551.793 600.545 552.906 602.727C554.02 604.886 555.577 606.545 557.577 607.705C559.577 608.841 561.918 609.409 564.599 609.409C566.395 609.409 568.02 609.159 569.474 608.659C570.929 608.136 572.19 607.375 573.259 606.375C574.327 605.375 575.134 604.136 575.679 602.659L587.202 603.955C586.474 607 585.088 609.659 583.043 611.932C581.02 614.182 578.429 615.932 575.27 617.182C572.111 618.409 568.497 619.023 564.429 619.023ZM639.54 579.477L628.29 580.705C627.972 579.568 627.415 578.5 626.619 577.5C625.847 576.5 624.801 575.693 623.483 575.08C622.165 574.466 620.551 574.159 618.642 574.159C616.074 574.159 613.915 574.716 612.165 575.83C610.438 576.943 609.585 578.386 609.608 580.159C609.585 581.682 610.142 582.92 611.278 583.875C612.438 584.83 614.347 585.614 617.006 586.227L625.938 588.136C630.892 589.205 634.574 590.898 636.983 593.216C639.415 595.534 640.642 598.568 640.665 602.318C640.642 605.614 639.676 608.523 637.767 611.045C635.881 613.545 633.256 615.5 629.892 616.909C626.528 618.318 622.665 619.023 618.301 619.023C611.892 619.023 606.733 617.682 602.824 615C598.915 612.295 596.585 608.534 595.835 603.716L607.869 602.557C608.415 604.92 609.574 606.705 611.347 607.909C613.119 609.114 615.426 609.716 618.267 609.716C621.199 609.716 623.551 609.114 625.324 607.909C627.119 606.705 628.017 605.216 628.017 603.443C628.017 601.943 627.438 600.705 626.278 599.727C625.142 598.75 623.369 598 620.96 597.477L612.028 595.602C607.006 594.557 603.29 592.795 600.881 590.318C598.472 587.818 597.278 584.659 597.301 580.841C597.278 577.614 598.153 574.818 599.926 572.455C601.722 570.068 604.21 568.227 607.392 566.932C610.597 565.614 614.29 564.955 618.472 564.955C624.608 564.955 629.438 566.261 632.96 568.875C636.506 571.489 638.699 575.023 639.54 579.477Z" fill="black"/>
<path d="M72.2045 450.023C67.4318 450.023 63.3295 449.159 59.8977 447.432C56.4659 445.705 53.8182 443.375 51.9545 440.443C50.1136 437.489 49.1932 434.159 49.1932 430.455C49.1932 427.659 49.7614 425.182 50.8977 423.023C52.0568 420.864 53.6477 418.864 55.6705 417.023C57.7159 415.182 60.0795 413.352 62.7614 411.534L75.1364 403.114C76.9545 401.932 78.3295 400.682 79.2614 399.364C80.2159 398.045 80.6932 396.5 80.6932 394.727C80.6932 393.227 80.0568 391.807 78.7841 390.466C77.5341 389.125 75.8068 388.455 73.6023 388.455C72.125 388.455 70.8182 388.807 69.6818 389.511C68.5682 390.193 67.6932 391.091 67.0568 392.205C66.4432 393.318 66.1364 394.5 66.1364 395.75C66.1364 397.273 66.5568 398.818 67.3977 400.386C68.2614 401.955 69.375 403.58 70.7386 405.261C72.125 406.943 73.6023 408.727 75.1705 410.614L107.932 449H94.5682L67.3636 417.841C65.3409 415.477 63.3864 413.148 61.5 410.852C59.6364 408.557 58.1023 406.17 56.8977 403.693C55.7159 401.193 55.125 398.489 55.125 395.58C55.125 392.284 55.8864 389.341 57.4091 386.75C58.9318 384.136 61.0568 382.08 63.7841 380.58C66.5341 379.08 69.75 378.33 73.4318 378.33C77.1136 378.33 80.2727 379.057 82.9091 380.511C85.5455 381.966 87.5795 383.898 89.0114 386.307C90.4432 388.716 91.1591 391.341 91.1591 394.182C91.1591 397.477 90.3409 400.432 88.7045 403.045C87.0682 405.636 84.7955 407.989 81.8864 410.102L67.7727 420.432C65.4545 422.114 63.7955 423.818 62.7955 425.545C61.7955 427.25 61.2955 428.705 61.2955 429.909C61.2955 431.75 61.7614 433.42 62.6932 434.92C63.625 436.42 64.9318 437.625 66.6136 438.534C68.3182 439.42 70.3068 439.864 72.5795 439.864C75.0795 439.864 77.5455 439.307 79.9773 438.193C82.4091 437.057 84.625 435.443 86.625 433.352C88.625 431.261 90.2159 428.761 91.3977 425.852C92.5795 422.92 93.1705 419.67 93.1705 416.102H103.773C103.773 420.511 103.284 424.352 102.307 427.625C101.33 430.875 100.068 433.625 98.5227 435.875C96.9773 438.102 95.3409 439.886 93.6136 441.227C93.0682 441.614 92.5455 442 92.0455 442.386C91.5455 442.773 91.0227 443.159 90.4773 443.545C88.0227 445.773 85.1477 447.409 81.8523 448.455C78.5795 449.5 75.3636 450.023 72.2045 450.023Z" fill="black"/>
</svg>
