<svg width="1269" height="833" viewBox="0 0 1269 833" fill="none" xmlns="http://www.w3.org/2000/svg">
<path d="M689.205 514.653C678.039 784.56 534.239 781.12 344.146 784.56C170.052 787.713 -2.36082 836.945 0.725393 514.653C2.55592 323.281 154.844 168.126 344.964 168.126C535.083 168.126 697.113 323.461 689.205 514.653Z" fill="#E7EDDE"/>
<path d="M1253.97 439.796C1241.8 819.865 1183.81 790.54 811.017 780.506C577.18 774.211 349.83 848.826 353.862 439.796C356.255 196.916 555.355 0 803.914 0C927.385 0 1041.8 48.65 1124.41 127.361C1208.11 207.098 1257.88 317.624 1253.97 439.796Z" fill="#E7EDDE"/>
<path d="M1194.01 737.92L57.5858 737.828L43.8271 720.523H1204.93L1194.01 737.92Z" fill="#F5FFFD"/>
<path d="M1221.55 833H0L57.5853 737.829L1194.01 737.92L1221.55 833Z" fill="#B7CFCD"/>
<path opacity="0.2" d="M1104.83 771.458C1124.68 771.458 1140.77 769.203 1140.77 766.421C1140.77 763.639 1124.68 761.384 1104.83 761.384C1084.98 761.384 1068.89 763.639 1068.89 766.421C1068.89 769.203 1084.98 771.458 1104.83 771.458Z" fill="#665F52"/>
<path d="M1038.3 690.896C1035.57 698.076 1034.04 706.05 1034.04 714.454C1034.04 745.594 1054.89 770.877 1080.75 771.34C1098.45 750.549 1104.75 719.491 1105.12 690.896H1038.3Z" fill="#998F82"/>
<path d="M1124.64 690.896H1105.12C1104.75 719.491 1098.45 750.549 1080.76 771.34C1081 771.344 1081.24 771.362 1081.47 771.362C1107.67 771.362 1128.9 745.884 1128.9 714.454C1128.9 706.05 1127.37 698.076 1124.64 690.896Z" fill="#897E72"/>
<path d="M1081.35 695.246C1105.29 695.246 1124.69 693.298 1124.69 690.896C1124.69 688.495 1105.29 686.547 1081.35 686.547C1057.42 686.547 1038.01 688.495 1038.01 690.896C1038.01 693.298 1057.42 695.246 1081.35 695.246Z" fill="#595247"/>
<path d="M1057.3 489.653C1054.85 480.1 1052.06 469.622 1052.06 469.622L1048.26 469.07C1048.26 469.07 1049.88 475.239 1052.22 484.518C1054.16 486.048 1055.83 487.78 1057.3 489.653Z" fill="#334424"/>
<path d="M1075.16 567.156C1072.81 553.101 1061.32 505.637 1058.7 495.167C1058.27 493.426 1057.79 491.556 1057.3 489.654C1055.83 487.78 1054.16 486.049 1052.22 484.518C1057.65 506.059 1066.95 544.466 1068.91 562.112C1070.37 575.315 1072.95 610.415 1075.07 641.223L1082.21 653.365C1079.72 618.88 1076.38 574.399 1075.16 567.156Z" fill="#41573F"/>
<path d="M1075.07 641.223C1077 669.329 1078.55 693.864 1078.52 694.93L1085.14 695.007C1085.14 695.007 1083.87 676.418 1082.21 653.363L1075.07 641.223Z" fill="#334424"/>
<path d="M1075.74 424.157C1077.35 414.816 1065.56 408.708 1057.53 405.212C1049.49 401.72 1040.66 400.177 1035.67 395.314C1030.69 390.451 1021.37 379.783 1011.63 379.154C1001.89 378.523 987.479 377.97 975.102 374.104C967.046 371.587 957.005 378.724 942.664 374.372C943.187 374.659 951.452 378.466 952.003 378.674C964.294 382.772 979.657 380.724 993.996 388.917C1001.17 393.013 1013.46 386.868 1018.58 395.063C1029.84 411.451 1044.19 416.573 1057.5 427.838C1068.87 439.209 1063.58 461.093 1048.93 469.169C1049.46 469.247 1050.39 469.383 1052.06 469.622C1086.64 474.641 1074.12 433.493 1075.74 424.157Z" fill="#7A8C75"/>
<path d="M1057.5 427.836C1044.19 416.571 1029.85 411.45 1018.58 395.061C1013.46 386.866 1001.17 393.011 993.996 388.916C979.657 380.72 964.295 382.77 952.004 378.672C951.45 378.466 943.187 374.659 942.664 374.37C941.633 378.213 942.199 383.298 980.703 396.132C1021.33 409.673 1048.26 469.067 1048.26 469.067C1048.26 469.067 1048.26 469.067 1048.93 469.166C1063.58 461.091 1068.87 439.209 1057.5 427.836Z" fill="#41573F"/>
<path d="M1010.7 545.83L1007.59 547.88C1009.19 551.04 1010.72 554.065 1012.2 556.984C1015.76 560.196 1018.99 563.408 1022.2 566.62C1017.53 557.517 1013.49 550.086 1010.7 545.83Z" fill="#334424"/>
<path d="M1050 623.854C1041.2 605.149 1030.67 583.126 1022.2 566.621C1018.99 563.409 1015.76 560.197 1012.2 556.985C1046.37 624.487 1047.55 628.915 1049.24 634.259C1050.46 638.103 1052.08 644.531 1053.75 652.135L1061.65 660.032C1058.66 647.102 1054.75 633.938 1050 623.854Z" fill="#41573F"/>
<path d="M1067.74 694.767C1066.69 685.631 1064.63 672.948 1061.65 660.03L1053.75 652.133C1056.6 665.139 1059.59 681.592 1060.87 694.489C1063.59 694.625 1065.47 694.782 1067.74 694.767Z" fill="#334424"/>
<path d="M923.258 494.279C923.258 494.279 911.991 511.348 929.06 519.884C946.13 528.421 939.647 511.348 962.52 519.884C985.394 528.421 1010.7 545.83 1010.7 545.83C1010.7 545.83 1021.93 540.069 1018.85 531.171C1015.78 522.274 998.024 513.056 997.685 507.933C997.345 502.813 990.856 505.203 981.639 505.203C972.42 505.203 972.761 487.109 955.69 488.814C938.621 490.519 926.671 488.703 926.671 488.703L923.258 494.279Z" fill="#7A8C75"/>
<path d="M1007.59 547.88L1010.7 545.83C1012.89 549.636 1001.1 525.08 990.857 523.982C981.297 522.958 961.838 516.47 958.082 514.761C954.326 513.056 936.588 519.403 929.061 519.885C927.055 520.014 936.957 523.127 947.796 523.853C954.489 524.302 959.834 522.387 962.18 523.298C968.325 525.687 1000.23 536.37 1007.59 547.88Z" fill="#41573F"/>
<path d="M1069.37 652.491C1066.34 616.887 1062.79 575.084 1062.13 567.001C1062.11 566.821 1062.1 566.663 1062.08 566.489C1060.5 562.26 1058.69 558.03 1056.51 553.936L1064.23 647.343L1069.37 652.491Z" fill="#41573F"/>
<path d="M1057.26 538.206L1055.21 538.321L1055.39 540.398L1056.51 553.934C1058.69 558.028 1060.5 562.26 1062.08 566.487C1060.92 552.73 1059.12 549.721 1057.26 538.206Z" fill="#334424"/>
<path d="M1064.23 647.342L1068.15 694.767C1069.76 694.764 1071.38 694.792 1072.99 694.852C1072.15 685.02 1070.82 669.458 1069.38 652.491L1064.23 647.342Z" fill="#334424"/>
<path d="M1056.63 541.979C1058.32 541.905 1067.79 535.761 1068.56 529.102C1069.33 522.446 1064.17 510.31 1061.77 508.106C1059.38 505.901 1054.48 534.48 1054.48 534.48L1056.63 541.979Z" fill="#334424"/>
<path d="M1055.39 540.4C1055.39 540.4 1068.78 526.544 1064.56 512.461C1060.33 498.377 1051.12 484.805 1024.74 476.867C998.367 468.93 995.294 469.187 992.479 467.906C989.662 466.626 972.097 464.321 965.592 464.321C959.087 464.321 981.467 469.956 994.015 488.705C1001.91 500.507 1040.02 513.768 1055.39 540.4Z" fill="#41573F"/>
<path d="M1085.99 650.195C1083.36 668.879 1080.99 685.024 1079.53 694.942C1081.28 695.028 1083.38 694.961 1085.14 695.006C1086.92 684.131 1089.9 665.585 1093.09 644.138C1090.9 646.606 1089 648.97 1085.99 650.195Z" fill="#334424"/>
<path d="M1092.55 418.483L1087.48 411.828C1087.48 411.828 1089.63 421.99 1092.15 437.279C1094.37 441.811 1096.43 446.444 1098.3 451.151C1095.19 432.448 1092.55 418.483 1092.55 418.483Z" fill="#334424"/>
<path d="M1098.3 451.152C1096.43 446.445 1094.37 441.814 1092.15 437.28C1096.26 462.192 1101.36 500.725 1099.77 531.176C1098.33 558.783 1091.59 610.305 1085.99 650.196C1089 648.971 1090.9 646.607 1093.09 644.138C1100.41 594.874 1108.84 530.274 1106.42 507.984C1104.46 489.828 1101.18 468.462 1098.3 451.152Z" fill="#41573F"/>
<path d="M1092.55 416.435C1092.55 416.435 1107.45 412.338 1109.24 401.584C1111.03 390.831 1112.83 396.463 1115.13 395.696C1117.44 394.929 1121.02 381.1 1118.2 375.723C1115.39 370.347 1102.02 362.455 1094.75 363.583C1087.48 364.712 1090.29 384.215 1090.04 389.956C1089.78 395.698 1087.38 407.985 1092.55 416.435Z" fill="#7A8C75"/>
<path d="M1092.55 418.483C1092.55 418.483 1088.92 402.095 1092.55 399.278C1096.18 396.463 1092.51 391.085 1092.55 388.268C1092.6 385.451 1100.12 375.487 1094.16 362.15C1086.71 345.505 1069.3 339.359 1060.08 334.24C1050.86 329.118 1048.3 322.718 1041.13 321.437C1033.96 320.156 1015.57 311.449 1014.91 307.61C1014.24 303.767 999.136 296.6 999.391 290.454C999.648 284.309 995.806 301.978 1010.91 317.851C1026.02 333.728 1064.43 371.367 1068.78 378.794C1073.14 386.22 1086.45 411.828 1086.45 411.828L1092.55 418.483Z" fill="#41573F"/>
<path d="M1098.27 643.803C1093.9 663.652 1089.65 683.326 1087.18 694.852C1089.37 694.871 1091.45 695.015 1093.64 694.852C1096.27 682.196 1101.02 659.847 1105.87 637.609C1103.22 639.56 1100.42 641.355 1098.27 643.803Z" fill="#334424"/>
<path d="M1149.7 487.62C1149.7 487.62 1145.05 498.481 1141.13 507.883C1142.88 506.588 1144.71 505.388 1146.61 504.253C1150.69 494.342 1153.54 487.618 1153.54 487.618H1149.7V487.62Z" fill="#334424"/>
<path d="M1139.46 511.948C1135.36 521.935 1117.18 567.258 1112.83 580.829C1111.03 586.438 1104.53 615.3 1098.27 643.806C1100.42 641.357 1103.22 639.563 1105.87 637.612C1111.36 612.419 1116.97 587.37 1119.74 576.732C1124.08 560.076 1138.05 525.091 1146.61 504.254C1144.71 505.39 1142.88 506.59 1141.14 507.885C1140.55 509.283 1139.99 510.653 1139.46 511.948Z" fill="#41573F"/>
<path d="M1153.54 487.62C1153.54 487.62 1188.72 432.707 1230.87 425.143C1270.82 417.973 1267.74 418.742 1268.26 416.436C1268.77 414.129 1252.38 402.097 1239.58 404.146C1226.78 406.194 1212.44 404.673 1202.71 403.897C1192.98 403.121 1182.22 412.338 1176.59 416.436C1170.96 420.531 1161.99 420.788 1153.54 423.093C1145.09 425.398 1132.55 429.752 1132.8 439.225C1133.06 448.697 1114.76 487.618 1149.7 487.618C1153.54 487.62 1153.54 487.62 1153.54 487.62Z" fill="#41573F"/>
<path d="M1204.2 546.272C1204.2 546.272 1192.72 537.168 1187.21 538.192C1181.71 539.216 1175.18 541.395 1172.62 541.14C1170.06 540.883 1160.58 541.761 1157.77 543.946C1154.95 546.132 1148.72 549.931 1147.23 555.394C1145.73 560.853 1160.07 550.483 1166.6 550.1C1173.13 549.714 1204.2 546.272 1204.2 546.272Z" fill="#7A8C75"/>
<path d="M1094.24 694.834C1096.06 694.685 1097.79 694.796 1099.61 694.455C1102.83 682.464 1107.7 664.414 1110.69 653.718C1110.99 652.665 1111.41 651.435 1111.94 650.057C1109.5 652.294 1107.27 654.742 1104.78 656.927C1100.67 670.074 1096.73 685.037 1094.24 694.834Z" fill="#334424"/>
<path d="M1150.64 571.564C1150.64 571.564 1148.9 574.264 1146.14 578.626C1145.51 582.328 1144.62 586.029 1143.55 589.731C1148.98 580.307 1152.86 573.774 1152.86 573.774L1150.64 571.564Z" fill="#334424"/>
<path d="M1112.74 635.282C1110.27 640.364 1107.49 648.252 1104.78 656.928C1107.27 654.744 1109.5 652.295 1111.94 650.059C1117.2 636.318 1133.19 607.739 1143.55 589.73C1144.62 586.028 1145.52 582.327 1146.14 578.625C1137.8 591.796 1120.12 620.149 1112.74 635.282Z" fill="#41573F"/>
<path d="M1208 548.22C1208 548.22 1172.32 553.855 1165.66 560.173C1159 566.489 1152.86 573.772 1152.86 573.772C1152.86 573.772 1139.37 561.881 1147.22 555.394C1155.08 548.904 1164.47 549.756 1166.69 548.22C1168.9 546.685 1186.15 542.76 1192.29 544.296C1198.44 545.832 1204.75 545.146 1208 548.22Z" fill="#41573F"/>
<path d="M800.666 670.201H351.109L294.398 535.43C294.398 535.43 349.914 526.606 375.47 524.053C406.601 520.947 700.386 519.909 743.905 521.231C780.978 522.361 871.444 535.692 871.444 535.692L800.666 670.201Z" fill="#465172"/>
<path d="M377.078 575.728C377.078 575.728 461.644 624.523 527.693 631.297C593.743 638.072 789.648 639.53 789.648 639.53V658.581H395.913C395.913 658.581 388.979 589.576 377.078 575.728Z" fill="#303853"/>
<path d="M800.179 670.201H384.852V651.614C384.852 651.614 528.396 646 581.589 647.098C634.784 648.195 800.179 651.614 800.179 651.614V670.201Z" fill="#566489"/>
<path d="M674.77 654.934C681.644 654.391 699.986 650.448 713.345 651.045C711.378 650.048 709.474 649.06 707.91 648.312C696.466 644.226 685.034 647.558 674.77 654.934Z" fill="#89936C"/>
<path d="M676.291 599.616C676.9 607.005 678.05 635.365 675.626 638.835C675.125 639.547 674.511 640.563 673.884 641.74C682.224 632.95 682.559 614.178 676.291 599.616Z" fill="#89936C"/>
<path d="M794.18 584.963C793.627 584.463 792.894 584.319 791.91 584.648C782.965 587.661 687.728 582.39 683.52 580.885C679.306 579.378 672.993 580.885 672.993 580.885C670.888 589.162 675.627 594.431 676.15 598.195C676.195 598.489 676.24 598.985 676.292 599.616C682.559 614.176 682.227 632.95 673.885 641.739C671.211 646.753 668.305 654.704 672.993 654.984C673.441 655.011 674.05 654.988 674.77 654.934C685.035 647.558 696.467 644.224 707.908 648.312C709.473 649.058 711.379 650.048 713.344 651.045C716.576 651.187 719.515 651.594 721.926 652.38C726.483 653.871 732.632 654.921 739.394 655.609C756.582 654.688 774.224 650.003 790.9 652.022C780.501 644.281 785.674 620.096 786.45 612.868C787.237 605.529 794.18 584.963 794.18 584.963Z" fill="#98A579"/>
<path d="M790.901 652.022C774.225 650.003 756.582 654.688 739.395 655.61C763.36 658.047 795.074 655.901 791.38 652.38C791.212 652.268 791.061 652.143 790.901 652.022Z" fill="#89936C"/>
<path d="M789.8 627.545C790.269 617.498 798.645 588.994 794.179 584.963C794.179 584.963 787.238 605.53 786.451 612.869C785.661 620.207 780.331 645.046 791.381 652.38C786.645 647.866 789.277 638.837 789.8 627.545Z" fill="#89936C"/>
<path d="M493.945 653.296C487.891 652.681 471.776 648.542 459.993 648.995C461.739 648.021 463.431 647.051 464.82 646.322C474.952 642.356 484.988 645.808 493.945 653.296Z" fill="#A2B29E"/>
<path d="M493.27 597.967C492.644 605.346 491.292 633.695 493.384 637.189C493.817 637.906 494.347 638.93 494.884 640.114C487.638 631.232 487.571 612.46 493.27 597.967Z" fill="#A2B29E"/>
<path d="M389.545 582.063C390.039 581.567 390.687 581.431 391.55 581.772C399.396 584.878 483.396 580.619 487.123 579.16C490.855 577.698 496.402 579.272 496.402 579.272C498.159 587.573 493.917 592.79 493.411 596.546C493.368 596.84 493.323 597.336 493.267 597.967C487.569 612.46 487.635 631.234 494.882 640.114C497.176 645.156 499.642 653.136 495.507 653.366C495.112 653.389 494.575 653.359 493.941 653.298C484.984 645.81 474.947 642.356 464.816 646.324C463.427 647.053 461.737 648.023 459.989 648.997C457.14 649.105 454.546 649.482 452.408 650.24C448.375 651.683 442.943 652.672 436.975 653.285C421.837 652.182 406.347 647.308 391.625 649.152C400.884 641.522 396.616 617.282 396.016 610.048C395.417 602.7 389.545 582.063 389.545 582.063Z" fill="#C3CDC1"/>
<path d="M391.629 649.153C406.35 647.31 421.841 652.184 436.979 653.287C415.828 655.469 387.903 652.987 391.2 649.507C391.35 649.392 391.485 649.268 391.629 649.153Z" fill="#A2B29E"/>
<path d="M392.892 624.688C392.601 614.635 385.561 586.046 389.545 582.063C389.545 582.063 395.418 602.7 396.02 610.049C396.629 617.395 401.028 642.287 391.2 649.505C395.429 645.039 393.217 635.984 392.892 624.688Z" fill="#A2B29E"/>
<path d="M394.103 651.286C394.103 651.286 398.175 625.089 394.103 607.592C391.543 596.591 374.438 564.87 350.185 549.827C325.933 534.779 298.583 530.264 280.522 539.859C262.463 549.453 269.171 559.052 269.171 559.052C269.171 559.052 325.75 559.301 345.541 578.242C366.182 597.996 380.114 640.236 379.599 651.288H394.103V651.286Z" fill="#566489"/>
<path d="M790.934 651.286C790.934 651.286 786.862 625.089 790.934 607.592C793.494 596.591 810.597 564.87 834.852 549.827C859.104 534.779 886.454 530.264 904.513 539.859C922.572 549.453 915.864 559.052 915.864 559.052C915.864 559.052 859.285 559.301 839.492 578.242C818.854 597.996 804.921 640.236 805.438 651.288H790.934V651.286Z" fill="#566489"/>
<path d="M803.765 700.936H379.6V727.102H803.765V700.936Z" fill="#303853"/>
<path d="M803.765 670.202H379.6V703.669H803.765V670.202Z" fill="#28304A"/>
<path d="M798.576 670.202H386.452V700.936H798.576V670.202Z" fill="#404C6B"/>
<path d="M269.17 559.049C269.17 559.049 290.326 607.026 299.615 632.423C308.903 657.822 317.161 696.95 318.192 703.07C319.225 709.185 318.982 735.592 380.114 727.81C385.952 727.066 384.759 638.947 384.759 638.947C384.759 638.947 388.131 585.286 337.284 561.869C288.264 539.294 273.298 554.535 269.17 559.049Z" fill="#404C6B"/>
<path d="M915.865 559.049C915.865 559.049 894.709 607.026 885.419 632.423C876.132 657.822 867.874 696.95 866.843 703.07C865.812 709.185 866.054 735.592 804.921 727.81C799.083 727.066 800.277 638.947 800.277 638.947C800.277 638.947 796.904 585.286 847.751 561.869C896.771 539.294 911.735 554.535 915.865 559.049Z" fill="#404C6B"/>
<path d="M395.913 727.102H386.449V765.509H395.913V727.102Z" fill="#665F52"/>
<path d="M798.914 727.102H789.45V765.509H798.914V727.102Z" fill="#665F52"/>
<path opacity="0.2" d="M589.821 774.7C702.14 774.7 793.193 770.994 793.193 766.422C793.193 761.851 702.14 758.145 589.821 758.145C477.502 758.145 386.449 761.851 386.449 766.422C386.449 770.994 477.502 774.7 589.821 774.7Z" fill="#665F52"/>
<path d="M340.892 440.644L346.509 434.944V238.445L340.892 232.744V440.644Z" fill="#B5B5B5"/>
<path opacity="0.1" d="M499.968 450.558H355.658L341.536 439.298L341.545 232.745L489.62 232.686L499.968 242.785V450.558Z" fill="#665F52"/>
<path d="M492.342 232.745H340.894V440.645H492.342V232.745Z" fill="#D4D4D5"/>
<path d="M485.824 238.446H346.651V434.943H485.824V238.446Z" fill="#ECECEC"/>
<path d="M347.793 238.446H346.083V434.943H347.793V238.446Z" fill="#A0A0A0"/>
<g opacity="0.6">
<path opacity="0.7" d="M486.118 238.446H484.982V434.943H486.118V238.446Z" fill="#A0A0A0"/>
</g>
<path d="M485.822 238.446H347.792V240.149H485.822V238.446Z" fill="#A0A0A0"/>
<path d="M469.153 405.128H365.632V275.36H469.153V405.128Z" fill="#D1CDC1"/>
<path d="M492.339 440.646L485.853 434.944V238.447L492.339 232.745V440.646Z" fill="#EAEAEA"/>
<path d="M346.509 434.944L340.892 440.608V232.745L346.081 238.447L346.509 434.944Z" fill="#BCBCBC"/>
<path opacity="0.7" d="M485.821 434.107H347.791V434.944H485.821V434.107Z" fill="#A0A0A0"/>
<path d="M416.237 306.487C399.563 306.487 386.047 320.003 386.047 336.678C386.047 353.352 399.563 366.868 416.237 366.868C432.911 366.868 446.427 353.352 446.427 336.678C446.427 320.003 432.909 306.487 416.237 306.487ZM416.237 352.497C407.501 352.497 400.418 345.413 400.418 336.678C400.418 327.942 407.501 320.858 416.237 320.858C424.973 320.858 432.056 327.94 432.056 336.678C432.056 345.415 424.973 352.497 416.237 352.497Z" fill="#E2DFD9"/>
<path d="M656.624 435.698L662.243 429.998V233.499L656.624 227.799V435.698Z" fill="#B5B5B5"/>
<path opacity="0.1" d="M815.704 445.612H671.392L657.271 434.352L657.281 227.799L805.353 227.74L815.704 237.839V445.612Z" fill="#665F52"/>
<path d="M808.073 227.798H656.624V435.698H808.073V227.798Z" fill="#D4D4D5"/>
<path d="M801.557 233.5H662.385V429.997H801.557V233.5Z" fill="#ECECEC"/>
<path d="M663.525 233.5H661.816V429.997H663.525V233.5Z" fill="#A0A0A0"/>
<g opacity="0.6">
<path opacity="0.7" d="M801.852 233.5H800.715V429.997H801.852V233.5Z" fill="#A0A0A0"/>
</g>
<path d="M801.557 233.5H663.525V235.203H801.557V233.5Z" fill="#A0A0A0"/>
<path d="M784.885 400.182H681.364V270.414H784.885V400.182Z" fill="#D1CDC1"/>
<path d="M808.074 435.7L801.587 429.998V233.501L808.074 227.799V435.7Z" fill="#EAEAEA"/>
<path d="M662.243 429.998L656.624 435.662V227.799L661.817 233.501L662.243 429.998Z" fill="#BCBCBC"/>
<path opacity="0.7" d="M801.557 429.161H663.525V429.998H801.557V429.161Z" fill="#A0A0A0"/>
<path d="M747.355 305.082H716.586L701.202 331.73L716.586 358.378H747.355L762.741 331.73L747.355 305.082ZM740.673 346.802H723.271L714.569 331.732L723.271 316.662H740.673L749.376 331.732L740.673 346.802Z" fill="#E2DFD9"/>
<path d="M896.275 7.44092H893.911V125.281C894.698 124.819 895.488 124.356 896.275 123.894V7.44092Z" fill="#6D8480"/>
<path d="M893.908 125.282V256.805H896.272V123.253C895.485 123.931 894.697 124.606 893.908 125.282Z" fill="#5F7571"/>
<path d="M907.308 267.18L896.275 254.309H893.909L883.403 267.441V267.694H907.308V267.18Z" fill="#5F7571"/>
<path d="M907.311 267.694H883.404V302.639H907.311V267.694Z" fill="#6D8480"/>
<path d="M960.76 341.255L907.175 302.639H903.437H899.844H895.488H895.225H883.536L829.948 341.255C818.408 349.205 821.422 351.562 823.12 352.548L895.225 352.744H895.355H895.488L940.265 352.622L963.018 352.561L967.592 352.548C969.289 351.562 972.898 349.205 960.76 341.255Z" fill="#7B9491"/>
<path d="M899.844 302.64L938.466 352.747L959.725 352.57L903.437 302.64H899.844Z" fill="#90A5A2"/>
<path d="M903.155 267.694H900.349V302.64H903.155V267.694Z" fill="#90A5A2"/>
<path d="M572.89 66.5952H571.164V150.841C571.739 150.51 572.316 150.18 572.89 149.849V66.5952Z" fill="#6D8480"/>
<path d="M571.164 150.84V244.869H572.89V149.391C572.314 149.876 571.739 150.359 571.164 150.84Z" fill="#5F7571"/>
<path d="M580.943 252.289L572.889 243.087H571.163L563.494 252.475V252.657H580.943V252.289Z" fill="#5F7571"/>
<path d="M580.943 252.657H563.494V277.64H580.943V252.657Z" fill="#6D8480"/>
<path d="M619.957 305.246L580.846 277.639H578.117H575.496H572.317H572.123H563.59L524.477 305.246C516.055 310.93 518.254 312.617 519.494 313.321L572.123 313.461H572.218H572.315L604.997 313.373L621.605 313.33L624.942 313.321C626.184 312.617 628.817 310.93 619.957 305.246Z" fill="#7B9491"/>
<path d="M575.495 277.639L603.686 313.463L619.201 313.335L578.118 277.639H575.495Z" fill="#90A5A2"/>
<path d="M577.913 252.657H575.863V277.639H577.913V252.657Z" fill="#90A5A2"/>
<path d="M255.067 540.082H104.085V604.201H255.067V540.082Z" fill="#72524E"/>
<path opacity="0.3" d="M178.406 560.534C181.633 560.534 184.248 557.918 184.248 554.692C184.248 551.466 181.633 548.85 178.406 548.85C175.18 548.85 172.564 551.466 172.564 554.692C172.564 557.918 175.18 560.534 178.406 560.534Z" fill="#3B2B23"/>
<path d="M255.067 606.576H104.085V669.551H255.067V606.576Z" fill="#2E3449"/>
<path opacity="0.3" d="M178.406 624.716C181.633 624.716 184.248 622.101 184.248 618.874C184.248 615.648 181.633 613.032 178.406 613.032C175.18 613.032 172.564 615.648 172.564 618.874C172.564 622.101 175.18 624.716 178.406 624.716Z" fill="#0C0C0C"/>
<path d="M179.578 623.502C182.805 623.502 185.42 620.886 185.42 617.66C185.42 614.433 182.805 611.818 179.578 611.818C176.352 611.818 173.736 614.433 173.736 617.66C173.736 620.886 176.352 623.502 179.578 623.502Z" fill="#12182A"/>
<path d="M179.576 559.208C182.803 559.208 185.418 556.593 185.418 553.366C185.418 550.14 182.803 547.524 179.576 547.524C176.35 547.524 173.734 550.14 173.734 553.366C173.734 556.593 176.35 559.208 179.576 559.208Z" fill="#3B2B23"/>
<path d="M103.739 537.783H99.1943V672.829H103.739V537.783Z" fill="#3B4963"/>
<path d="M259.542 537.608H255.795V670.299H259.542V537.608Z" fill="#3B4963"/>
<path d="M259.543 670.294H99.1943V677.142H259.543V670.294Z" fill="#36425E"/>
<path d="M255.067 604.201H104.085V606.576H255.067V604.201Z" fill="#0C0C0C"/>
<path d="M255.067 669.232H104.085V670.299H255.067V669.232Z" fill="#0C0C0C"/>
<path d="M255.067 538.706H104.085V540.082H255.067V538.706Z" fill="#0C0C0C"/>
<path d="M255.793 538.706H254.579V670.299H255.793V538.706Z" fill="#232323"/>
<path d="M104.353 538.532H103.613V670.302H104.353V538.532Z" fill="#232323"/>
<path d="M261.36 534.201H99.1943V538.672H261.36V534.201Z" fill="#806762"/>
<path d="M261.361 534.201H100.104L104.14 530.425H256.327L261.361 534.201Z" fill="#B3A49C"/>
<path opacity="0.2" d="M248.157 780.814L112.981 780.815L125.456 737.828H227.901L248.157 780.814Z" fill="#665F52"/>
<path d="M115.563 704.616L105.49 777.778C105.49 777.778 105.909 779.653 109.893 780.49C113.878 781.331 114.991 780.383 115.83 779.335C116.515 778.48 129.291 711.034 133.979 686.199L115.563 704.616Z" fill="#806762"/>
<path d="M135.687 677.142H119.345L115.563 704.616L133.98 686.199C135.038 680.585 135.687 677.142 135.687 677.142Z" fill="#6D5854"/>
<path d="M228.157 677.142L237.109 742.155C237.109 742.155 236.838 743.364 234.265 743.906C231.691 744.447 230.971 743.835 230.428 743.157C229.887 742.482 217.604 677.142 217.604 677.142H228.157V677.142Z" fill="#604C49"/>
<path d="M241.214 677.142H224.872C224.872 677.142 225.639 681.228 226.873 687.758L245.196 706.083L241.214 677.142Z" fill="#6D5854"/>
<path d="M245.199 706.084L226.876 687.759C231.78 713.744 244.058 778.497 244.729 779.335C245.567 780.385 246.683 781.331 250.667 780.492C254.65 779.655 255.07 777.783 255.07 777.783L245.199 706.084Z" fill="#806762"/>
<path d="M203.36 379.519C196.088 379.122 188.186 378.838 180.465 378.838C154.92 378.838 125.174 381.941 125.174 381.941V461.458C125.174 461.458 164.687 462.594 180.465 462.789C186.255 462.861 194.312 462.728 202.405 462.522C212.062 436.309 208.237 407.16 203.36 379.519Z" fill="#B9B1AD"/>
<path d="M233.564 381.941C233.564 381.941 220.148 380.43 203.361 379.52C208.24 407.161 212.064 436.309 202.405 462.52C217.923 462.121 233.566 461.457 233.566 461.457V381.941H233.564Z" fill="#ADA5A1"/>
<path d="M233.563 461.457C233.563 461.045 209.299 460.715 179.367 460.715C149.436 460.715 125.172 461.047 125.172 461.457C125.172 461.866 149.436 463.528 179.367 463.528C209.299 463.528 233.563 461.866 233.563 461.457Z" fill="#797572"/>
<path d="M184.478 460.715H177.561V469.007H184.478V460.715Z" fill="#9B9EA0"/>
<path d="M184.573 475.111C182.081 474.275 181.919 469.563 181.91 466.05H181.021L172.328 466.048C172.328 466.048 174.4 470.936 172.328 472.858C170.255 474.782 154.704 485.744 150.709 490.035C146.708 494.329 142.122 509.138 146.857 517.725C151.596 526.312 158.555 529.423 161.663 531.052C164.338 532.452 177.41 532.43 181.019 532.394C183.996 532.425 193.424 532.444 198.125 531.659C213.935 513.951 203.37 488.779 184.573 475.111Z" fill="#B7CFCD"/>
<path d="M211.332 490.035C207.331 485.742 191.785 474.782 189.712 472.858C187.641 470.936 189.712 466.048 189.712 466.048L181.91 466.05C181.921 469.563 182.083 474.275 184.572 475.111C203.372 488.779 213.936 513.951 198.126 531.659C199.12 531.496 199.906 531.297 200.372 531.052C203.479 529.423 210.441 526.312 215.178 517.725C219.918 509.138 215.33 494.329 211.332 490.035Z" fill="#A9BFBC"/>
<path opacity="0.2" d="M958.194 780.559C994.328 780.559 1023.62 778.995 1023.62 777.065C1023.62 775.136 994.328 773.571 958.194 773.571C922.06 773.571 892.768 775.136 892.768 777.065C892.768 778.995 922.06 780.559 958.194 780.559Z" fill="#665F52"/>
<path d="M928.233 650.203H910.069L907.369 670.056L926.368 659.023L928.233 650.203Z" fill="#998F82"/>
<path d="M1006.72 650.203H988.56L990.866 661.112L1009.52 670.753L1006.72 650.203Z" fill="#998F82"/>
<path d="M917.454 673.32V677.579H927.327C928.502 676.248 929.583 674.928 930.187 673.32H917.454Z" fill="#998F82"/>
<path d="M936.638 646.135H895.996V655.132H936.638V646.135Z" fill="#A3998D"/>
<path d="M1012.07 646.135H936.638V655.132H1012.07V646.135Z" fill="#B1A696"/>
<path d="M1036.73 646.135H1012.07V655.132H1036.73C1039.45 655.132 1041.66 653.118 1041.66 650.633C1041.66 648.149 1039.45 646.135 1036.73 646.135Z" fill="#998F82"/>
<path d="M882.716 646.135C879.994 646.135 877.788 648.149 877.788 650.633C877.788 653.118 879.996 655.132 882.716 655.132H895.998V646.135H882.716V646.135Z" fill="#998F82"/>
<path d="M1001.99 673.32H986.881L989.06 677.579H1001.99V673.32Z" fill="#998F82"/>
<path d="M907.37 670.055L892.815 777.065H901.444L926.369 659.022L907.37 670.055Z" fill="#B1A696"/>
<path d="M1023.98 777.066L1009.52 670.753L990.866 661.112L1015.35 777.066H1023.98Z" fill="#B1A696"/>
<path d="M986.881 673.32H930.187L927.327 677.579H989.06L986.881 673.32Z" fill="#B1A696"/>
<path d="M996.17 629.826H920.478C919.923 629.826 919.384 629.853 918.854 629.894C920.825 631.721 922.072 634.466 922.072 637.536C922.072 640.605 920.825 643.348 918.854 645.178C919.384 645.218 919.925 645.245 920.478 645.245H996.17C1001.46 645.245 1006.34 643.252 1006.34 640.795V634.274C1006.34 631.818 1001.46 629.826 996.17 629.826Z" fill="white"/>
<path d="M996.467 629.168H920.776C919.869 629.168 918.987 629.229 918.144 629.33C918.577 629.703 918.979 630.111 919.351 630.542C919.817 630.505 920.291 630.483 920.776 630.483H996.467C1001.25 630.483 1005.45 632.254 1005.45 634.275V640.796C1005.45 642.817 1001.25 644.586 996.467 644.586H920.776C920.267 644.586 919.772 644.563 919.288 644.525C918.909 644.955 918.502 645.357 918.062 645.729C918.929 645.839 919.836 645.9 920.776 645.9H996.467C1002.63 645.9 1007.84 643.563 1007.84 640.796V634.275C1007.84 631.505 1002.63 629.168 996.467 629.168Z" fill="#9D9FAE"/>
<path opacity="0.6" d="M964.726 635.484H971.308L970.528 640.971L964.726 635.484Z" fill="#CECFD1"/>
<path d="M964.726 635.484H971.308V639.586L964.726 635.484Z" fill="#CDCBC4"/>
<path opacity="0.6" d="M919.488 630.541L927.461 631.908C927.461 631.908 997.985 631.56 1000.57 633.935C1002.43 635.648 1002.95 639.441 1001.79 642.266C1001.34 643.351 999.015 643.682 998.436 644.501C998.436 644.501 1002.8 644.032 1004.8 642.475C1006.15 641.433 1005.53 640.012 1005.56 637.942C1005.57 636.221 1006.08 634.61 1005.19 633.273C1004.3 631.935 1001.91 630.796 997.445 630.498L919.488 630.541Z" fill="#CECFD1"/>
<path d="M998.148 612.934H927.068C926.547 612.934 926.041 612.961 925.543 613.002C927.391 614.829 928.565 617.574 928.565 620.644C928.565 623.712 927.393 626.456 925.543 628.286C926.039 628.326 926.547 628.353 927.068 628.353H998.148C1003.11 628.353 1007.7 626.36 1007.7 623.903V617.382C1007.7 614.926 1003.11 612.934 998.148 612.934Z" fill="white"/>
<path d="M998.429 612.274H927.349C926.496 612.274 925.667 612.335 924.877 612.436C925.285 612.81 925.662 613.218 926.011 613.649C926.447 613.611 926.894 613.589 927.349 613.589H998.429C1002.92 613.589 1006.86 615.361 1006.86 617.382V623.902C1006.86 625.923 1002.92 627.693 998.429 627.693H927.349C926.869 627.693 926.408 627.67 925.951 627.632C925.597 628.061 925.213 628.464 924.8 628.835C925.615 628.945 926.467 629.006 927.349 629.006H998.429C1004.22 629.006 1009.11 626.669 1009.11 623.902V617.382C1009.11 614.613 1004.22 612.274 998.429 612.274Z" fill="#C1A24C"/>
<path opacity="0.6" d="M968.62 618.592H974.801L974.067 624.079L968.62 618.592Z" fill="#CECFD1"/>
<path d="M968.62 618.592H974.801V622.692L968.62 618.592Z" fill="#CDCBC4"/>
<path opacity="0.6" d="M926.138 613.649L933.623 615.016C933.623 615.016 999.851 614.668 1002.28 617.042C1004.03 618.756 1004.51 622.548 1003.42 625.374C1003.01 626.459 1000.82 626.79 1000.28 627.609C1000.28 627.609 1004.37 627.14 1006.25 625.583C1007.52 624.541 1006.94 623.12 1006.96 621.05C1006.98 619.329 1007.45 617.718 1006.62 616.381C1005.78 615.043 1003.54 613.904 999.346 613.606L926.138 613.649Z" fill="#CECFD1"/>
<path d="M977.169 569.891C976.213 565.121 972.004 561.53 966.953 561.53C961.611 561.53 957.215 565.551 956.609 570.731C963.666 573.647 970.686 572.206 977.169 569.891Z" fill="white"/>
<path d="M956.611 570.73C956.564 571.13 956.533 571.534 956.533 571.949V604.151C956.533 609.905 977.375 609.905 977.375 604.151V571.949C977.375 571.243 977.303 570.555 977.17 569.891C970.685 572.206 963.665 573.647 956.611 570.73Z" fill="#F7F5ED"/>
<path d="M967.838 554.522H966.065V561.528H967.838V554.522Z" fill="#C1A24C"/>
<path d="M976.376 605.745H957.531C955.902 605.745 954.578 606.995 954.433 608.587H979.471C979.325 606.995 978.001 605.745 976.376 605.745Z" fill="#183542"/>
<path d="M954.434 608.587C954.425 608.682 954.405 608.774 954.405 608.871C954.405 610.595 955.805 611.995 957.531 611.995H976.375C978.1 611.995 979.499 610.595 979.499 608.871C979.499 608.772 979.479 608.682 979.47 608.587H954.434Z" fill="#0F2B3A"/>
</svg>
