<svg width="1266" height="859" viewBox="0 0 1266 859" fill="none" xmlns="http://www.w3.org/2000/svg">
<path d="M1213.62 446.838C1309.4 813.609 1146.97 859 631.751 859C82.0205 859 12.168 660.62 12.168 432.991C12.168 130.898 121.678 -35.1643 626.199 6.98098C957.708 34.6749 1172.67 290.029 1213.62 446.838Z" fill="#F7F7F5"/>
<path opacity="0.4" d="M1208.72 740.149H144.194V742.306H1208.72V740.149Z" fill="#B7B3B0"/>
<path d="M1246.79 702.327H0V740.149H1246.79V702.327Z" fill="white"/>
<path opacity="0.2" d="M225.339 607.866C227.754 610.344 231.641 613.495 238.45 615.503C253.52 619.944 290.32 616.841 290.796 608.275C290.796 608.275 290.436 608.624 289.047 609.122C289.677 608.844 290.273 608.564 290.796 608.275C279.057 613.101 249.077 595.267 231.788 600.815C223.875 603.355 221.319 599.388 219.415 597.484C217.858 595.927 216.864 599.274 221.77 604.192C221.766 604.19 221.762 604.188 221.758 604.186C221.762 604.188 221.766 604.192 221.772 604.194C222.209 604.632 222.706 605.085 223.241 605.546C223.35 605.669 223.462 605.799 223.58 605.932C221.107 607.19 213.014 611.943 207.296 622.576C202.232 623.063 197.215 623.575 192.452 624.099C193.834 619.932 195.806 615.531 198.673 611.395C207.282 598.969 209.983 568.713 210.642 559.026C214.24 555.533 218.488 550.586 223.38 548.629C231.15 545.523 249.087 551.125 254.913 548.405C260.74 545.684 255.302 537.14 250.252 537.916C245.202 538.693 237.279 542.711 231.087 540.379C220.46 536.378 212.814 540.469 208.152 548.629C207.808 549.231 207.564 550.28 207.337 551.441C207.337 551.439 207.337 551.437 207.337 551.437C202.832 556.946 196.371 562.978 190.231 564.207C182.461 565.759 172.168 565.888 175.277 572.88C175.277 572.88 179.939 580.65 186.153 578.318C190.832 576.563 196.585 568.869 201.06 565.005C202.529 563.735 203.862 562.875 204.973 562.778C206.077 562.683 207.28 561.961 208.584 560.891C207.703 572.071 204.825 599.173 197.108 610.31C193.916 614.918 191.774 619.791 190.334 624.333C186.848 624.725 183.525 625.119 180.458 625.511C180.605 623.762 180.86 621.975 181.176 619.786C181.737 615.895 182.47 610.793 183.068 602.496C190.994 597.005 197.928 589.067 195.205 584.282C193.756 581.737 191.034 581.476 188.253 582.102C183.907 583.077 179.419 586.216 179.419 586.216C179.419 586.216 179.411 586.206 175.107 581.649C174.772 581.295 174.418 580.92 174.03 580.509C172.106 578.472 169.863 577.147 167.341 576.717C167.634 535.851 178.479 503.126 178.646 502.629L178.193 502.477C180.388 500.581 182.874 498.811 185.818 497.633C195.336 493.826 220.081 497.633 227.219 494.302C234.358 490.97 227.695 480.501 221.509 481.453C215.323 482.405 210.088 489.067 201.998 488.591C193.908 488.115 176.777 489.067 171.066 499.06C169.869 501.156 168.519 503.092 167.056 504.881C161.537 511.629 154.319 516.116 146.797 517.619C137.279 519.523 125.858 515.716 129.665 524.282C129.665 524.282 135.376 533.799 142.99 530.944C148.721 528.795 155.768 519.371 161.25 514.637C163.051 513.081 164.684 512.027 166.043 511.909C169.277 511.631 172.262 508.058 176.103 504.388C173.621 512.647 165.721 541.622 165.447 576.555C161.313 576.592 156.52 578.94 151.196 584.415C141.616 594.265 158.48 615.179 158.48 615.179C158.48 615.179 161.758 612.965 167.756 610.142C168.603 615.691 169.711 621.27 171.12 626.832C169.928 627.023 168.797 627.209 167.8 627.394C164.062 628.083 158.753 628.73 152.524 629.396C148.961 601.449 142.386 578.63 138.471 566.722C149.054 558.514 160.82 541.423 154.934 535.086C152.519 532.486 149.235 532.935 146.129 534.444C141.275 536.799 136.851 541.748 136.851 541.748C136.851 541.748 136.84 541.74 130.499 537.56C130.006 537.235 129.485 536.89 128.912 536.513C120.972 531.279 111.63 533.182 103.064 547.459C94.4983 561.735 120.195 581.721 120.195 581.721C120.195 581.721 125.906 575.535 136.851 567.921C136.853 567.919 136.857 567.917 136.859 567.915C139.314 575.444 142.748 587.091 145.83 601.504C143.774 600.572 140.418 600.294 137.574 599.725C133.554 598.919 129.323 594.97 126.374 591.361V591.363C126.226 590.605 126.066 589.918 125.841 589.524C122.788 584.179 117.78 581.501 110.821 584.12C106.766 585.648 101.579 583.016 98.271 582.508C94.9647 581.997 91.4033 587.594 95.2178 589.373C97.6143 590.493 103.144 589.461 108.184 589.044C109.606 590.03 115.606 594.391 121.935 601.82C121.09 601.489 120.173 601.356 119.238 601.501C114.188 602.277 106.266 606.296 100.074 603.964C96.4742 602.608 92.5453 602.07 88.9592 602.285C85.2569 598.069 82.1789 594.422 80.2431 592.094C85.5005 587.832 87.0423 584.442 87.8532 581.436C88.6946 578.318 88.0284 575.792 87.5068 574.461C87.3964 574.029 87.2517 573.654 87.0347 573.434C78.9411 565.148 68.449 584.158 53.5409 590.011C41.2386 594.842 25.2949 597.094 26.022 599.314C25.746 600.37 54.8086 606.804 68.1597 599.755C72.6653 597.378 76.0839 595.232 78.7317 593.262C80.5229 595.423 83.2944 598.72 86.6293 602.542C80.7627 603.507 76.4018 606.75 77.1366 612.194C72.1399 618.491 64.307 625.001 59.1257 625.083C49.5226 625.241 41.1567 629.471 44.2632 636.462C44.2632 636.462 48.9249 644.232 55.1398 641.9C56.417 641.421 57.7761 640.492 59.1657 639.323C59.1524 639.336 59.1371 639.352 59.1238 639.363C60.5933 638.093 66.9795 634.441 74.742 625.557C77.2584 622.675 79.4988 620.871 81.9505 619.449C87.0176 621.15 94.8429 625.273 101.366 635.147C85.689 637.511 72.5358 640.635 68.4471 645.152L66.7473 696.441C66.0068 707.988 64.9542 717.932 63.4619 721.579C62.5482 723.811 63.1725 725.513 65.2188 726.741C65.2359 726.752 65.2588 726.762 65.2759 726.771C65.0037 726.752 64.8362 726.741 64.8362 726.741C64.8362 726.741 64.8495 727.04 64.9257 727.54C65.7575 734.564 70.7218 737.486 74.1043 739.068C76.7311 741.2 79.297 746.486 82.0152 752.96C82.6757 754.848 83.7988 757.549 85.1141 760.538C88.0474 767.78 91.2243 775.459 94.8809 781.425C94.8828 781.426 94.8885 781.44 94.8885 781.44C94.8904 781.444 94.8942 781.447 94.8961 781.451C96.5027 784.069 98.2006 786.36 100.011 788.131C111.464 799.325 130.151 805.285 166.515 801.261C173.132 800.637 182.074 799.485 193.825 797.401C193.861 797.395 193.893 797.387 193.929 797.382C197.557 796.769 200.968 796.139 204.164 795.482C215.094 793.312 224.655 790.748 232.199 786.265C235.475 784.384 238.126 782.279 240.232 779.892C240.249 779.873 240.268 779.856 240.285 779.839C240.31 779.812 240.333 779.78 240.357 779.753C240.411 779.692 240.464 779.632 240.515 779.567C240.696 779.359 240.879 779.135 241.064 778.893C241.142 778.794 241.225 778.699 241.301 778.6C242.168 777.471 243.068 775.906 243.989 774.014C246.093 769.817 248.181 764.299 249.879 758.773C249.884 758.752 249.892 758.731 249.898 758.71C251.194 754.814 252.488 750.656 253.76 746.435C253.767 746.408 253.777 746.385 253.785 746.358C256.017 739.196 258.047 731.991 259.836 725.673C259.845 725.637 259.857 725.605 259.866 725.568C260.007 725.098 262.721 716 264.558 710.645C265.247 708.774 265.857 707.373 266.37 706.57C266.822 706.138 267.235 705.704 267.608 705.27C270.423 702.456 271.464 697.838 271.4 696.742C271.403 696.645 271.405 696.58 271.405 696.58L271.377 696.59C271.373 696.574 271.369 696.559 271.361 696.548C271.443 696.46 271.519 696.373 271.594 696.285C271.95 695.931 272.285 695.48 272.54 694.955C272.574 694.888 272.591 694.821 272.623 694.757C272.679 694.629 272.73 694.5 272.774 694.366C273.019 693.689 273.082 693.022 272.955 692.364C272.951 692.335 272.949 692.309 272.945 692.282C272.924 692.187 272.901 692.094 272.873 692.002C272.652 691.14 272.13 690.264 271.144 689.459C270.549 688.909 269.981 688.171 269.437 687.304C267.827 684.632 266.22 680.218 264.996 675.29C264.939 675.057 264.878 674.835 264.821 674.599C264.766 674.363 264.711 674.123 264.657 673.887C264.56 673.472 264.465 673.049 264.372 672.625C263.163 667.101 262.327 661.383 261.762 657.564C260.85 650.913 260.169 644.154 259.666 638.183C259.004 628.943 258.439 619.125 258.439 619.125L258.111 619.169C258.102 619.15 258.088 619.131 258.056 619.125C255.73 618.583 232.57 620.178 209.528 622.355C215.132 612.177 223.098 608.677 225.339 607.866ZM74.7572 621.9C74.5535 622.277 74.1709 622.824 73.676 623.475C74.0339 622.961 74.3993 622.428 74.7705 621.879C74.7648 621.887 74.761 621.895 74.7572 621.9ZM102.923 634.92C96.6188 625.104 89.0163 620.602 83.6313 618.55C86.0183 617.357 88.687 616.365 92.039 615.023C93.5123 614.433 95.2616 614.218 97.1861 614.203C104.256 621.697 111.872 629.04 117.829 632.996C112.766 633.582 107.737 634.218 102.923 634.92ZM120.761 632.667C120.294 632.356 119.857 632.054 119.358 631.734C113.889 628.226 106.743 621.436 99.9328 614.304C107.813 614.819 117.605 617.161 123.905 611.995C125.666 610.552 126.212 608.719 125.98 606.986C130.589 613.399 134.87 621.426 137.135 630.957C131.839 631.484 126.304 632.048 120.761 632.667ZM138.564 630.813C133.132 607.647 116.021 593.131 110.432 588.917C112.547 588.844 114.468 588.964 115.873 589.526C120.961 591.559 124.987 598.535 127.926 598.79C128.653 598.853 129.526 599.416 130.488 600.248C133.419 602.778 137.186 607.818 140.249 608.966C143.279 610.104 145.746 607.573 146.806 606.204C148.251 613.443 149.574 621.291 150.634 629.594C146.867 629.988 142.807 630.39 138.564 630.813ZM179.012 625.704C176.859 625.983 174.849 626.267 173.014 626.541C171.554 620.8 170.417 615.044 169.561 609.318C171.063 608.644 172.696 607.948 174.474 607.243C176.724 606.353 179.162 605.045 181.564 603.499C180.985 611.104 180.298 615.893 179.765 619.584C179.428 621.904 179.156 623.802 179.012 625.704Z" fill="#4C4742"/>
<path d="M249.785 616.197C249.785 616.197 252.11 676.964 262.493 686.531C272.578 695.824 242.931 707.5 162.916 720.183C106.97 729.048 65.7004 729.295 56.5655 723.815C54.5193 722.587 53.8949 720.886 54.8086 718.653C59.2171 707.877 59.7939 642.226 59.7939 642.226" fill="#BCAB9A"/>
<path d="M99.5898 644.625C128.692 644.246 166.412 642.875 188.001 638.617C196.428 636.956 203.844 635.113 210.31 633.242C173.089 630.055 134.782 632.456 99.5898 644.625Z" fill="#473F37"/>
<path d="M159.146 624.46C138.455 628.273 70.1404 630.793 59.7949 642.225C59.7949 642.225 76.5837 644.923 99.5913 644.624C134.783 632.455 173.091 630.054 210.312 633.241C233.506 626.529 250.715 616.505 249.404 616.199C245.407 615.262 179.835 620.647 159.146 624.46Z" fill="#5A5046"/>
<path d="M232.648 775.675C241.632 763.97 254.154 706.254 258.238 702.988C262.321 699.72 263.248 692.57 262.529 693.682C261.809 694.793 203.218 713.282 152.353 720.658C105.658 727.431 56.1826 723.814 56.1826 723.814C56.1826 723.814 56.5119 731.702 64.4057 735.446C72.2995 739.194 79.3786 773.495 91.3573 785.202C103.334 796.908 123.208 802.898 162.955 797.725C202.702 792.553 223.663 787.381 232.648 775.675Z" fill="#A09384"/>
<path opacity="0.2" d="M192.792 654.618C192.674 654.208 192.517 653.849 192.359 653.491C191.804 651.376 189.025 649.621 189.025 649.621C189.025 649.621 184.186 645.201 174.271 650.788C162.423 657.465 155.253 679.032 149.226 698.546C146.095 708.683 143.699 712.558 142.964 713.247C134.567 721.109 124.568 719.915 123.489 719.883C112.188 712.794 109.984 701.057 108.562 684.23C107.675 673.734 109.664 668.544 111.996 665.894C113.606 670.167 113.808 675.899 113.897 677.164C114.036 679.152 121.61 678.809 121.247 677.164C121.041 676.234 121.374 673.337 118.378 664.849C118.097 664.049 117.786 663.404 117.466 662.827C117.556 662.776 117.596 662.719 117.56 662.647C115.344 658.185 110.84 658.533 110.84 658.533C105.461 659.588 104.757 659.588 103.491 675.061C100.371 713.186 123.636 719.982 123.636 719.982C126.47 720.823 140.788 723.593 150.043 708.892C159.3 694.191 162.294 669.145 174.545 659.968C179.06 656.586 183.622 653.521 187.429 652.798C189.51 656.736 189.154 664.603 188.562 666.276C188.324 666.95 194.101 668.46 194.339 666.634C194.543 665.06 194.609 660.882 192.792 654.618Z" fill="#4C4742"/>
<path d="M182.694 663.317C183.465 661.137 183.853 648.429 178.954 647.613C175.754 647.08 175.666 644.145 180.033 645.49C182.355 646.204 185.732 647.548 186.925 651.658C188.745 657.922 188.677 662.1 188.471 663.672C188.233 665.502 182.456 663.99 182.694 663.317Z" fill="#4D4942"/>
<path d="M183.155 646.66C183.155 646.66 178.317 642.241 168.401 647.827C156.554 654.505 149.384 676.071 143.357 695.586C140.226 705.722 137.829 709.598 137.095 710.287C127.431 719.336 115.625 716.385 117.765 717.021C120.599 717.863 134.917 720.632 144.172 705.931C153.429 691.231 156.423 666.185 168.674 657.008C175.422 651.952 182.287 647.582 186.555 650.728C186.133 648.524 183.155 646.66 183.155 646.66Z" fill="#87796F"/>
<path d="M108.026 674.203C107.887 672.216 107.484 659.211 101.764 658.141C98.5752 657.546 103.345 655.107 106.808 656.217C109.121 656.959 111.079 657.85 112.505 661.887C115.501 670.375 115.168 673.27 115.374 674.203C115.739 675.848 108.167 676.19 108.026 674.203Z" fill="#4D4942"/>
<path d="M117.767 717.021C117.767 717.021 94.5021 710.228 97.6219 672.101C98.8877 656.627 99.5939 656.627 104.971 655.573C104.971 655.573 109.475 655.224 111.691 659.686C112.165 660.642 100.789 658.706 102.695 681.268C104.12 698.175 106.332 709.944 117.767 717.021Z" fill="#75665A"/>
<path opacity="0.2" d="M262.494 686.534C260.326 684.762 257.874 678.762 256.209 671.839C254.109 663.111 253.005 653.133 252.474 650.706C251.522 646.357 249.786 616.198 249.786 616.198C249.786 616.198 238.78 622.272 233.955 624.655C213.098 634.951 246.786 652.397 241.931 700.422C236.26 756.502 216.806 785.565 175.62 790.613C143.486 794.549 142.073 796.323 142.073 798.931C142.073 798.931 153.372 800.117 185.172 794.473C205.136 790.931 221.717 787.626 231.633 776.912C234.808 773.48 238.514 764.672 241.226 755.848C242.486 751.749 243.826 747.621 245.132 743.433C247.369 736.255 249.404 729.033 251.195 722.704C251.195 722.704 256.542 704.743 257.433 703.926C262.755 699.049 262.755 693.655 262.755 693.655L257.966 695.44C260.36 694.643 261.828 694.115 262.111 693.978C263.775 693.179 266.006 689.4 262.494 686.534Z" fill="#4C4742"/>
<path opacity="0.2" d="M56.1826 723.818C56.1826 723.818 68.7799 724.975 86.235 724.777C103.69 724.579 128.024 723.344 130.784 723.1C132.136 722.982 115.438 724.703 103.199 732.877C91.5591 740.65 77.8044 751.592 86.629 770.391C91.3801 780.508 87.0097 779.746 86.2331 778.517C86.2331 778.517 76.0284 757.664 73.3578 750.029C70.6872 742.394 69.4176 737.955 65.9285 736.368C62.4394 734.78 56.7365 731.784 56.1826 723.818Z" fill="#4C4742"/>
<path opacity="0.2" d="M59.7945 642.226C78.3041 645.14 109.238 644.436 112 644.647C112.535 644.687 112.234 646.218 107.547 647.961C102.943 649.674 95.19 650.188 87.0716 653.855C74.8454 659.371 62.1168 668.452 61.6485 686.294C61.4106 695.335 58.0928 696.866 58.0928 693.567L59.7945 642.226Z" fill="#4C4742"/>
<path d="M215.672 602.642C215.672 602.642 196.479 610.731 193.147 637.38H195.527C198.54 609.94 217.295 604.728 217.295 604.728L215.672 602.642Z" fill="#6E705A"/>
<path d="M282.138 605.337C270.399 610.163 240.419 592.329 223.129 597.878C215.216 600.417 212.66 596.45 210.756 594.546C208.853 592.643 207.779 598.06 217.297 604.722C224.176 609.536 230.857 610.039 235.477 611.92C246.278 613.46 272.86 610.467 282.138 605.337Z" fill="#546040"/>
<path d="M213.1 601.253C214.872 601.974 217.826 609.042 229.791 612.567C244.861 617.008 281.662 613.905 282.137 605.34C282.137 605.34 279.543 607.917 260.247 609.147C242.691 610.264 220.247 605.46 213.1 601.253Z" fill="#8E9176"/>
<path d="M143.589 642.296C139.837 593.532 125.035 555.888 124.887 555.513L126.655 554.811C126.805 555.186 141.714 593.081 145.488 642.151L143.589 642.296Z" fill="#6E705A"/>
<path d="M146.291 532.151C143.876 529.551 140.592 530 137.486 531.51C142.227 544.05 128.412 555.505 117.253 560.289C113.446 562.192 109.639 558.385 107.736 556.482C104.338 546.29 117.607 542.16 121.856 534.626C121.363 534.3 120.841 533.956 120.269 533.579C112.329 528.344 102.987 530.248 94.421 544.524C85.8552 558.8 111.552 578.787 111.552 578.787C111.552 578.787 117.263 572.601 128.208 564.987C139.153 557.373 152.478 538.814 146.291 532.151Z" fill="#8E9176"/>
<path d="M107.729 556.482C109.632 558.385 113.439 562.192 117.246 560.289C128.404 555.505 142.22 544.05 137.478 531.51C132.625 533.864 128.201 538.813 128.201 538.813C128.201 538.813 128.189 538.806 121.849 534.626C117.6 542.16 104.333 546.29 107.729 556.482Z" fill="#546040"/>
<path d="M138.138 514.687C128.62 516.59 117.199 512.783 121.006 521.349C121.006 521.349 126.717 530.867 134.331 528.011C140.062 525.862 147.109 516.438 152.591 511.704C154.645 508.379 156.632 505.209 158.397 501.949C152.878 508.697 145.66 513.183 138.138 514.687Z" fill="#546040"/>
<path d="M212.857 478.512C206.67 479.464 201.436 486.126 193.346 485.65C185.256 485.174 168.124 486.126 162.414 496.119C161.217 498.215 159.867 500.151 158.403 501.94C156.639 505.201 154.652 508.37 152.598 511.696C154.398 510.141 156.032 509.086 157.391 508.968C162.89 508.492 167.649 498.499 177.166 494.692C186.684 490.885 211.429 494.692 218.567 491.361C225.705 488.03 219.043 477.56 212.857 478.512Z" fill="#8E9176"/>
<path d="M168.2 641.958C142.65 576.105 167.928 499.849 168.187 499.086L169.99 499.695C169.733 500.451 144.679 576.071 169.976 641.269L168.2 641.958Z" fill="#8E9176"/>
<path d="M178.75 640.037C178.729 639.307 178.324 621.989 188.449 607.377C198.238 593.252 200.243 553.408 200.262 553.01L202.163 553.099C202.083 554.759 200.113 593.889 190.015 608.464C180.244 622.562 180.65 639.809 180.656 639.98L178.75 640.037Z" fill="#6E705A"/>
<path d="M181.568 561.28C173.798 562.831 163.506 562.961 166.614 569.952C166.614 569.952 171.276 577.722 177.491 575.39C182.17 573.635 187.922 565.941 192.397 562.077C194.074 559.363 201.207 553.059 198.673 548.509C194.169 554.016 187.709 560.05 181.568 561.28Z" fill="#546040"/>
<path d="M241.59 534.987C236.54 535.764 228.618 539.782 222.426 537.45C211.799 533.449 204.153 537.54 199.491 545.7C198.514 547.408 198.334 552.652 197.138 554.113C195.699 556.773 194.077 559.361 192.4 562.076C193.87 560.806 195.202 559.946 196.314 559.849C200.802 559.462 206.951 548.808 214.719 545.7C222.489 542.594 240.426 548.196 246.252 545.475C252.079 542.755 246.64 534.211 241.59 534.987Z" fill="#8E9176"/>
<path d="M125.195 644.223L123.316 643.922C123.314 643.916 123.481 639.266 109.67 630.401C94.8434 620.888 68.992 589.033 67.8994 587.681L69.3784 586.484C69.6449 586.813 96.1282 619.452 110.698 628.799C125.655 638.4 125.286 643.655 125.195 644.223Z" fill="#6E705A"/>
<path d="M78.3814 570.508C70.2878 562.222 59.7957 581.233 44.8875 587.086C32.5853 591.917 16.6416 594.169 17.3687 596.388C17.3687 596.388 47.5029 599.875 61.3528 592.789C68.2453 589.263 73.2934 584.615 76.4912 579.578C79.1828 576.851 79.6035 571.759 78.3814 570.508Z" fill="#8E9176"/>
<path d="M59.5029 596.824C46.1518 603.871 17.0892 597.437 17.3652 596.382C17.6412 595.328 44.7851 596.114 51.6395 593.607C66.5458 588.154 78.5683 575.21 78.3779 570.502C78.3779 570.502 80.4413 573.891 79.1964 578.505C77.9496 583.117 75.043 588.62 59.5029 596.824Z" fill="#546040"/>
<path d="M50.4755 622.159C40.8724 622.317 32.5065 626.547 35.613 633.538C35.613 633.538 40.2747 641.308 46.4896 638.977C51.1684 637.222 56.9207 629.528 61.3958 625.664C63.0728 622.949 73.7324 609.967 71.1988 605.418C66.8855 612.573 56.7361 622.058 50.4755 622.159Z" fill="#546040"/>
<path d="M110.582 598.569C105.532 599.345 97.6098 603.364 91.4177 601.032C80.7905 597.031 67.2052 599.97 68.4825 609.282C68.6386 610.414 68.0675 616.195 66.0955 618.963C64.6565 621.622 55.1257 631.958 50.4697 636.435C51.9392 635.165 58.3254 631.512 66.0879 622.629C71.4976 616.435 75.6073 615.198 83.3773 612.089C91.1474 608.983 106.537 616.195 115.244 609.057C120.216 604.98 115.632 597.79 110.582 598.569Z" fill="#8E9176"/>
<path d="M98.9155 644.861C88.8765 616.673 68.2407 615.344 68.0332 615.334L68.1017 613.907C68.3187 613.918 89.8853 615.249 100.261 644.382L98.9155 644.861Z" fill="#8E9176"/>
<path d="M186.547 581.348C185.098 578.803 182.376 578.543 179.595 579.169C181.033 590.139 167.769 596.731 157.901 598.463C154.485 599.274 152.145 595.495 150.976 593.607C150.173 584.775 161.613 583.968 166.452 578.716C166.117 578.362 165.763 577.987 165.374 577.576C159.986 571.869 152.12 571.633 142.54 581.482C132.96 591.332 149.825 612.246 149.825 612.246C149.825 612.246 155.581 608.355 165.812 604.308C176.047 600.26 190.259 587.872 186.547 581.348Z" fill="#8E9176"/>
<path d="M150.981 593.603C152.149 595.491 154.489 599.27 157.906 598.459C167.773 596.727 181.037 590.135 179.6 579.165C175.254 580.14 170.766 583.278 170.766 583.278C170.766 583.278 170.758 583.269 166.454 578.712C161.617 583.964 150.177 584.773 150.981 593.603Z" fill="#546040"/>
<path d="M172.073 640.143C169.579 627.22 170.025 624.125 171.104 616.65C171.774 612.009 172.69 605.652 173.323 594.124L174.749 594.202C174.113 605.792 173.19 612.184 172.516 616.852C171.431 624.371 171.026 627.184 173.474 639.871L172.073 640.143Z" fill="#8E9176"/>
<path d="M128.924 596.791C134.012 597.808 140.753 597.891 138.718 602.469C138.718 602.469 135.665 607.557 131.595 606.031C128.532 604.881 124.763 599.842 121.834 597.313C120.735 595.535 116.064 591.406 117.724 588.427C120.673 592.036 124.902 595.986 128.924 596.791Z" fill="#546040"/>
<path d="M89.6193 579.578C92.9257 580.086 98.1146 582.717 102.169 581.19C109.128 578.571 114.136 581.249 117.189 586.594C117.829 587.712 117.947 591.147 118.729 592.103C119.672 593.845 120.734 595.541 121.832 597.317C120.871 596.485 119.997 595.923 119.27 595.859C116.331 595.603 112.305 588.627 107.217 586.594C102.131 584.559 90.3845 588.225 86.568 586.446C82.7496 584.664 86.311 579.07 89.6193 579.578Z" fill="#8E9176"/>
<path d="M131.577 643.618L130.149 643.592C130.861 606.864 99.52 586.095 99.2021 585.889L99.9788 584.692C100.302 584.901 132.304 606.083 131.577 643.618Z" fill="#8E9176"/>
<path opacity="0.7" d="M740.63 162.768L753.981 175.617H842.927V68.6099L832.919 47.9608L740.626 47.917L740.63 162.768Z" fill="#E8E3D8"/>
<path d="M831.201 47.9619H738.912V162.769H831.201V47.9619Z" fill="#AAC1C0"/>
<path d="M813.478 70.0146H756.642V140.718H813.478V70.0146Z" fill="white"/>
<path d="M831.203 47.9619L813.476 70.0139H756.639H738.912V47.9619H831.203Z" fill="#91AAAA"/>
<path d="M756.765 162.769H738.912V47.9619L756.765 70.0139V162.769Z" fill="#7E9899"/>
<path d="M738.911 162.652L756.636 140.6H813.473L831.204 162.652H738.911Z" fill="#91AAAA"/>
<path d="M757.55 70.0127H756.642V140.598H757.55V70.0127Z" fill="#566868"/>
<path d="M813.48 70.0713H812.568V140.655H813.48V70.0713Z" fill="#869E9D"/>
<path d="M813.479 139.809H756.799V140.717H813.479V139.809Z" fill="#718989"/>
<path d="M813.401 70.0127H756.721V70.9207H813.401V70.0127Z" fill="#718989"/>
<path d="M788.203 103.953H786.404C786.404 104.019 786.404 104.086 786.404 104.086V131.574H781.731C776.86 131.574 776.86 128.104 776.86 128.104V104.019C776.86 104.019 776.86 103.151 777.462 102.283C776.86 101.417 776.86 100.549 776.86 100.549V85.0033C776.86 85.0033 776.86 81.5352 781.731 81.5352V84.9367C779.999 84.9367 779.999 86.271 779.999 86.271V99.0816C779.999 99.2795 779.933 100.549 781.334 100.549C781.4 100.549 781.467 100.549 781.533 100.549H783.332V97.2809H786.403C786.403 100.549 786.403 100.549 786.403 100.549H788.201V103.953H788.203ZM783.332 126.905V103.953C781.533 103.953 781.398 103.953 781.332 103.953C779.796 103.953 779.997 105.287 779.997 105.42V126.903C779.997 126.903 779.997 128.237 781.73 128.237H783.332V126.905Z" fill="#E2DCD3"/>
<path d="M786.104 109.157H787.903C787.903 109.09 787.903 109.024 787.903 109.024V81.5352H792.576C797.447 81.5352 797.447 85.0033 797.447 85.0033V109.09C797.447 109.09 797.447 109.956 796.846 110.824C797.447 111.69 797.447 112.558 797.447 112.558V128.104C797.447 128.104 797.447 131.574 792.576 131.574V128.171C794.309 128.171 794.309 126.836 794.309 126.836V114.028C794.309 113.828 794.375 112.56 792.974 112.56C792.908 112.56 792.841 112.56 792.774 112.56H790.976V115.83H787.905C787.905 112.56 787.905 112.56 787.905 112.56H786.106V109.157H786.104ZM790.976 86.2044V109.159C792.774 109.159 792.909 109.159 792.976 109.159C794.512 109.159 794.31 107.824 794.31 107.691V86.2044C794.31 86.2044 794.31 84.8701 792.578 84.8701H790.976V86.2044Z" fill="#E2DCD3"/>
<path opacity="0.7" d="M956.769 162.768L970.119 175.617H1059.07V68.6099L1049.06 47.9608L956.766 47.917L956.769 162.768Z" fill="#E8E3D8"/>
<path d="M1047.34 47.9619H955.054V162.769H1047.34V47.9619Z" fill="#E0D9D3"/>
<path d="M1029.62 70.0146H972.781V140.718H1029.62V70.0146Z" fill="white"/>
<path d="M1047.34 47.9619L1029.62 70.0139H972.781H955.054V47.9619H1047.34Z" fill="#D3CCC5"/>
<path d="M972.907 162.769H955.054V47.9619L972.907 70.0139V162.769Z" fill="#C4BAB1"/>
<path d="M955.05 162.652L972.777 140.6H1029.61L1047.34 162.652H955.05Z" fill="#D3CCC5"/>
<path d="M973.689 70.0127H972.781V140.598H973.689V70.0127Z" fill="#8E8782"/>
<path d="M1029.62 70.0713H1028.71V140.655H1029.62V70.0713Z" fill="#C6BDB6"/>
<path d="M1029.62 139.809H972.938V140.717H1029.62V139.809Z" fill="#8E8782"/>
<path d="M1029.54 70.0127H972.86V70.9207H1029.54V70.0127Z" fill="#8E8782"/>
<path d="M1004.34 103.953H1002.55C1002.55 104.019 1002.55 104.086 1002.55 104.086V131.574H997.872C993.001 131.574 993.001 128.104 993.001 128.104V104.019C993.001 104.019 993.001 103.151 993.603 102.283C993.001 101.417 993.001 100.549 993.001 100.549V85.0033C993.001 85.0033 993.001 81.5352 997.872 81.5352V84.9367C996.14 84.9367 996.14 86.271 996.14 86.271V99.0816C996.14 99.2795 996.073 100.549 997.474 100.549C997.541 100.549 997.607 100.549 997.674 100.549H999.473V97.2809H1002.54C1002.54 100.549 1002.54 100.549 1002.54 100.549H1004.34V103.953H1004.34ZM999.473 126.905V103.953C997.674 103.953 997.539 103.953 997.472 103.953C995.936 103.953 996.138 105.287 996.138 105.42V126.903C996.138 126.903 996.138 128.237 997.87 128.237H999.473V126.905Z" fill="#E2DCD3"/>
<path d="M1011.15 112.56H1009.35C1009.35 112.56 1009.35 112.56 1009.35 115.83H1006.28V112.56H1004.48C1004.41 112.56 1004.34 112.56 1004.28 112.56C1002.88 112.56 1002.94 113.828 1002.94 114.028V126.836C1002.94 126.836 1002.94 128.171 1004.68 128.171V131.574C999.805 131.574 999.805 128.104 999.805 128.104V112.558C999.805 112.558 999.805 111.69 1000.41 110.824C999.805 109.956 999.805 109.09 999.805 109.09V85.0033C999.805 85.0033 999.805 81.5352 1004.68 81.5352H1009.35V109.024C1009.35 109.024 1009.35 109.09 1009.35 109.157H1011.15V112.56H1011.15ZM1006.27 84.8701H1004.67C1002.94 84.8701 1002.94 86.2044 1002.94 86.2044V107.689C1002.94 107.822 1002.74 109.157 1004.27 109.157C1004.34 109.157 1004.47 109.157 1006.27 109.157V86.2044V84.8701Z" fill="#E2DCD3"/>
<path opacity="0.7" d="M523.632 162.768L536.983 175.617H625.931V68.6099L615.923 47.9608L523.63 47.917L523.632 162.768Z" fill="#E8E3D8"/>
<path d="M615.922 47.9619H523.631V162.769H615.922V47.9619Z" fill="#D0D8D0"/>
<path d="M598.197 70.0146H541.36V140.718H598.197V70.0146Z" fill="white"/>
<path d="M615.922 47.9619L598.196 70.0139H541.358H523.631V47.9619H615.922Z" fill="#B6BFB7"/>
<path d="M541.484 162.769H523.631V47.9619L541.484 70.0139V162.769Z" fill="#A5AFA5"/>
<path d="M523.63 162.652L541.355 140.6H598.194L615.923 162.652H523.63Z" fill="#B6BFB7"/>
<path d="M598.194 139.449H541.108V140.713H598.194V139.449Z" fill="#868B84"/>
<path d="M598.196 69.7354H596.787V139.451H598.196V69.7354Z" fill="#B6BFB7"/>
<path d="M542.189 69.3818H540.78V140.717H542.189V69.3818Z" fill="#868B84"/>
<path d="M598.194 69.3818H541.108V70.6458H598.194V69.3818Z" fill="#90938F"/>
<path d="M582.507 105.704V122.386C582.507 128.591 578.038 128.391 578.038 128.391H572.967V78.3447C572.967 78.3447 573.966 78.3447 577.769 78.3447C582.709 78.3447 582.505 82.4182 582.505 82.4182C582.505 82.4182 582.505 96.8296 582.505 101.099C582.505 103.301 581.175 103.368 580.973 103.301C582.709 103.368 582.507 105.704 582.507 105.704ZM577.769 81.6835C576.033 81.6835 576.033 81.6835 576.033 81.6835V101.834H577.836C577.836 101.834 579.37 101.9 579.37 100.699C579.37 99.6315 579.37 82.6162 579.37 82.6162C579.37 82.6162 579.37 81.6835 577.769 81.6835ZM577.769 104.902C576.033 104.902 576.033 104.902 576.033 104.902V125.056H577.836C577.836 125.056 579.37 125.188 579.37 123.918C579.37 122.85 579.37 105.902 579.37 105.902C579.37 105.902 579.439 104.902 577.769 104.902Z" fill="#E2DCD3"/>
<path d="M561.649 103.301C561.449 103.368 560.115 103.301 560.115 101.099C560.115 96.8296 560.115 82.4182 560.115 82.4182C560.115 82.4182 559.913 78.3447 564.853 78.3447C568.656 78.3447 569.653 78.3447 569.653 78.3447V128.391H564.582C564.582 128.391 560.113 128.589 560.113 122.386V105.704C560.115 105.704 559.911 103.368 561.649 103.301ZM563.25 82.6162C563.25 82.6162 563.25 99.6315 563.25 100.699C563.25 101.9 564.786 101.834 564.786 101.834H566.589V81.6835C566.589 81.6835 566.589 81.6835 564.853 81.6835C563.25 81.6835 563.25 82.6162 563.25 82.6162ZM563.25 105.902C563.25 105.902 563.25 122.85 563.25 123.918C563.25 125.188 564.786 125.056 564.786 125.056H566.589V104.902C566.589 104.902 566.589 104.902 564.853 104.902C563.183 104.902 563.25 105.902 563.25 105.902Z" fill="#E2DCD3"/>
<path opacity="0.6" d="M147.759 328.268L181.515 343.648H406.385V86.5718L389.942 57.1266L147.759 56.9268V328.268Z" fill="#E8E3D8"/>
<path d="M388.995 57.127H146.813V328.266H388.995V57.127Z" fill="#CECDCC"/>
<path d="M379.401 66.2246H157.4V318.693H379.401V66.2246Z" fill="white"/>
<path d="M332.04 116.796H203.533V274.158H332.04V116.796Z" fill="#F2EFEA"/>
<path d="M331.852 119.647H203.85L200.89 116.796H334.922L331.852 119.647Z" fill="#CECBC6"/>
<path d="M203.96 273.756H332.518L334.922 277.155H200.89L203.96 273.756Z" fill="#CECBC6"/>
<path d="M334.923 277.156L331.963 273.646V119.647L334.923 116.796V277.156Z" fill="#DCD9D2"/>
<path d="M200.89 277.156L203.96 273.756L203.85 119.647L200.89 116.796V277.156Z" fill="#BFBDBA"/>
<path opacity="0.8" d="M203.807 148.479C203.807 148.479 255.95 158.282 248.309 192.343C240.668 226.404 253.654 243.628 284.043 249.246C315.778 255.112 332.036 232.409 332.036 232.409V274.159H203.529L203.807 148.479Z" fill="#E2DCD3"/>
<path d="M487.056 804.248H496.688L399.22 467.914H390.151L487.056 804.248Z" fill="#B5B1AC"/>
<path d="M404.896 519.203L410.01 536.786L417.228 530.238L414.074 519.203H404.896Z" fill="#8E8C8A"/>
<path opacity="0.1" d="M484.998 717.24H373.83L374.258 710.355H482.995L484.998 717.24Z" fill="#4C4742"/>
<path opacity="0.1" d="M303.448 804.521L372.556 742.951H361.438L307.236 789.219L303.448 800.554" fill="#4C4742"/>
<path d="M290.418 796.586L293.25 804.52L376.553 467.914H372.207L290.418 796.586Z" fill="#DDD8D3"/>
<path d="M391.12 481.379H394.032L487.058 804.248L481.201 799.091L391.12 481.379Z" fill="#DDD8D3"/>
<path opacity="0.1" d="M361.438 742.95H372.557L386.216 481.231H383.865L380.553 494.548L375.955 513.033L361.438 742.95Z" fill="#4C4742"/>
<path d="M471.377 726.953H317.618V737.036H471.377V726.953Z" fill="#B5B1AC"/>
<path d="M373.217 481.398L293.251 804.52H303.45L383.867 481.231L373.217 481.398Z" fill="#B5B1AC"/>
<path opacity="0.1" d="M496.69 804.249L502.166 742.951L492.793 744.03L489.54 778.934L496.69 804.249Z" fill="#4C4742"/>
<path opacity="0.1" d="M492.793 744.029L501.888 746.055L429.031 481.398L416.341 481.231L492.793 744.029Z" fill="#4C4742"/>
<path d="M356.488 548.74L369.933 537.199L374.389 519.287H363.779L356.488 548.74Z" fill="#8E8C8A"/>
<path opacity="0.5" d="M363.858 519.287L356.57 548.74L350.621 554.945L359.628 519.287H363.858Z" fill="#B5B1AC"/>
<path opacity="0.5" d="M401.794 519.169L407.466 539.044L410.009 536.784L404.84 519.169H401.794Z" fill="#B5B1AC"/>
<path d="M1101.96 519.2H226.442V496.526H1104.18L1101.96 519.2Z" fill="#DCD0C4"/>
<path d="M312.987 452.242H986.888L1104.18 496.527H226.442L312.987 452.242Z" fill="#E3DED9"/>
<path d="M1078.72 522.743H867.435V802.557H1078.72V522.743Z" fill="white"/>
<path d="M1064.38 536.069H880.377V605.546H1064.38V536.069Z" fill="white"/>
<path d="M997.834 546.589H947.365L925.93 536.069H1018.82L997.834 546.589Z" fill="#4C4742"/>
<path d="M1064.38 606.736H880.377V676.213H1064.38V606.736Z" fill="white"/>
<path d="M997.834 617.256H947.365L925.93 606.736H1018.82L997.834 617.256Z" fill="#4C4742"/>
<path d="M1065.08 677.562H881.075V733.794H1065.08V677.562Z" fill="white"/>
<path d="M998.537 686.075H948.068L926.629 677.562H1019.53L998.537 686.075Z" fill="#4C4742"/>
<path d="M1065.08 734.983H881.075V791.218H1065.08V734.983Z" fill="white"/>
<path d="M998.537 743.5H948.068L926.629 734.983H1019.53L998.537 743.5Z" fill="#4C4742"/>
<path d="M1065.09 791.933H879.662V535.355H1065.09V791.933ZM881.09 790.505H1063.67V536.783H881.09V790.505Z" fill="#4C4742"/>
<path d="M1064.38 605.546H880.376V607.925H1064.38V605.546Z" fill="#4C4742"/>
<path d="M1065.08 676.373H881.075V678.752H1065.08V676.373Z" fill="#4C4742"/>
<path d="M1064.38 733.794H880.376V736.173H1064.38V733.794Z" fill="#4C4742"/>
<path opacity="0.3" d="M1078.72 802.498H867.435V804.105H1078.72V802.498Z" fill="#4C4742"/>
<path opacity="0.3" d="M1081.53 524.409L226.442 522.663V519.201H1102.02L1081.53 524.409Z" fill="#4C4742"/>
<path d="M823.655 522.743V742.125L867.436 803.828V522.743H823.655Z" fill="#CECAC6"/>
<path opacity="0.3" d="M823.655 522.743H816.773V743.501H823.655V522.743Z" fill="#B7B3B0"/>
<path opacity="0.2" d="M795.34 269.246H726.455H711.227H678.233H640.164H516.478C511.221 269.246 506.961 273.508 506.961 278.764V402.447V440.517V446.903V464.35C506.961 469.608 511.221 473.868 516.478 473.868H795.34C800.598 473.868 804.858 469.608 804.858 464.35V446.903V278.764C804.858 273.508 800.598 269.246 795.34 269.246Z" fill="#B7B3B0"/>
<path d="M508.874 268.411C503.616 268.411 499.356 272.673 499.356 277.929V401.612L632.557 268.411H508.874Z" fill="#353433"/>
<path d="M632.555 268.411L499.356 401.612V439.682L670.627 268.411H632.555Z" fill="#3F3D3B"/>
<path d="M703.62 268.411H670.627L499.356 439.682V446.068H525.96L703.62 268.411Z" fill="#353433"/>
<path d="M797.252 277.929C797.252 272.673 792.992 268.411 787.735 268.411H718.849L541.188 446.07H797.254V277.929H797.252Z" fill="#353433"/>
<path d="M499.356 446.068V463.516C499.356 468.773 503.616 473.033 508.874 473.033H787.736C792.993 473.033 797.253 468.773 797.253 463.516V446.068H499.356Z" fill="white"/>
<path d="M507.558 277.913V393.408L623.052 277.913H507.558Z" fill="#3F3D3B"/>
<path d="M623.054 277.915L507.56 393.409V431.477L661.126 277.915H623.054Z" fill="#3F3D3B"/>
<path d="M694.118 277.913L536.112 435.916H551.34L709.345 277.913H694.118Z" fill="#777777"/>
<path d="M787.259 277.913H709.345L551.34 435.916H787.259V277.913Z" fill="#3F3D3B"/>
<path d="M703.62 268.411L525.959 446.068H541.187L718.848 268.411H703.62Z" fill="#3F3D3B"/>
<path d="M694.117 277.913H661.124L507.558 431.476V435.916H536.112L694.117 277.913Z" fill="#3F3D3B"/>
<path d="M787.257 277.422H507.558V278.741H787.257V277.422Z" fill="#232222"/>
<path d="M787.242 435.547H507.543V436.866H787.242V435.547Z" fill="#232222"/>
<g opacity="0.2">
<g opacity="0.2">
<path opacity="0.2" d="M703.62 268.411L525.959 446.068H541.187L718.848 268.411H703.62Z" fill="#5B5B5B"/>
</g>
<path opacity="0.2" d="M694.118 277.913L536.112 435.916H551.34L709.345 277.913H694.118Z" fill="#777777"/>
</g>
<path d="M508.501 277.913H507.41V435.547H508.501V277.913Z" fill="#232222"/>
<path d="M787.789 277.422H786.698V436.87H787.789V277.422Z" fill="#232222"/>
<g opacity="0.2">
<path opacity="0.7" d="M632.555 268.411L499.356 401.612V439.682L670.627 268.411H632.555Z" fill="#5B5B5B"/>
<path opacity="0.7" d="M623.051 277.916L507.557 393.409V431.48L661.123 277.916H623.051Z" fill="#777777"/>
</g>
<path opacity="0.1" d="M703.471 646.004L696.677 616.828L683.589 618.883C683.589 618.883 684.348 622.093 685.681 627.683L674.78 635.234L650.23 652.24L623.772 633.911L613.561 626.84C614.768 621.773 615.451 618.883 615.451 618.883L602.363 616.828L595.569 646.004L553.403 827.067C553.403 827.067 554.34 831.197 561.284 828.568C563.81 827.613 577.656 773.91 590.714 721.099L650.234 676.731L708.013 719.801C721.166 773.028 735.217 827.605 737.764 828.568C744.706 831.197 745.645 827.067 745.645 827.067L703.471 646.004ZM690.872 649.383C693.436 660.056 696.523 672.853 699.875 686.631L667.259 664.038L688.068 648.525L690.27 646.882C690.47 647.706 690.668 648.532 690.872 649.383ZM676.148 636.605L686.157 629.67C687.135 633.774 688.365 638.923 689.789 644.868L686.709 647.162L665.61 662.892L651.903 653.398L676.148 636.605ZM613.085 628.827L622.403 635.278L648.559 653.399L634.85 662.894L611.898 645.785L609.467 643.971C610.9 637.996 612.122 632.861 613.085 628.827ZM608.167 649.383C608.445 648.224 608.717 647.093 608.983 645.985L610.537 647.145L633.198 664.038L598.876 687.813C602.34 673.586 605.53 660.362 608.167 649.383ZM591.429 718.191C593.74 708.833 596.019 699.538 598.196 690.597L634.81 665.239L648.637 675.545L591.429 718.191ZM636.46 664.095L650.23 654.559L663.996 664.095L650.228 674.361L636.46 664.095ZM651.823 675.545L665.65 665.239L700.557 689.415C702.723 698.305 704.988 707.561 707.291 716.894L651.823 675.545Z" fill="#4C4742"/>
<path d="M684.161 652.081L683.023 650.557L678.462 653.954L679.823 655.315L684.161 652.081Z" fill="#191919"/>
<path d="M678.46 653.955L579.597 727.653L580.735 729.181L679.821 655.316L678.46 653.955Z" fill="#474646"/>
<path d="M680.643 634.567L679.558 633.002L666.53 642.024L667.899 643.397L680.643 634.567Z" fill="#191919"/>
<path d="M666.529 642.026L586.285 697.614L587.37 699.178L667.897 643.398L666.529 642.026Z" fill="#474646"/>
<path d="M600.941 650.556L599.803 652.081L602.289 653.937L603.65 652.576L600.941 650.556Z" fill="#191919"/>
<path d="M603.649 652.575L602.288 653.936L703.227 729.179L704.365 727.65L603.649 652.575Z" fill="#474646"/>
<path d="M604.403 633.002L603.322 634.567L614.153 642.068L615.52 640.7L604.403 633.002Z" fill="#191919"/>
<path d="M615.52 640.699L614.153 642.068L696.592 699.176L697.677 697.612L615.52 640.699Z" fill="#474646"/>
<path d="M599.919 656.174C604.333 637.79 607.201 625.674 607.201 625.674L594.113 623.619L587.319 652.795C591.029 655.472 595.398 656.372 599.919 656.174Z" fill="#D8B193"/>
<path d="M587.32 652.795L545.153 833.858C545.153 833.858 546.09 837.988 553.034 835.359C556.82 833.928 586.038 713.981 599.921 656.174C595.398 656.372 591.029 655.472 587.32 652.795Z" fill="#EBC3A2"/>
<path d="M682.625 656.174C678.21 637.79 675.342 625.674 675.342 625.674L688.43 623.619L695.224 652.795C691.514 655.472 687.145 656.372 682.625 656.174Z" fill="#D8B193"/>
<path d="M695.224 652.795L737.39 833.858C737.39 833.858 736.454 837.988 729.51 835.359C725.724 833.928 696.505 713.981 682.623 656.174C687.146 656.372 691.514 655.472 695.224 652.795Z" fill="#EBC3A2"/>
<path opacity="0.1" d="M761.632 588.568C760.72 585.222 756.608 570.254 752.43 555.053C745.317 528.197 735.775 493.138 730.186 476.582L730.123 476.367C730.123 476.367 722.572 448.579 712.11 441.278C702.165 434.334 691.098 432.99 674.958 432.957C663.392 432.934 651.857 432.954 649.522 432.957C647.182 432.954 635.649 432.934 624.083 432.957C607.944 432.992 596.877 434.334 586.933 441.278C576.471 448.579 568.918 476.367 568.918 476.367L568.855 476.582C563.267 493.136 553.726 528.195 546.611 555.053C542.433 570.254 538.323 585.224 537.412 588.568C536.087 593.439 536.793 595.542 537.482 596.431C537.486 596.439 537.49 596.443 537.493 596.447C537.581 596.559 537.667 596.646 537.748 596.724C537.828 596.802 537.91 596.873 538.007 596.928C538.161 597.025 538.262 597.054 538.262 597.054C538.264 597.046 538.266 597.031 538.268 597.019C538.548 597.105 538.864 597.132 539.271 597.012C539.271 597.012 544.525 594.383 548.654 597.012C552.782 599.637 561.411 622.924 638.719 625.907C646.999 626.227 649.122 625.989 649.523 625.922C649.925 625.989 652.048 626.227 660.328 625.907C737.634 622.926 746.263 599.637 750.39 597.012C754.52 594.383 759.774 597.012 759.774 597.012C760.179 597.13 760.495 597.105 760.773 597.023C760.775 597.031 760.777 597.046 760.781 597.054C760.781 597.054 760.882 597.023 761.034 596.928C761.135 596.873 761.22 596.799 761.306 596.713C761.38 596.643 761.456 596.561 761.536 596.46C761.544 596.448 761.555 596.441 761.563 596.429C762.248 595.539 762.953 593.431 761.632 588.568Z" fill="#4C4742"/>
<path d="M549.936 600.494C562.383 614.833 587.084 627.027 645.354 626.381L645.723 436.456C645.723 436.456 608.948 435.708 594.687 439.46C580.428 443.212 574.799 451.844 565.79 476.612C556.784 501.381 533.149 593.795 533.149 593.795C533.149 593.795 532.38 597.26 532.955 599.228C534.529 596.022 539.664 588.662 549.936 600.494Z" fill="#ECECEC"/>
<path d="M549.936 600.494C539.665 588.66 534.529 596.02 532.955 599.226C533.237 600.189 533.838 600.794 535.018 600.45C535.018 600.45 540.272 597.825 544.401 600.45C548.529 603.079 557.158 626.366 634.465 629.349C643.931 629.712 645.349 629.349 645.349 629.349L645.354 626.381C587.085 627.028 562.383 614.834 549.936 600.494Z" fill="#D8D5D0"/>
<path d="M645.723 436.395V439.458C645.723 439.458 623.392 439.598 613.257 440.16C603.123 440.721 587.931 440.207 578.642 454.09C569.69 467.473 561.193 503.346 561.193 503.346L544.024 563.579C544.024 563.579 534.656 596.819 534.005 600.493C534.005 600.493 531.076 599.654 533.157 592.005C535.14 584.723 552.279 522.395 552.279 522.395L564.663 479.8C564.663 479.8 572.216 452.017 582.678 444.711C592.622 437.771 603.689 436.427 619.83 436.395C632.78 436.37 645.723 436.395 645.723 436.395Z" fill="white"/>
<path d="M740.6 600.492C728.153 614.831 703.452 627.025 645.182 626.379L644.812 436.454C644.812 436.454 681.588 435.706 695.849 439.458C710.108 443.21 715.737 451.842 724.746 476.61C733.751 501.379 757.387 593.793 757.387 593.793C757.387 593.793 758.156 597.258 757.581 599.226C756.007 596.02 750.873 588.66 740.6 600.492Z" fill="#ECECEC"/>
<path d="M740.6 600.492C750.871 588.658 756.007 596.018 757.581 599.224C757.299 600.187 756.698 600.792 755.518 600.448C755.518 600.448 750.264 597.823 746.135 600.448C742.007 603.077 733.378 626.364 656.071 629.347C646.605 629.71 645.187 629.347 645.187 629.347L645.182 626.379C703.453 627.026 728.153 614.832 740.6 600.492Z" fill="#D8D5D0"/>
<path d="M644.812 436.395V439.458C644.812 439.458 667.144 439.598 677.278 440.16C687.413 440.721 702.604 440.207 711.894 454.09C720.846 467.473 729.343 503.346 729.343 503.346L746.512 563.579C746.512 563.579 755.879 596.819 756.528 600.493C756.528 600.493 759.46 599.654 757.379 592.005C755.396 584.723 738.257 522.395 738.257 522.395L725.873 479.8C725.873 479.8 718.32 452.017 707.858 444.711C697.914 437.771 686.847 436.427 670.706 436.395C657.758 436.37 644.812 436.395 644.812 436.395Z" fill="white"/>
<path d="M363.952 446.008H457.246C457.93 446.008 458.596 446.059 459.245 446.141C456.824 449.748 455.28 455.164 455.28 461.224C455.28 467.281 456.822 472.693 459.245 476.304C458.596 476.386 457.93 476.437 457.246 476.437H363.952C357.435 476.437 351.414 472.508 351.414 467.66V454.785C351.412 449.939 357.433 446.008 363.952 446.008Z" fill="white"/>
<path d="M363.586 444.712H456.88C457.999 444.712 459.082 444.83 460.123 445.032C459.587 445.768 459.092 446.568 458.635 447.419C458.062 447.348 457.479 447.303 456.88 447.303H363.586C357.691 447.303 352.519 450.801 352.519 454.787V467.662C352.519 471.648 357.691 475.143 363.586 475.143H456.88C457.506 475.143 458.117 475.099 458.713 475.021C459.179 475.868 459.682 476.664 460.222 477.401C459.153 477.612 458.033 477.736 456.878 477.736H363.586C355.987 477.736 349.57 473.122 349.57 467.664V454.789C349.568 449.324 355.987 444.712 363.586 444.712Z" fill="#EBC3A2"/>
<path opacity="0.6" d="M402.707 457.176H394.595L395.558 468.007L402.707 457.176Z" fill="#CECFD1"/>
<path d="M402.707 457.176H394.595V465.269L402.707 457.176Z" fill="#29434C"/>
<path opacity="0.6" d="M458.468 447.417L448.642 450.12C448.642 450.12 361.715 449.429 358.534 454.117C356.237 457.5 355.599 464.988 357.031 470.561C357.581 472.707 360.447 473.358 361.161 474.97C361.161 474.97 355.789 474.049 353.313 470.973C351.653 468.913 352.407 466.109 352.384 462.028C352.367 458.627 351.743 455.448 352.837 452.808C353.932 450.167 356.876 447.923 362.379 447.335L458.468 447.417Z" fill="#CECFD1"/>
<path d="M997.668 464.105L1015.32 471.824V473.427L997.668 465.337V464.105Z" fill="#D6BDAB"/>
<path opacity="0.7" d="M1107.08 298.675C1105.85 298.675 1104.67 298.86 1103.55 299.191L1031.65 271.701C1028.81 269.878 991.361 245.842 968.015 230.848C963.178 227.742 958.96 225.031 955.766 222.979L957.785 211.294C957.785 211.294 946.892 200.027 926.041 201.746L910.129 246.885C910.129 246.885 851.279 286.68 858.83 287.751C858.988 287.774 859.16 287.805 859.318 287.829C864.112 291.193 886.031 299.669 912.764 308.355C942.232 317.929 966.819 324.27 969.32 323C969.324 323 969.328 322.998 969.332 322.996C969.423 322.949 969.49 322.892 969.518 322.823C973.12 319.271 949.458 259.504 949.458 259.504L952.76 240.385L968.662 250.313L1023.36 284.468L1094.63 310.888C1094.63 310.972 1094.61 311.056 1094.61 311.141C1094.61 316.094 1097.51 320.356 1101.69 322.368L1096.83 333.016L1094.46 338.221L1036.44 465.397L1033.59 471.642L1037.11 473.241L1039.99 466.929L1099.41 336.703L1102.15 330.683L1105.43 323.484C1105.97 323.556 1106.52 323.604 1107.08 323.604C1107.97 323.604 1108.83 323.508 1109.66 323.333L1107.08 328.987L1104.35 334.987L1043.68 468.275L1040.76 474.68L1044.22 476.256L1047.33 469.438L1109.26 333.393L1112.11 327.127L1115.01 320.748C1117.78 318.462 1119.54 315.006 1119.54 311.138C1119.54 304.257 1113.96 298.675 1107.08 298.675ZM1095.3 307.081L1025.21 281.133L968.46 245.699L953.457 236.33L955.06 227.051C958.568 229.305 963.066 232.194 968.116 235.438C991.784 250.637 1027.53 273.582 1029.75 275.009L1099.1 301.563C1097.37 303.006 1096.05 304.909 1095.3 307.081Z" fill="#E8E3D8"/>
<path d="M940.803 216.1L938.692 219.267C939.065 219.516 947.782 225.118 959.419 232.591C959.38 231.065 959.341 229.538 959.315 228C948.808 221.252 941.156 216.334 940.803 216.1Z" fill="#D6BDAB"/>
<path d="M1022.95 268.851C1020.11 267.027 982.659 242.992 959.312 227.998C959.339 229.536 959.377 231.063 959.417 232.589C983.085 247.789 1018.83 270.733 1021.06 272.161L1097.7 301.507L1099.06 297.951L1022.95 268.851Z" fill="#EAD9C5"/>
<path d="M933.201 226.268L931.186 229.496L959.957 247.461C959.881 245.929 959.825 244.387 959.759 242.851L933.201 226.268Z" fill="#D6BDAB"/>
<path d="M1016.51 278.286L959.76 242.853C959.824 244.389 959.88 245.93 959.958 247.463L1014.65 281.617L1093.56 310.87L1094.88 307.299L1016.51 278.286Z" fill="#EAD9C5"/>
<path d="M1093.44 327.833L1097.14 319.728L1093.62 318.135L1088.13 330.169L1085.75 335.373C1087.39 334.935 1089.04 334.415 1090.7 333.854L1093.44 327.833Z" fill="#D6BDAB"/>
<path d="M1085.84 335.179L1027.82 462.356C1028.92 463.096 1030.1 463.612 1031.28 464.08L1090.7 333.854C1089.04 334.414 1087.39 334.934 1085.84 335.179Z" fill="#EAD9C5"/>
<path d="M1024.88 468.793L1028.4 470.391L1033.22 459.84L1029.59 458.476L1024.88 468.793Z" fill="#D6BDAB"/>
<path d="M1103.41 324.282L1107.21 315.916L1103.75 314.338L1098.38 326.14L1095.65 332.139C1097.26 331.584 1098.89 331.043 1100.55 330.548L1103.41 324.282Z" fill="#D6BDAB"/>
<path d="M1095.65 332.139L1034.97 465.427C1036.19 465.844 1037.41 466.227 1038.63 466.59L1100.56 330.546C1098.89 331.043 1097.26 331.583 1095.65 332.139Z" fill="#EAD9C5"/>
<path d="M1032.06 471.836L1035.52 473.412L1040.46 462.56L1036.89 461.22L1032.06 471.836Z" fill="#D6BDAB"/>
<path d="M1023.57 464.104H997.668L1015.32 471.823H1044.19L1023.98 464.257L1023.57 464.104Z" fill="#EAD9C5"/>
<path d="M1044.19 471.822H1015.32V473.425H1044.19V471.822Z" fill="#BCA18F"/>
<path d="M917.339 198.896L901.428 244.036C901.428 244.036 842.578 283.83 850.129 284.902C878.508 288.928 938.792 312.221 960.082 320.111C966.88 322.631 940.756 256.652 940.756 256.652L949.086 208.444C949.084 208.446 938.19 197.177 917.339 198.896Z" fill="#EAD9C5"/>
<path d="M904.094 305.53C934.797 315.505 960.212 321.974 960.86 319.979C961.508 317.985 937.144 308.281 906.441 298.306C875.738 288.331 850.323 281.862 849.675 283.857C849.027 285.852 873.391 295.555 904.094 305.53Z" fill="#D3B8A5"/>
<path opacity="0.6" d="M925.396 198.934L909.681 245.24L912.774 245.716L928.771 199.44L925.396 198.934Z" fill="#EFEAE1"/>
<path opacity="0.6" d="M932.59 200.284L916.875 246.592L918.009 246.895L934.012 200.497L932.59 200.284Z" fill="#EFEAE1"/>
<path d="M1098.38 320.756C1105.26 320.756 1110.84 315.176 1110.84 308.292C1110.84 301.408 1105.26 295.828 1098.38 295.828C1091.49 295.828 1085.91 301.408 1085.91 308.292C1085.91 315.176 1091.49 320.756 1098.38 320.756Z" fill="#EAD9C5"/>
<path d="M1098.37 317.522C1093.28 317.522 1089.14 313.382 1089.14 308.291C1089.14 303.199 1093.28 299.059 1098.37 299.059C1103.46 299.059 1107.61 303.199 1107.61 308.291C1107.61 313.382 1103.46 317.522 1098.37 317.522ZM1098.37 300.964C1094.33 300.964 1091.05 304.251 1091.05 308.292C1091.05 312.334 1094.33 315.621 1098.37 315.621C1102.42 315.621 1105.7 312.334 1105.7 308.292C1105.7 304.251 1102.42 300.964 1098.37 300.964Z" fill="#D6BDAB"/>
<path d="M1015.68 282.239C1016.99 282.239 1018.06 281.175 1018.06 279.862C1018.06 278.549 1016.99 277.484 1015.68 277.484C1014.37 277.484 1013.3 278.549 1013.3 279.862C1013.3 281.175 1014.37 282.239 1015.68 282.239Z" fill="#D6BDAB"/>
<path d="M1021.87 272.602C1023.18 272.602 1024.24 271.537 1024.24 270.224C1024.24 268.911 1023.18 267.847 1021.87 267.847C1020.55 267.847 1019.49 268.911 1019.49 270.224C1019.49 271.537 1020.55 272.602 1021.87 272.602Z" fill="#D6BDAB"/>
<path opacity="0.6" d="M909.922 245.241L866.876 286.541L874.598 288.591L913.015 245.717L909.922 245.241Z" fill="#EFEAE1"/>
<path opacity="0.6" d="M891.615 293.459L897.832 295.382L917.982 246.726L916.846 246.422L891.615 293.459Z" fill="#EFEAE1"/>
</svg>
