<svg width="24" height="24" viewBox="0 0 24 24" fill="none" xmlns="http://www.w3.org/2000/svg">
<path d="M19 14.0073C19.0001 12.8557 18.716 11.7218 18.173 10.7062C17.63 9.69065 16.8448 8.82473 15.887 8.18524C14.9293 7.54575 13.8285 7.15244 12.6823 7.04018C11.5362 6.92792 10.38 7.10018 9.31639 7.54169C8.25275 7.9832 7.31446 8.68032 6.58471 9.57124C5.85497 10.4622 5.35631 11.5194 5.13294 12.6491C4.90957 13.7789 4.9684 14.9463 5.3042 16.0479C5.64 17.1495 6.24241 18.1513 7.05801 18.9643L12 23.8003L16.95 18.9593C17.6024 18.3106 18.1195 17.5389 18.4714 16.6888C18.8233 15.8388 19.003 14.9273 19 14.0073V14.0073ZM12 21.0003L8.46401 17.5423C7.76508 16.8434 7.28899 15.953 7.09587 14.9836C6.90276 14.0143 7.0013 13.0094 7.37904 12.096C7.75677 11.1826 8.39676 10.4016 9.21814 9.85178C10.0395 9.30194 11.0054 9.00789 11.9939 9.00677C12.9823 9.00565 13.9489 9.29752 14.7715 9.8455C15.5941 10.3935 16.2359 11.173 16.6157 12.0855C16.9955 12.9981 17.0963 14.0027 16.9054 14.9725C16.7144 15.9424 16.2404 16.8338 15.543 17.5343L12 21.0003ZM12 11.0003C11.4067 11.0003 10.8266 11.1763 10.3333 11.5059C9.83995 11.8356 9.45544 12.3041 9.22837 12.8523C9.00131 13.4005 8.9419 14.0037 9.05766 14.5856C9.17341 15.1675 9.45913 15.7021 9.87869 16.1216C10.2982 16.5412 10.8328 16.8269 11.4147 16.9427C11.9967 17.0584 12.5999 16.999 13.1481 16.772C13.6962 16.5449 14.1648 16.1604 14.4944 15.667C14.8241 15.1737 15 14.5937 15 14.0003C15 13.2047 14.6839 12.4416 14.1213 11.879C13.5587 11.3164 12.7957 11.0003 12 11.0003V11.0003ZM24 10.0463V24.0003H14.653L16.7 22.0003H22V10.0433C22.0006 9.8915 21.9662 9.74157 21.8997 9.60511C21.8331 9.46866 21.736 9.34932 21.616 9.25633L12.616 2.21233C12.4401 2.07479 12.2233 2.00007 12 2.00007C11.7767 2.00007 11.5599 2.07479 11.384 2.21233L2.38401 9.25433C2.26389 9.34769 2.16681 9.46737 2.10023 9.60416C2.03366 9.74095 1.99937 9.8912 2.00001 10.0433V22.0003H7.30001L9.34501 24.0003H1.03375e-05V10.0433C-0.00118859 9.58773 0.101916 9.13791 0.301424 8.72832C0.500932 8.31873 0.791549 7.96024 1.15101 7.68033L10.151 0.638327C10.679 0.224739 11.3303 0 12.001 0C12.6717 0 13.323 0.224739 13.851 0.638327L22.851 7.68233C23.2101 7.96204 23.5003 8.32025 23.6995 8.72951C23.8986 9.13876 24.0014 9.58819 24 10.0433V10.0463Z" fill="#374957"/>
</svg>
