<svg width="2494" height="576" viewBox="0 0 2494 576" fill="none" xmlns="http://www.w3.org/2000/svg">
<path d="M1151.41 563.699C1104.36 563.699 1065.35 553.679 1035.49 533.929L1032.14 531.719L935.221 411.769L1098.01 470.059C1116.89 467.719 1172.67 451.449 1183.61 445.479C1189.23 441.789 1189.23 439.789 1189.23 439.119C1189.23 437.779 1189.23 437.229 1187.4 435.739L1187.21 435.579C1185.34 434.029 1179.3 430.069 1163.56 426.779L1105.11 414.939C1067.24 407.339 1038.19 393.719 1018.79 374.479C997.921 353.649 987.451 327.289 987.601 296.069C987.441 269.859 995.061 246.639 1010.26 227.059C1024.95 208.259 1045.13 193.739 1070.3 183.849C1094.24 174.359 1121.93 169.539 1152.53 169.539C1198.19 169.539 1235.29 179.519 1262.78 199.199C1291.46 219.599 1309.51 247.609 1316.36 282.409L1326.02 331.469L1209.83 279.789C1185.35 280.289 1135.62 283.749 1123.5 287.279C1120.29 289.519 1120.3 290.729 1120.31 291.409V292.139C1120.29 293.809 1120.42 294.089 1121.5 294.969C1123.68 296.649 1130.48 300.759 1148.37 304.759L1206.79 316.799C1244.45 324.619 1272.22 337.229 1291.75 355.349C1313.06 374.949 1324.01 400.709 1324.21 431.829V432.179C1324.02 458.879 1315.75 482.799 1299.65 503.279C1284.46 522.649 1263.45 537.849 1237.23 548.429C1212.19 558.549 1183.32 563.689 1151.43 563.689L1151.41 563.699Z" fill="white"/>
<path d="M1290.87 287.42L1215.19 253.76C1198.33 253.76 1122.6 257.28 1111.14 264.33C1099.78 271.38 1094.18 280.51 1094.33 291.74C1094.18 301.37 1097.83 309.22 1105.28 315.26C1112.93 321.3 1125.44 326.26 1142.9 330.15L1201.52 342.24C1234.09 349 1258.24 359.72 1274.05 374.39C1290.01 389.06 1298.06 408.27 1298.21 432C1298.06 452.86 1291.76 471.27 1279.2 487.24C1266.79 503.06 1249.58 515.44 1227.48 524.36C1205.42 533.28 1180.06 537.73 1151.39 537.73C1109.32 537.73 1075.46 529.24 1049.8 512.27L1013.54 467.39L1094.28 496.3C1113.48 496.3 1185.87 475.01 1197.52 467.39C1209.33 459.76 1215.18 450.34 1215.18 439.12C1215.18 429.62 1211.38 421.79 1203.77 415.6C1196.32 409.41 1184.66 404.67 1168.86 401.36L1110.24 389.49C1077.28 382.87 1052.86 371.72 1037.06 356.04C1021.2 340.21 1013.4 320.22 1013.55 296.05C1013.4 275.62 1019.15 257.92 1030.76 242.97C1042.57 227.86 1058.93 216.21 1079.78 208.01C1100.84 199.66 1125.1 195.5 1152.51 195.5C1192.82 195.5 1224.54 203.77 1247.65 220.31C1270.91 236.85 1285.32 259.22 1290.87 287.42Z" fill="url(#paint0_linear_3269_1116)"/>
<path d="M343.62 576L336.82 571.09C49.37 363.74 22.93 344.38 21.68 343.39L0 326.25L26.45 296.78C40.5767 281.04 73.8633 243.613 126.31 184.5C159.57 147.01 206.89 93.68 275.79 16.03L290.01 0L308.44 10.92C401.92 66.31 464.68 103.34 506.21 127.84C565.337 162.727 598.973 183.35 607.12 189.71L650 223.15L458.9 270.25L453.97 243.06C452.17 233.16 448.92 224.4 444.31 217.04C439.5 209.26 433.78 202.97 426.74 197.67C419.73 192.39 411.53 188.35 402.35 185.65L402.02 185.55C392.47 182.6 381.87 181.1 370.52 181.1C350.38 181.1 333.22 185.73 318.05 195.25C302.91 204.66 291.33 218.29 282.56 236.96C273.34 256.43 268.68 281.08 268.68 310.29C268.68 339.5 273.33 365.05 282.51 384.6C291.4 403.11 302.95 416.59 317.8 425.81C333.04 435 350.21 439.47 370.28 439.47C381.47 439.47 391.97 438.08 401.49 435.34C410.8 432.56 418.83 428.68 426.05 423.46L426.2 423.35C433.26 418.33 439.03 412.29 443.85 404.88L444.05 404.57C448.87 397.39 452.14 389.18 454.05 379.48L458.2 358.43L593.26 359.13L588.9 388.73C585.35 412.77 577.46 435.7 565.44 456.89C553.73 477.81 538.11 496.63 519.09 512.69C500 528.63 477.59 541.2 452.38 550.12C449.24 551.21 445.89 552.41 442.26 553.71C416.03 563.11 380.1 575.99 352.02 575.99H343.63L343.62 576Z" fill="white"/>
<path d="M591.87 210.74L479.521 238.43C477.121 225.2 472.71 213.48 466.31 203.26C459.91 192.9 451.901 184.12 442.351 176.93C432.801 169.74 421.89 164.34 409.69 160.75C397.58 157.01 384.531 155.14 370.521 155.14C345.611 155.14 323.5 161.17 304.24 173.26C285.03 185.2 269.94 202.75 259.05 225.92C248.15 248.94 242.711 277.06 242.711 310.29C242.711 343.52 248.16 372.58 259.05 395.74C270.09 418.75 285.18 436.16 304.24 447.96C323.5 459.61 345.511 465.44 370.271 465.44C384.021 465.44 396.831 463.72 408.781 460.26C420.891 456.66 431.69 451.41 441.25 444.51C450.95 437.6 459.06 429.11 465.61 419.04C472.36 408.97 476.971 397.46 479.521 384.51L563.201 384.94C560.101 405.94 553.301 425.65 542.841 444.07C532.531 462.48 519.03 478.74 502.32 492.84C485.61 506.79 466.05 517.72 443.69 525.64C421.33 533.41 379.31 550.03 352 550.03C42.6805 326.9 37.7705 323.02 37.7705 323.02C79.4505 276.57 45.1305 315.06 295.201 33.2598C586.951 206.13 574.7 197.36 591.86 210.74H591.87Z" fill="url(#paint1_linear_3269_1116)"/>
<path d="M750.28 561.54C723.36 561.54 699 555.57 677.87 543.8L677.65 543.68C656.21 531.46 639.24 513.61 627.23 490.64C615.59 468.22 609.71 441.4 609.71 410.85V187.74L731.93 256.63L742.67 397.78V398.77C742.67 412.92 746.14 423.4 753.29 430.79C757.71 435.38 765.4 441.43 781.59 441.43C789.51 441.43 797.06 439.58 804.68 435.76C811.7 432.25 817.36 427.04 822 419.86C826.53 412.9 828.8 403.5 828.8 391.86V158.67L961.77 222.04V557.22H831.3V538.47C830.79 538.82 830.28 539.16 829.77 539.5C807.98 554.1 781.2 561.53 750.27 561.53L750.28 561.54Z" fill="white"/>
<path d="M854.78 391.861V199.811L935.82 238.431V531.261H857.29V472.351H853.69C845.94 490.911 833.18 506.091 815.42 517.881C797.81 529.681 776.1 535.571 750.29 535.571C727.73 535.571 707.82 530.751 690.52 521.111C673.36 511.331 659.96 497.151 650.25 478.601C640.55 459.901 635.69 437.321 635.69 410.851V232.181L707.11 272.441L716.72 398.771C716.72 419.771 722.67 436.461 734.63 448.841C746.53 461.211 762.19 467.401 781.6 467.401C793.55 467.401 805.11 464.591 816.32 458.981C827.53 453.361 836.68 445.021 843.83 433.941C851.13 422.721 854.78 408.691 854.78 391.861Z" fill="url(#paint2_linear_3269_1116)"/>
<path fill-rule="evenodd" clip-rule="evenodd" d="M1750.77 563.699C1712.74 563.699 1679 555.339 1650.49 538.849C1621.75 522.259 1599.12 498.679 1583.24 468.769C1567.82 439.309 1560.03 405.059 1560.03 366.829C1560.03 328.599 1567.81 294.319 1583.14 264.859C1599.08 234.649 1621.72 210.979 1650.5 194.369C1678.99 177.889 1712.73 169.529 1750.77 169.529C1788.81 169.529 1822.49 177.889 1851.04 194.369C1879.86 211.039 1902.43 234.739 1918.14 264.819C1933.6 294.219 1941.46 328.559 1941.46 366.829C1941.46 405.099 1933.59 439.409 1918.08 468.739C1902.4 498.599 1879.84 522.209 1851.06 538.849C1822.49 555.339 1788.75 563.699 1750.77 563.699ZM1720.72 440.309C1728.44 446.279 1738.4 449.189 1751.15 449.189C1763.9 449.189 1773.2 446.289 1780.77 440.319C1789.18 433.609 1795.41 424.519 1799.71 412.619L1799.8 412.369C1804.84 398.829 1807.4 383.439 1807.4 366.629C1807.4 349.819 1804.84 334.209 1799.8 320.669L1799.69 320.349C1795.39 308.319 1789.17 299.189 1780.67 292.419C1773.08 286.339 1763.44 283.409 1751.15 283.409C1738.86 283.409 1728.47 286.379 1720.76 292.479C1712.34 299.189 1706 308.389 1701.46 320.539C1696.57 334.129 1694.09 349.639 1694.09 366.629C1694.09 383.619 1696.56 398.889 1701.44 412.469C1705.96 424.439 1712.26 433.549 1720.72 440.329V440.309Z" fill="white"/>
<path fill-rule="evenodd" clip-rule="evenodd" d="M1750.77 537.73C1717.14 537.73 1688.11 530.61 1663.48 516.37C1638.8 502.13 1619.77 482.2 1606.17 456.6C1592.77 431 1585.99 401.07 1585.99 366.83C1585.99 332.59 1592.76 302.6 1606.17 276.84C1619.76 251.09 1638.8 231.1 1663.48 216.86C1688.11 202.61 1717.14 195.5 1750.77 195.5C1784.4 195.5 1813.38 202.62 1838.06 216.86C1862.69 231.1 1881.68 251.09 1895.13 276.84C1908.68 302.6 1915.5 332.58 1915.5 366.83C1915.5 401.08 1908.68 431 1895.13 456.6C1881.68 482.21 1862.69 502.13 1838.06 516.37C1813.38 530.61 1784.35 537.73 1750.77 537.73ZM1796.85 460.7C1784.63 470.34 1769.38 475.15 1751.15 475.15C1732.92 475.15 1717 470.33 1704.64 460.7C1692.37 450.92 1683.23 437.82 1677.08 421.42C1671.16 405.02 1668.13 386.75 1668.13 366.61C1668.13 346.47 1671.16 327.99 1677.08 311.59C1683.24 295.05 1692.38 281.88 1704.64 272.1C1717 262.32 1732.58 257.42 1751.15 257.42C1769.72 257.42 1784.63 262.32 1796.85 272.1C1809.12 281.88 1818.21 295.05 1824.13 311.59C1830.24 327.99 1833.37 346.33 1833.37 366.61C1833.37 386.89 1830.24 405.02 1824.13 421.42C1818.21 437.82 1809.12 450.91 1796.85 460.7Z" fill="url(#paint3_linear_3269_1116)"/>
<path d="M2160.15 508.921V317.631C2160.15 304.591 2155.57 298.721 2152.13 295.451C2148.41 291.871 2142.05 287.271 2128.39 287.271C2121.51 287.271 2115.49 288.881 2110 292.181L2109.79 292.311C2104.3 295.541 2099.97 300.151 2096.54 306.381C2092.93 312.861 2091.22 320.451 2091.22 329.711V572.381L1958.25 509.051V112.131L2087.67 184.581V189.591C2108.3 176.271 2132.83 169.521 2160.59 169.521C2188.35 169.521 2213.77 176.541 2234.03 190.391C2242.55 196.111 2250.06 202.731 2256.55 210.191C2263.91 202.531 2272.45 195.751 2282.12 189.891C2304.29 176.391 2330.62 169.521 2360.31 169.521C2398.7 169.521 2430.81 181.691 2455.75 205.691C2480.91 230.011 2493.64 264.681 2493.64 308.771V572.331L2360.48 509.061V320.851C2360.48 308.411 2357.9 299.941 2352.8 295.681L2352.65 295.551C2345.98 289.891 2338.09 287.261 2327.82 287.261C2311.62 287.261 2304.69 292.661 2300.89 296.731C2294.61 303.441 2291.56 312.541 2291.56 324.521V572.721L2160.15 508.901V508.921Z" fill="white"/>
<path d="M1984.21 492.669V156.439L2061.69 199.809V256.129H2065.72C2072.87 237.129 2084.76 222.319 2101.34 211.679C2117.87 200.889 2137.67 195.499 2160.59 195.499C2183.51 195.499 2203.5 200.959 2219.46 211.899C2235.56 222.689 2246.93 237.439 2253.51 256.139H2257.11C2264.69 237.729 2277.52 223.049 2295.57 212.119C2313.76 201.039 2335.35 195.509 2360.31 195.509C2391.9 195.509 2417.71 205.139 2437.75 224.419C2457.69 243.699 2467.68 271.819 2467.68 308.789V531.269L2386.46 492.679V320.879C2386.46 300.309 2380.82 285.269 2369.46 275.779C2358.09 266.139 2344.26 261.319 2327.83 261.319C2308.27 261.319 2292.97 267.219 2281.94 279.009C2271.05 290.659 2265.6 305.839 2265.6 324.539V531.269L2186.13 492.679V317.639C2186.13 300.519 2180.78 286.859 2170.03 276.639C2159.42 266.419 2145.54 261.319 2128.4 261.319C2116.75 261.319 2106.19 264.189 2096.62 269.949C2087.1 275.559 2079.48 283.539 2073.79 293.899C2068.11 304.109 2065.27 316.059 2065.27 329.719V531.269L1984.23 492.679L1984.21 492.669Z" fill="url(#paint4_linear_3269_1116)"/>
<path d="M1490.39 561.829C1468.83 561.829 1448.82 558.209 1430.89 551.059C1409.8 542.499 1392.87 529.069 1380.42 511.079L1380.29 510.889C1368.11 492.969 1361.92 471.039 1361.87 445.709L1346.78 286.189H1321.06L1264.32 133.859L1333.28 143.909L1324.57 52.3594L1494.84 100.789V167.459L1562.71 177.349V286.189H1494.84V431.559C1494.84 438.649 1495.86 441.669 1496.15 442.389C1496.23 442.489 1496.29 442.569 1496.33 442.619C1498.9 443.539 1502.02 443.999 1505.62 443.999C1509.22 443.999 1512.39 443.759 1514.98 443.309L1515.25 443.259C1520 442.479 1522.1 441.989 1522.78 441.809L1548.77 435.069L1573.46 545.209L1551.23 552.639C1545.99 554.389 1539 556.199 1529.87 558.149C1520.37 560.229 1509.24 561.409 1495.96 561.739C1494.14 561.789 1492.26 561.819 1490.4 561.819L1490.39 561.829Z" fill="white"/>
<path d="M1529.31 466.95C1527.08 467.53 1523.82 468.18 1519.46 468.89C1515.34 469.61 1510.65 469.97 1505.63 469.97C1498.9 469.97 1492.75 468.97 1487.25 466.95C1481.76 464.94 1477.26 461.2 1473.85 455.73C1470.53 450.12 1468.88 442.07 1468.88 431.57V260.23H1536.75V199.81L1468.88 189.92V120.4L1354.03 87.7305L1362.27 174.37L1303.96 165.87L1339.11 260.22H1370.42L1387.85 444.51C1387.71 465.22 1392.4 482.49 1401.77 496.29C1411.34 510.11 1424.22 520.32 1440.51 526.93C1456.75 533.4 1474.99 536.36 1495.31 535.78C1506.82 535.49 1516.53 534.48 1524.44 532.75C1532.49 531.03 1538.7 529.44 1543.01 528L1529.32 466.93L1529.31 466.95Z" fill="url(#paint5_linear_3269_1116)"/>
<defs>
<linearGradient id="paint0_linear_3269_1116" x1="-1553.39" y1="366.61" x2="4894.66" y2="366.61" gradientUnits="userSpaceOnUse">
<stop stop-color="#194F63"/>
<stop offset="1" stop-color="#2E9ECA"/>
</linearGradient>
<linearGradient id="paint1_linear_3269_1116" x1="-1553.39" y1="291.65" x2="4894.66" y2="291.65" gradientUnits="userSpaceOnUse">
<stop stop-color="#194F63"/>
<stop offset="1" stop-color="#2E9ECA"/>
</linearGradient>
<linearGradient id="paint2_linear_3269_1116" x1="-1553.39" y1="367.691" x2="4894.66" y2="367.691" gradientUnits="userSpaceOnUse">
<stop stop-color="#194F63"/>
<stop offset="1" stop-color="#2E9ECA"/>
</linearGradient>
<linearGradient id="paint3_linear_3269_1116" x1="-1553.39" y1="848" x2="4894.66" y2="848" gradientUnits="userSpaceOnUse">
<stop stop-color="#194F63"/>
<stop offset="1" stop-color="#2E9ECA"/>
</linearGradient>
<linearGradient id="paint4_linear_3269_1116" x1="-1553.39" y1="343.849" x2="4894.66" y2="343.849" gradientUnits="userSpaceOnUse">
<stop stop-color="#194F63"/>
<stop offset="1" stop-color="#2E9ECA"/>
</linearGradient>
<linearGradient id="paint5_linear_3269_1116" x1="-9340.64" y1="311.791" x2="13369.8" y2="311.791" gradientUnits="userSpaceOnUse">
<stop stop-color="#194F63"/>
<stop offset="1" stop-color="#2E9ECA"/>
</linearGradient>
</defs>
</svg>
