<svg width="1594" height="576" viewBox="0 0 1594 576" fill="none" xmlns="http://www.w3.org/2000/svg">
<path d="M487.24 569.58L408.33 106.99L612.65 198.34V201.6C631.01 190.3 651.83 184.57 674.59 184.57C679.56 184.57 685.12 184.8 691.12 185.27C697.83 185.62 703.46 186.24 708.33 187.19L729.2 191.22V319.62L695.22 308.17C695.12 308.14 692.53 307.3 684.28 306.34L683.72 306.27C677.68 305.44 671.76 305.01 666.15 305.01C655.63 305.01 646.62 307.06 638.6 311.26C631.06 315.18 625.39 320.34 621.18 327.11C617.08 333.7 615.08 341.37 615.08 350.53V569.57H487.22L487.24 569.58Z" fill="white"/>
<path d="M508.98 543.829L441.83 150.189L586.9 215.049V269.839H590.46C596.68 250.869 607.33 236.239 622.43 225.969C637.67 215.549 655.06 210.339 674.6 210.339C679.04 210.339 684.01 210.559 689.48 210.979C695.1 211.259 699.76 211.759 703.47 212.479V283.759C700.07 282.609 694.66 281.609 687.27 280.759C680.02 279.759 672.98 279.259 666.18 279.259C651.53 279.259 638.35 282.329 626.66 288.469C615.12 294.459 606.01 302.809 599.35 313.509C592.69 324.209 589.36 336.559 589.36 350.539V543.829H508.99H508.98Z" fill="url(#paint0_linear_3269_1092)"/>
<path d="M1303.62 576C1268.75 576 1238 569.66 1212.23 557.15C1185.76 544.31 1164.91 526.52 1150.24 504.27L1150.11 504.08C1135.44 481.38 1128 455.58 1128 427.39C1128 405.57 1132.79 385.71 1142.25 368.39L1142.35 368.2C1151.3 352.13 1163.61 337.15 1178.95 323.69C1186.08 317.51 1193.76 311.34 1201.94 305.23C1193.84 294.09 1186.82 282.63 1180.93 270.95L1180.8 270.69C1171.4 251.51 1166.63 230.56 1166.63 208.41C1166.63 183.02 1172.9 159.85 1185.27 139.57C1197.53 119.28 1214.85 103.07 1236.71 91.4796C1258.35 80.0996 1283.53 74.3496 1311.61 74.3496C1339.69 74.3496 1364.57 79.9696 1385.42 91.0696C1406.61 102.34 1423.29 117.69 1434.99 136.68C1446.81 155.86 1452.81 177.04 1452.81 199.64C1452.81 225.28 1446.04 248.73 1432.68 269.31C1420.2 288.34 1402.99 305.6 1381.45 320.69L1376.35 324.29L1411.96 364.52C1413.58 355.89 1414.4 346.78 1414.4 337.27V311.51H1534.96V337.27C1534.96 367.4 1531.36 394.3 1524.26 417.24C1518.46 435.83 1511.12 452.4 1502.38 466.68L1593.47 569.59H1437.83L1416.46 545.99C1403.44 554 1389.23 560.37 1373.97 565.04C1350.35 572.31 1326.66 576.01 1303.61 576.01L1303.62 576ZM1278.93 455.18C1286.32 458.85 1295.45 460.7 1306.06 460.7C1315.81 460.7 1325.32 459.12 1334.88 455.89L1278.71 393.86C1272.27 399.36 1267.49 404.69 1264.42 409.81C1258.39 419.72 1258.32 423.79 1258.32 423.95C1258.32 430.52 1259.96 436.25 1263.32 441.47C1266.93 447.06 1272.03 451.55 1278.92 455.17L1278.93 455.18ZM1294.76 225.95C1297.02 229.9 1299.63 233.96 1302.56 238.12L1309.04 233.87C1318.05 228.23 1324.7 222.53 1328.8 216.93L1328.99 216.68C1331.83 212.9 1333.15 208.57 1333.15 203.05C1333.15 200.68 1331.46 197.76 1328.12 194.37L1327.96 194.2C1326.7 192.89 1323.34 189.42 1312.73 189.42C1307.8 189.42 1303.77 190.4 1300.41 192.41C1296.81 194.54 1294.29 196.98 1292.36 200.17C1290.66 203.2 1289.86 206.16 1289.86 209.47C1289.86 214.59 1291.46 219.98 1294.76 225.94V225.95Z" fill="white"/>
<path d="M1469.65 468.54C1471.45 466.25 1473.24 463.88 1475.02 461.41C1485.08 447.28 1493.29 430.02 1499.67 409.61C1506.03 389.06 1509.22 364.95 1509.22 337.26H1440.17C1440.17 359.66 1436.32 380.07 1428.62 398.48C1426.37 403.81 1423.9 408.91 1421.21 413.8L1338.01 319.81L1366.68 299.58C1385.62 286.31 1400.43 271.54 1411.08 255.27C1421.73 238.86 1427.06 220.3 1427.06 199.61C1427.06 181.77 1422.4 165.29 1413.07 150.16C1403.75 135.03 1390.5 122.91 1373.33 113.77C1356.16 104.64 1335.59 100.07 1311.61 100.07C1287.63 100.07 1266.69 104.78 1248.78 114.2C1231.02 123.62 1217.18 136.53 1207.26 152.94C1197.35 169.2 1192.39 187.68 1192.39 208.38C1192.39 226.64 1196.24 243.62 1203.93 259.32C1211.78 274.87 1221.77 289.86 1233.91 304.27C1235.67 306.33 1237.43 308.4 1239.21 310.47C1222.94 321.25 1208.52 332.1 1195.94 343.01C1182.77 354.57 1172.4 367.12 1164.86 380.68C1157.46 394.24 1153.76 409.79 1153.76 427.34C1153.76 450.6 1159.75 471.5 1171.74 490.05C1183.87 508.46 1201.12 523.09 1223.47 533.93C1245.82 544.78 1272.53 550.19 1303.61 550.19C1324.19 550.19 1345.13 546.91 1366.44 540.35C1386.81 534.12 1404.71 524.55 1420.15 511.63L1449.26 543.77H1536.28L1469.64 468.49L1469.65 468.54ZM1270.1 187.22C1274.24 180.23 1279.94 174.59 1287.19 170.31C1294.59 165.88 1303.1 163.68 1312.72 163.68C1327.08 163.68 1338.32 167.89 1346.47 176.31C1354.76 184.73 1358.91 193.65 1358.91 203.06C1358.91 214.19 1355.8 223.9 1349.58 232.17C1343.52 240.45 1334.56 248.3 1322.72 255.72L1296.99 272.6L1294.08 269.2C1285.2 258.64 1277.95 248.44 1272.32 238.59C1266.85 228.74 1264.11 219.04 1264.11 209.48C1264.11 201.63 1266.1 194.21 1270.1 187.22ZM1354.24 475.97C1338.4 482.97 1322.35 486.46 1306.06 486.46C1291.26 486.46 1278.3 483.68 1267.21 478.11C1256.26 472.4 1247.75 464.84 1241.68 455.42C1235.61 446 1232.58 435.51 1232.58 423.95C1232.58 416.39 1235.84 407.25 1242.35 396.55C1248.86 385.7 1259.67 375 1274.77 364.44L1282.13 359.24L1376.43 463.37C1369.37 468.28 1361.98 472.47 1354.25 475.95L1354.24 475.97Z" fill="url(#paint1_linear_3269_1092)"/>
<path d="M346.43 569.58L308.76 461.49H174.43L136.82 569.58H0L98.56 0L312.6 85.82L489.48 569.58H346.43ZM268.57 346.19L241.53 268.59L214.54 346.19H268.58H268.57Z" fill="white"/>
<path d="M292.35 105.45L118.51 35.75L30.5898 543.83H118.51L156.12 435.74H327.06L364.73 543.83H452.64L292.35 105.46V105.45ZM178.3 371.94L239.73 195.35H243.28L304.82 371.94H178.3Z" fill="url(#paint2_linear_3269_1092)"/>
<path d="M899.521 574.15C878.131 574.15 858.261 570.56 840.471 563.47L840.291 563.4C819.521 554.95 802.731 541.62 790.401 523.79L790.301 523.64C778.321 506.04 772.181 484.45 772.071 459.45L751.211 300.73H733.191L650.641 127.97L730.671 144.47L718.361 50.8398L903.951 118.22V180.18L971.221 194.05V300.73H903.951V444.93C903.951 451.85 904.921 454.9 905.241 455.71C905.301 455.79 905.351 455.85 905.391 455.9C907.981 456.82 911.071 457.28 914.611 457.28C918.151 457.28 921.311 457.05 924.001 456.58L924.181 456.55C928.951 455.76 931.031 455.27 931.711 455.1L957.481 448.44L981.901 557.69L959.831 565.04C954.601 566.78 947.681 568.56 938.661 570.5C929.231 572.56 918.201 573.73 905.051 574.07C903.251 574.12 901.391 574.15 899.541 574.15H899.521Z" fill="white"/>
<path d="M938.131 480.039C935.911 480.609 932.651 481.259 928.361 481.969C924.221 482.679 919.631 483.039 914.601 483.039C907.941 483.039 901.871 482.039 896.391 480.039C890.911 478.039 886.471 474.329 883.071 468.909C879.811 463.349 878.181 455.359 878.181 444.939V274.979H945.451V215.049L878.181 201.179V136.279L749.411 89.5293L760.911 177.009L696.221 163.679L749.411 274.979H773.791L797.821 457.779C797.671 478.319 802.261 495.449 811.581 509.149C821.061 522.849 833.851 532.979 849.991 539.549C866.131 545.969 884.261 548.899 904.391 548.329C915.791 548.039 925.411 547.039 933.251 545.329C941.241 543.619 947.381 542.049 951.671 540.619L938.131 480.049V480.039Z" fill="url(#paint3_linear_3269_1092)"/>
<defs>
<linearGradient id="paint0_linear_3269_1092" x1="30.5901" y1="347.009" x2="6426.62" y2="347.009" gradientUnits="userSpaceOnUse">
<stop stop-color="#194F63"/>
<stop offset="1" stop-color="#2E9ECA"/>
</linearGradient>
<linearGradient id="paint1_linear_3269_1092" x1="-740.05" y1="325.17" x2="9685.9" y2="325.17" gradientUnits="userSpaceOnUse">
<stop stop-color="#194F63"/>
<stop offset="1" stop-color="#2E9ECA"/>
</linearGradient>
<linearGradient id="paint2_linear_3269_1092" x1="-2023.27" y1="289.79" x2="45879.9" y2="289.79" gradientUnits="userSpaceOnUse">
<stop stop-color="#194F63"/>
<stop offset="1" stop-color="#2E9ECA"/>
</linearGradient>
<linearGradient id="paint3_linear_3269_1092" x1="-2522.08" y1="318.959" x2="21763.6" y2="318.959" gradientUnits="userSpaceOnUse">
<stop stop-color="#194F63"/>
<stop offset="1" stop-color="#2E9ECA"/>
</linearGradient>
</defs>
</svg>
