<svg width="2236" height="576" viewBox="0 0 2236 576" fill="none" xmlns="http://www.w3.org/2000/svg">
<path d="M2064.5 563.439C2018.38 563.439 1980.14 553.619 1950.85 534.249C1919.59 513.399 1900.74 484.079 1894.76 447.039L1886.84 397.959L2000.19 454.699C2027.79 454.199 2083.82 450.589 2097.33 446.659C2100.22 444.579 2101.65 442.789 2101.65 441.279C2101.65 440.039 2101.65 439.469 2099.83 437.979L2099.66 437.839C2097.8 436.309 2091.82 432.389 2076.41 429.179L2019.11 417.569C1981.98 410.109 1953.48 396.769 1934.45 377.899C1913.98 357.359 1903.74 331.529 1903.88 301.009C1903.73 275.249 1911.23 252.469 1926.16 233.309C1940.52 214.899 1960.32 200.669 1985.01 190.969C2008.44 181.669 2035.6 176.939 2065.64 176.939C2110.38 176.939 2146.74 186.729 2173.7 206.019C2201.87 226.019 2219.57 253.509 2226.22 287.659L2235.58 335.689L2121.84 285.039C2097.81 285.529 2049 288.929 2037.14 292.389C2034 294.579 2034.01 295.769 2034.02 296.439V297.139C2034 298.699 2034.11 299.019 2035.26 299.959C2037.38 301.599 2044 305.609 2061.51 309.529L2118.84 321.339C2155.74 329.009 2182.97 341.369 2202.12 359.139C2223.05 378.319 2233.81 403.589 2233.99 434.139V434.469C2233.81 460.569 2225.69 484.019 2209.84 504.189C2195.04 523.139 2174.45 538.049 2148.69 548.459C2124.05 558.389 2095.74 563.429 2064.53 563.429L2064.5 563.439Z" fill="white"/>
<path d="M2201.21 292.54L2127.1 259.54C2110.57 259.54 2036.31 263 2025.03 269.9C2013.89 276.81 2008.41 285.77 2008.54 296.77C2008.4 306.22 2012.02 313.91 2019.31 319.83C2026.79 325.76 2039.05 330.62 2056.14 334.43L2113.68 346.28C2145.58 352.91 2169.27 363.42 2184.78 377.81C2200.48 392.2 2208.37 411.03 2208.51 434.3C2208.37 454.75 2202.1 472.81 2189.8 488.47C2177.68 503.98 2160.78 516.12 2139.14 524.86C2117.45 533.6 2092.61 537.97 2064.51 537.97C2023.27 537.97 1990.07 529.65 1964.9 513C1939.73 496.22 1924.73 472.87 1919.9 442.97L1994.29 480.21C2013.19 480.21 2098.31 476.47 2109.73 469C2121.29 461.52 2127.1 452.28 2127.1 441.28C2127.1 431.97 2123.34 424.29 2115.86 418.22C2108.52 412.16 2097.15 407.5 2081.59 404.26L2024.15 392.62C1991.83 386.13 1967.87 375.2 1952.36 359.83C1936.9 344.31 1929.19 324.71 1929.33 301.01C1929.19 280.98 1934.81 263.63 1946.23 248.96C1957.79 234.14 1973.81 222.72 1994.29 214.68C2014.91 206.5 2038.69 202.41 2065.62 202.41C2105.09 202.41 2136.21 210.52 2158.87 226.74C2181.72 242.96 2195.83 264.89 2201.22 292.54H2201.21Z" fill="url(#paint0_linear_3269_1157)"/>
<path d="M45.54 557.09L0 0L412.94 84.32L279.76 189.57H173.09V256.29H281.74L394.34 373.01H173.09V557.09H45.54Z" fill="white"/>
<path d="M69.0106 531.63L28.1406 31.7305L354.181 98.3105L270.921 164.11H147.631V281.75H270.921L334.401 347.55H147.631V531.63H69.0106Z" fill="url(#paint1_linear_3269_1157)"/>
<path d="M396.52 557.091L362.79 144.961L522.53 187.011V193.341C540.64 182.191 561.22 176.521 583.72 176.521C588.69 176.521 594.04 176.751 600.07 177.211C606.67 177.551 612.22 178.171 617.04 179.101L637.69 183.071V310.061L604.06 298.671C603.96 298.641 601.41 297.821 593.27 296.881L592.72 296.811C586.77 295.991 580.92 295.571 575.36 295.571C565.12 295.571 555.99 297.641 548.22 301.741L548.03 301.841C540.7 305.621 535.11 310.731 530.92 317.441C526.86 323.961 524.88 331.531 524.88 340.581V557.101H396.5L396.52 557.091Z" fill="white"/>
<path d="M419.99 531.63L391.11 178.74L497.08 206.64V260.8H500.56C506.74 242.04 517.23 227.58 532.18 217.43C547.23 207.13 564.41 201.98 583.73 201.98C588.14 201.98 593.02 202.19 598.45 202.62C603.98 202.9 608.57 203.4 612.24 204.1V274.56C608.9 273.43 603.51 272.44 596.22 271.59C589.07 270.6 582.1 270.11 575.37 270.11C560.93 270.11 547.88 273.14 536.36 279.21C524.89 285.14 515.93 293.38 509.33 303.96C502.74 314.54 499.44 326.74 499.44 340.57V531.63H419.98H419.99Z" fill="url(#paint2_linear_3269_1157)"/>
<path fill-rule="evenodd" clip-rule="evenodd" d="M863.04 519.669C859.54 523.679 855.71 527.569 851.56 531.299C840.51 541.229 826.74 549.239 810.62 555.119L810.44 555.179C794.7 560.789 776.38 563.639 756.01 563.639C731.29 563.639 708.5 559.249 688.27 550.579L688.02 550.469C666.63 541.039 649.43 526.909 636.89 508.489C624.17 489.639 617.75 466.769 617.75 440.419C617.75 417.519 622.48 397.869 631.81 382.019C640.98 366.349 653.68 353.619 669.54 344.249C683.2 336.139 698.63 329.879 715.41 325.649L639.89 245.869L661.19 228.549C667.76 223.209 701.68 196.159 724.31 188.459C746.27 180.839 770.78 176.939 797.02 176.939C815.07 176.939 833.3 178.999 851.19 183.069C870.08 187.379 887.61 194.629 903.31 204.599C920.12 215.129 933.82 229.649 943.89 247.669C954.2 265.859 959.42 288.209 959.42 314.109V575.989L863.04 519.659V519.669ZM826.64 411.779C819.29 413.059 811.67 414.249 804.01 415.299C796.84 416.289 790.59 417.139 785.31 417.849C775.36 419.149 766.55 421.229 759.02 424.069C753.78 426.049 749.83 428.559 747.32 431.529L747.14 431.749C746.67 432.289 745.25 433.929 745.25 439.179C745.25 446.209 747.51 448.319 750.03 450.009C756.38 454.289 765.33 456.449 776.62 456.449C787.91 456.449 798.32 454.369 806.29 450.249C813.93 446.199 819.53 441.179 823.41 434.889L823.59 434.609C827.41 428.589 829.27 422.189 829.27 415.049V411.309C828.4 411.469 827.52 411.629 826.64 411.779ZM797.48 286.469C783.56 286.469 772.97 288.999 766 293.979C759.05 299.019 754.53 304.539 752.33 310.769L749.5 318.749C755.77 317.779 762.1 316.969 768.47 316.309C788.11 314.349 804.02 312.599 815.82 311.099C822.27 310.209 826.43 309.209 829.01 308.429C828.48 299.219 825.31 295.299 822.87 293.119C816.71 287.629 805.66 286.469 797.48 286.469Z" fill="white"/>
<path fill-rule="evenodd" clip-rule="evenodd" d="M756.01 538.19C734.65 538.19 715.42 534.53 698.29 527.19C681.34 519.71 667.83 508.71 657.94 494.18C648.14 479.65 643.22 461.73 643.22 440.44C643.22 422.1 646.7 406.94 653.76 394.95C660.77 382.96 670.34 373.37 682.5 366.18C694.62 358.99 708.27 353.55 723.51 349.89C738.93 346.08 754.76 343.33 771.11 341.64C790.89 339.66 806.91 337.9 819.17 336.35C831.52 334.65 840.44 332.11 845.96 328.73C851.67 325.2 854.55 319.77 854.55 312.44V311.17C854.55 295.24 849.63 282.89 839.83 274.14C830.03 265.4 815.91 261.02 797.48 261.02C778.02 261.02 762.6 265.11 751.18 273.29C739.9 281.47 732.28 291.14 728.33 302.28L677.25 248.31C677.25 248.31 713.05 219.19 732.51 212.57C752.01 205.8 773.47 202.41 797.01 202.41C813.26 202.41 829.42 204.24 845.54 207.91C861.61 211.58 876.33 217.64 889.66 226.1C902.94 234.42 913.67 245.78 921.7 260.17C929.87 274.56 933.96 292.54 933.96 314.13V531.64L857.57 486.99H855.02C850.14 496.02 843.32 504.48 834.54 512.38C825.9 520.14 815.04 526.42 801.89 531.22C788.84 535.87 773.56 538.2 756.01 538.2V538.19ZM818.1 472.81C806.4 478.88 792.56 481.91 776.63 481.91C760.7 481.91 746.49 478.32 735.81 471.12C725.13 463.93 719.79 453.28 719.79 439.17C719.79 429.3 722.53 421.25 727.92 415.05C733.31 408.7 740.74 403.77 750.07 400.24C759.45 396.71 770.04 394.17 781.93 392.62C787.18 391.91 793.4 391.07 800.55 390.08C807.7 389.1 814.99 387.97 822.28 386.69C829.57 385.42 836.16 383.94 842.06 382.25C848.05 380.56 852.23 378.72 854.74 376.75V415.05C854.74 427.04 851.54 438.11 845.08 448.27C838.81 458.43 829.85 466.61 818.1 472.81Z" fill="url(#paint3_linear_3269_1157)"/>
<path d="M1186.34 532.3V322.16C1186.34 309.37 1181.85 303.62 1178.47 300.41C1174.83 296.9 1168.59 292.39 1155.19 292.39C1148.42 292.39 1142.54 293.96 1137.21 297.18L1136.91 297.36C1131.53 300.52 1127.31 304.99 1124.02 311.05L1123.9 311.27C1120.44 317.49 1118.75 324.93 1118.75 334.01V564L988.37 532.4V151.98L1115.22 187.3V196.63C1135.38 183.6 1159.52 176.95 1186.82 176.95C1214.12 176.95 1238.96 183.84 1258.83 197.41C1267.17 203.01 1274.52 209.49 1280.87 216.81C1288.09 209.3 1296.46 202.66 1305.93 196.92C1327.74 183.67 1353.53 176.95 1382.56 176.95C1420.26 176.95 1451.75 188.89 1476.16 212.44C1500.83 236.23 1513.34 270.23 1513.34 313.49V563.98L1382.78 532.41V325.33C1382.78 313.15 1380.23 304.83 1375.21 300.62C1368.56 294.98 1360.81 292.39 1350.7 292.39C1334.86 292.39 1328.07 297.69 1324.34 301.67C1318.15 308.29 1315.14 317.2 1315.14 328.92V564.14L1186.34 532.29V532.3Z" fill="white"/>
<path d="M1013.84 512.37V185.5L1089.77 206.64V261.86H1093.76C1100.77 243.23 1112.38 228.71 1128.64 218.27C1144.89 207.69 1164.3 202.4 1186.83 202.4C1209.36 202.4 1228.9 207.75 1244.55 218.48C1260.34 229.06 1271.44 243.52 1277.89 261.86H1281.37C1288.85 243.8 1301.43 229.41 1319.12 218.7C1337 207.84 1358.13 202.41 1382.55 202.41C1413.57 202.41 1438.88 211.86 1458.48 230.76C1478.08 249.66 1487.88 277.24 1487.88 313.49V531.63L1408.24 512.37V325.33C1408.24 305.16 1402.67 290.42 1391.57 281.11C1380.42 271.66 1366.82 266.93 1350.7 266.93C1331.57 266.93 1316.57 272.72 1305.75 284.28C1295.07 295.7 1289.68 310.59 1289.68 328.93V531.63L1211.8 512.37V322.16C1211.8 305.37 1206.55 291.98 1196.01 281.96C1185.61 271.94 1172.05 266.94 1155.19 266.94C1143.77 266.94 1133.36 269.76 1124.03 275.41C1114.65 280.91 1107.17 288.74 1101.65 298.89C1096.08 308.9 1093.29 320.61 1093.29 334.02V531.64L1013.83 512.38L1013.84 512.37Z" fill="url(#paint4_linear_3269_1157)"/>
<path d="M1717.74 563.439C1679.8 563.439 1646.19 555.549 1617.86 539.989L1617.67 539.879C1589.05 523.849 1566.7 500.869 1551.23 471.589C1536.16 442.799 1528.55 408.999 1528.55 371.039C1528.55 333.079 1536.16 300.089 1551.16 271.259C1566.71 241.649 1588.7 218.319 1616.56 201.849C1644.16 185.349 1676.83 176.939 1713.57 176.939C1737.08 176.939 1759.66 180.679 1780.7 188.069C1802.59 195.549 1822.21 207.379 1839.01 223.229C1856.01 239.159 1869.48 259.489 1878.99 283.619C1888.32 306.989 1893.07 334.939 1893.07 366.589V415.529H1811.55L1908.62 468.609L1886.21 492.589C1869.71 510.249 1819.52 541.579 1796.64 550.329L1796.47 550.399C1773.33 559.049 1746.85 563.439 1717.76 563.439H1717.74ZM1685.9 445.449C1694.47 450.109 1704.44 452.529 1716.32 452.819C1726.38 449.139 1758.14 431.179 1783.48 415.539H1722.62L1658.23 378.279V388.179C1658.23 402.809 1660.85 415.169 1666.02 424.899C1670.86 433.909 1677.38 440.669 1685.9 445.459V445.449ZM1759.62 312.179C1759.54 312.039 1759.47 311.899 1759.39 311.769C1755.17 304.199 1749.46 298.439 1741.91 294.119L1741.75 294.029C1734.27 289.669 1725.4 287.549 1714.64 287.549C1703.12 287.549 1693.53 290.029 1685.31 295.139L1685.08 295.279C1678.57 299.229 1673.25 304.049 1668.96 309.889L1759.63 312.189L1759.62 312.179Z" fill="white"/>
<path d="M1717.74 537.98C1683.93 537.98 1654.77 531.21 1630.11 517.67C1605.68 503.98 1586.92 484.66 1573.73 459.7C1560.59 434.59 1553.99 405.04 1553.99 371.05C1553.99 337.06 1560.58 308.28 1573.73 283.03C1587.06 257.64 1605.63 237.9 1629.5 223.79C1653.32 209.54 1681.32 202.42 1713.55 202.42C1734.31 202.42 1753.9 205.66 1772.34 212.15C1790.96 218.5 1807.31 228.37 1821.52 241.77C1835.82 255.17 1847.11 272.24 1855.28 292.97C1863.5 313.57 1867.59 338.11 1867.59 366.6V390.08H1729.44L1633.27 334.43L1791.44 338.45C1791.3 323.78 1788 310.74 1781.6 299.31C1775.15 287.75 1766.14 278.65 1754.57 272.02C1743.19 265.39 1729.87 262.07 1714.63 262.07C1698.42 262.07 1684.12 265.88 1671.86 273.5C1659.55 280.97 1649.99 290.85 1643.07 303.12C1636.34 315.25 1632.95 328.58 1632.76 343.11V388.17C1632.76 407.07 1636.34 423.3 1643.53 436.84C1650.73 450.24 1660.71 460.54 1673.58 467.73C1686.49 474.78 1701.54 478.31 1718.81 478.31C1730.37 478.31 1797.43 436.84 1797.43 436.84L1867.6 475.21C1854.55 489.17 1807.83 518.79 1787.54 526.55C1767.15 534.17 1743.93 537.97 1717.74 537.97V537.98Z" fill="url(#paint5_linear_3269_1157)"/>
<defs>
<linearGradient id="paint0_linear_3269_1157" x1="-4113.85" y1="370.19" x2="2208.5" y2="370.19" gradientUnits="userSpaceOnUse">
<stop stop-color="#194F63"/>
<stop offset="1" stop-color="#2E9ECA"/>
</linearGradient>
<linearGradient id="paint1_linear_3269_1157" x1="-4113.85" y1="281.68" x2="2208.5" y2="281.68" gradientUnits="userSpaceOnUse">
<stop stop-color="#194F63"/>
<stop offset="1" stop-color="#2E9ECA"/>
</linearGradient>
<linearGradient id="paint2_linear_3269_1157" x1="-4113.85" y1="355.19" x2="2208.5" y2="355.19" gradientUnits="userSpaceOnUse">
<stop stop-color="#194F63"/>
<stop offset="1" stop-color="#2E9ECA"/>
</linearGradient>
<linearGradient id="paint3_linear_3269_1157" x1="-4113.85" y1="370.3" x2="2208.5" y2="370.3" gradientUnits="userSpaceOnUse">
<stop stop-color="#194F63"/>
<stop offset="1" stop-color="#2E9ECA"/>
</linearGradient>
<linearGradient id="paint4_linear_3269_1157" x1="-4113.85" y1="358.57" x2="2208.5" y2="358.57" gradientUnits="userSpaceOnUse">
<stop stop-color="#194F63"/>
<stop offset="1" stop-color="#2E9ECA"/>
</linearGradient>
<linearGradient id="paint5_linear_3269_1157" x1="-4113.85" y1="848" x2="2208.5" y2="848" gradientUnits="userSpaceOnUse">
<stop stop-color="#194F63"/>
<stop offset="1" stop-color="#2E9ECA"/>
</linearGradient>
</defs>
</svg>
