<?xml version="1.0" encoding="UTF-8"?>
<svg id="Layer_1" xmlns="http://www.w3.org/2000/svg" version="1.1" xmlns:xlink="http://www.w3.org/1999/xlink" viewBox="0 0 3204 1116">
  <!-- Generator: Adobe Illustrator 29.3.1, SVG Export Plug-In . SVG Version: 2.1.0 Build 151)  -->
  <defs>
    <style>
      .st0 {
        fill: url(#linear-gradient2);
      }

      .st1 {
        fill: #fff;
      }

      .st2 {
        fill: url(#linear-gradient1);
      }

      .st3 {
        fill: url(#linear-gradient3);
      }

      .st4 {
        fill: url(#linear-gradient);
      }
    </style>
    <linearGradient id="linear-gradient" x1="835.85" y1="500.99" x2="7231.88" y2="500.99" gradientTransform="translate(0 1118) scale(1 -1)" gradientUnits="userSpaceOnUse">
      <stop offset="0" stop-color="#194f63"/>
      <stop offset="1" stop-color="#2e9eca"/>
    </linearGradient>
    <linearGradient id="linear-gradient1" x1="65.21" y1="595.17" x2="10491.16" y2="595.17" gradientTransform="matrix(1,0,0,1,0,0)" xlink:href="#linear-gradient"/>
    <linearGradient id="linear-gradient2" x1="-1218.01" y1="559.79" x2="46685.19" y2="559.79" gradientTransform="matrix(1,0,0,1,0,0)" xlink:href="#linear-gradient"/>
    <linearGradient id="linear-gradient3" x1="-1716.82" y1="588.96" x2="22568.87" y2="588.96" gradientTransform="matrix(1,0,0,1,0,0)" xlink:href="#linear-gradient"/>
  </defs>
  <path class="st1" d="M1292.5,839.58l-78.91-462.59,204.32,91.35v3.26c18.36-11.3,39.18-17.03,61.94-17.03,4.97,0,10.53.23,16.53.7,6.71.35,12.34.97,17.21,1.92l20.87,4.03v128.4l-33.98-11.45c-.1-.03-2.69-.87-10.94-1.83l-.56-.07c-6.04-.83-11.96-1.26-17.57-1.26-10.52,0-19.53,2.05-27.55,6.25-7.54,3.92-13.21,9.08-17.42,15.85-4.1,6.59-6.1,14.26-6.1,23.42v219.04h-127.86Z"/>
  <path class="st4" d="M1314.24,813.83l-67.15-393.64,145.07,64.86v54.79h3.56c6.22-18.97,16.87-33.6,31.97-43.87,15.24-10.42,32.63-15.63,52.17-15.63,4.44,0,9.41.22,14.88.64,5.62.28,10.28.78,13.99,1.5v71.28c-3.4-1.15-8.81-2.15-16.2-3-7.25-1-14.29-1.5-21.09-1.5-14.65,0-27.83,3.07-39.52,9.21-11.54,5.99-20.65,14.34-27.31,25.04-6.66,10.7-9.99,23.05-9.99,37.03v193.29h-80.37Z"/>
  <path class="st1" d="M2108.88,846c-34.87,0-65.62-6.34-91.39-18.85-26.47-12.84-47.32-30.63-61.99-52.88l-.13-.19c-14.67-22.7-22.11-48.5-22.11-76.69,0-21.82,4.79-41.68,14.25-59l.1-.19c8.95-16.07,21.26-31.05,36.6-44.51,7.13-6.18,14.81-12.35,22.99-18.46-8.1-11.14-15.12-22.6-21.01-34.28l-.13-.26c-9.4-19.18-14.17-40.13-14.17-62.28,0-25.39,6.27-48.56,18.64-68.84,12.26-20.29,29.58-36.5,51.44-48.09,21.64-11.38,46.82-17.13,74.9-17.13s52.96,5.62,73.81,16.72c21.19,11.27,37.87,26.62,49.57,45.61,11.82,19.18,17.82,40.36,17.82,62.96,0,25.64-6.77,49.09-20.13,69.67-12.48,19.03-29.69,36.29-51.23,51.38l-5.1,3.6,35.61,40.23c1.62-8.63,2.44-17.74,2.44-27.25v-25.76h120.56v25.76c0,30.13-3.6,57.03-10.7,79.97-5.8,18.59-13.14,35.16-21.88,49.44l91.09,102.91h-155.64l-21.37-23.6c-13.02,8.01-27.23,14.38-42.49,19.05-23.62,7.27-47.31,10.97-70.36,10.97ZM2084.19,725.18c7.39,3.67,16.52,5.52,27.13,5.52,9.75,0,19.26-1.58,28.82-4.81l-56.17-62.03c-6.44,5.5-11.22,10.83-14.29,15.95-6.03,9.91-6.1,13.98-6.1,14.14,0,6.57,1.64,12.3,5,17.52,3.61,5.59,8.71,10.08,15.6,13.7ZM2100.02,495.95c2.26,3.95,4.87,8.01,7.8,12.17l6.48-4.25c9.01-5.64,15.66-11.34,19.76-16.94l.19-.25c2.84-3.78,4.16-8.11,4.16-13.63,0-2.37-1.69-5.29-5.03-8.68l-.16-.17c-1.26-1.31-4.62-4.78-15.23-4.78-4.93,0-8.96.98-12.32,2.99-3.6,2.13-6.12,4.57-8.05,7.76-1.7,3.03-2.5,5.99-2.5,9.3,0,5.12,1.6,10.51,4.9,16.47Z"/>
  <path class="st2" d="M2274.91,738.54c1.8-2.29,3.59-4.66,5.37-7.13,10.06-14.13,18.27-31.39,24.65-51.8,6.36-20.55,9.55-44.66,9.55-72.35h-69.05c0,22.4-3.85,42.81-11.55,61.22-2.25,5.33-4.72,10.43-7.41,15.32l-83.2-93.99,28.67-20.23c18.94-13.27,33.75-28.04,44.4-44.31,10.65-16.41,15.98-34.97,15.98-55.66,0-17.84-4.66-34.32-13.99-49.45-9.32-15.13-22.57-27.25-39.74-36.39-17.17-9.13-37.74-13.7-61.72-13.7s-44.92,4.71-62.83,14.13c-17.76,9.42-31.6,22.33-41.52,38.74-9.91,16.26-14.87,34.74-14.87,55.44,0,18.26,3.85,35.24,11.54,50.94,7.85,15.55,17.84,30.54,29.98,44.95,1.76,2.06,3.52,4.13,5.3,6.2-16.27,10.78-30.69,21.63-43.27,32.54-13.17,11.56-23.54,24.11-31.08,37.67-7.4,13.56-11.1,29.11-11.1,46.66,0,23.26,5.99,44.16,17.98,62.71,12.13,18.41,29.38,33.04,51.73,43.88,22.35,10.85,49.06,16.26,80.14,16.26,20.58,0,41.52-3.28,62.83-9.84,20.37-6.23,38.27-15.8,53.71-28.72l29.11,32.14h87.02l-66.64-75.28ZM2075.36,457.22c4.14-6.99,9.84-12.63,17.09-16.91,7.4-4.43,15.91-6.63,25.53-6.63,14.36,0,25.6,4.21,33.75,12.63,8.29,8.42,12.44,17.34,12.44,26.75,0,11.13-3.11,20.84-9.33,29.11-6.06,8.28-15.02,16.13-26.86,23.55l-25.73,16.88-2.91-3.4c-8.88-10.56-16.13-20.76-21.76-30.61-5.47-9.85-8.21-19.55-8.21-29.11,0-7.85,1.99-15.27,5.99-22.26ZM2159.5,745.97c-15.84,7-31.89,10.49-48.18,10.49-14.8,0-27.76-2.78-38.85-8.35-10.95-5.71-19.46-13.27-25.53-22.69-6.07-9.42-9.1-19.91-9.1-31.47,0-7.56,3.26-16.7,9.77-27.4,6.51-10.85,17.32-21.55,32.42-32.11l7.36-5.2,94.3,104.13c-7.06,4.91-14.45,9.1-22.18,12.58Z"/>
  <path class="st1" d="M1151.69,839.58l-37.67-108.09h-134.33l-37.61,108.09h-136.82l98.56-569.58,214.04,85.82,176.88,483.76h-143.05ZM1073.83,616.19l-27.04-77.6-26.99,77.6h54.04Z"/>
  <path class="st0" d="M1097.61,375.45l-173.84-69.7-87.92,508.08h87.92l37.61-108.09h170.94l37.67,108.09h87.91l-160.29-438.37ZM983.56,641.94l61.43-176.59h3.55l61.54,176.59h-126.52Z"/>
  <path class="st1" d="M1704.78,844.15c-21.39,0-41.26-3.59-59.05-10.68l-.18-.07c-20.77-8.45-37.56-21.78-49.89-39.61l-.1-.15c-11.98-17.6-18.12-39.19-18.23-64.19l-20.86-158.72h-18.02l-82.55-172.76,80.03,16.5-12.31-93.63,185.59,67.38v61.96l67.27,13.87v106.68h-67.27v144.2c0,6.92.97,9.97,1.29,10.78.06.08.11.14.15.19,2.59.92,5.68,1.38,9.22,1.38s6.7-.23,9.39-.7l.18-.03c4.77-.79,6.85-1.28,7.53-1.45l25.77-6.66,24.42,109.25-22.07,7.35c-5.23,1.74-12.15,3.52-21.17,5.46-9.43,2.06-20.46,3.23-33.61,3.57-1.8.05-3.66.08-5.51.08Z"/>
  <path class="st3" d="M1743.39,750.04c-2.22.57-5.48,1.22-9.77,1.93-4.14.71-8.73,1.07-13.76,1.07-6.66,0-12.73-1-18.21-3-5.48-2-9.92-5.71-13.32-11.13-3.26-5.56-4.89-13.55-4.89-23.97v-169.96h67.27v-59.93l-67.27-13.87v-64.9l-128.77-46.75,11.5,87.48-64.69-13.33,53.19,111.3h24.38l24.03,182.8c-.15,20.54,4.44,37.67,13.76,51.37,9.48,13.7,22.27,23.83,38.41,30.4,16.14,6.42,34.27,9.35,54.4,8.78,11.4-.29,21.02-1.29,28.86-3,7.99-1.71,14.13-3.28,18.42-4.71l-13.54-60.57Z"/>
</svg>