<?xml version="1.0" encoding="UTF-8"?>
<svg id="Layer_1" xmlns="http://www.w3.org/2000/svg" version="1.1" xmlns:xlink="http://www.w3.org/1999/xlink" viewBox="0 0 3204 1116">
  <!-- Generator: Adobe Illustrator 29.3.1, SVG Export Plug-In . SVG Version: 2.1.0 Build 151)  -->
  <defs>
    <style>
      .st0 {
        fill: url(#linear-gradient2);
      }

      .st1, .st2 {
        fill: #fff;
      }

      .st3 {
        fill: url(#linear-gradient1);
      }

      .st2, .st4 {
        fill-rule: evenodd;
      }

      .st5 {
        fill: url(#linear-gradient4);
      }

      .st6 {
        fill: url(#linear-gradient5);
      }

      .st7 {
        fill: url(#linear-gradient);
      }

      .st4 {
        fill: url(#linear-gradient3);
      }
    </style>
    <linearGradient id="linear-gradient" x1="-3629.63" y1="477.81" x2="2692.72" y2="477.81" gradientTransform="translate(0 1118) scale(1 -1)" gradientUnits="userSpaceOnUse">
      <stop offset="0" stop-color="#194f63"/>
      <stop offset="1" stop-color="#2e9eca"/>
    </linearGradient>
    <linearGradient id="linear-gradient1" x1="-3629.63" y1="566.32" x2="2692.72" y2="566.32" xlink:href="#linear-gradient"/>
    <linearGradient id="linear-gradient2" x1="-3629.63" y1="492.81" x2="2692.72" y2="492.81" xlink:href="#linear-gradient"/>
    <linearGradient id="linear-gradient3" x1="-3629.63" y1="477.7" x2="2692.72" y2="477.7" xlink:href="#linear-gradient"/>
    <linearGradient id="linear-gradient4" x1="-3629.63" y1="489.43" x2="2692.72" y2="489.43" xlink:href="#linear-gradient"/>
    <linearGradient id="linear-gradient5" x1="-3629.63" x2="2692.72" xlink:href="#linear-gradient"/>
  </defs>
  <path class="st1" d="M2548.72,833.44c-46.12,0-84.36-9.82-113.65-29.19-31.26-20.85-50.11-50.17-56.09-87.21l-7.92-49.08,113.35,56.74c27.6-.5,83.63-4.11,97.14-8.04,2.89-2.08,4.32-3.87,4.32-5.38,0-1.24,0-1.81-1.82-3.3l-.17-.14c-1.86-1.53-7.84-5.45-23.25-8.66l-57.3-11.61c-37.13-7.46-65.63-20.8-84.66-39.67-20.47-20.54-30.71-46.37-30.57-76.89-.15-25.76,7.35-48.54,22.28-67.7,14.36-18.41,34.16-32.64,58.85-42.34,23.43-9.3,50.59-14.03,80.63-14.03,44.74,0,81.1,9.79,108.06,29.08,28.17,20,45.87,47.49,52.52,81.64l9.36,48.03-113.74-50.65c-24.03.49-72.84,3.89-84.7,7.35-3.14,2.19-3.13,3.38-3.12,4.05v.7c-.02,1.56.09,1.88,1.24,2.82,2.12,1.64,8.74,5.65,26.25,9.57l57.33,11.81c36.9,7.67,64.13,20.03,83.28,37.8,20.93,19.18,31.69,44.45,31.87,75v.33c-.18,26.1-8.3,49.55-24.15,69.72-14.8,18.95-35.39,33.86-61.15,44.27-24.64,9.93-52.95,14.97-84.16,14.97Z"/>
  <path class="st7" d="M2685.43,562.54l-74.11-33c-16.53,0-90.79,3.46-102.07,10.36-11.14,6.91-16.62,15.87-16.49,26.87-.14,9.45,3.48,17.14,10.77,23.06,7.48,5.93,19.74,10.79,36.83,14.6l57.54,11.85c31.9,6.63,55.59,17.14,71.1,31.53,15.7,14.39,23.59,33.22,23.73,56.49-.14,20.45-6.41,38.51-18.71,54.17-12.12,15.51-29.02,27.65-50.66,36.39-21.69,8.74-46.53,13.11-74.63,13.11-41.24,0-74.44-8.32-99.61-24.97-25.17-16.78-40.17-40.13-45-70.03l74.39,37.24c18.9,0,104.02-3.74,115.44-11.21,11.56-7.48,17.37-16.72,17.37-27.72,0-9.31-3.76-16.99-11.24-23.06-7.34-6.06-18.71-10.72-34.27-13.96l-57.44-11.64c-32.32-6.49-56.28-17.42-71.79-32.79-15.46-15.52-23.17-35.12-23.03-58.82-.14-20.03,5.48-37.38,16.9-52.05,11.56-14.82,27.58-26.24,48.06-34.28,20.62-8.18,44.4-12.27,71.33-12.27,39.47,0,70.59,8.11,93.25,24.33,22.85,16.22,36.96,38.15,42.35,65.8Z"/>
  <polygon class="st1" points="529.76 827.09 484.22 270 897.16 354.32 763.98 459.57 657.31 459.57 657.31 526.29 765.96 526.29 878.56 643.01 657.31 643.01 657.31 827.09 529.76 827.09"/>
  <path class="st3" d="M553.23,801.63l-40.87-499.9,326.04,66.58-83.26,65.8h-123.29v117.64h123.29l63.48,65.8h-186.77v184.08h-78.62Z"/>
  <path class="st1" d="M880.74,827.09l-33.73-412.13,159.74,42.05v6.33c18.11-11.15,38.69-16.82,61.19-16.82,4.97,0,10.32.23,16.35.69,6.6.34,12.15.96,16.97,1.89l20.65,3.97v126.99l-33.63-11.39c-.1-.03-2.65-.85-10.79-1.79l-.55-.07c-5.95-.82-11.8-1.24-17.36-1.24-10.24,0-19.37,2.07-27.14,6.17l-.19.1c-7.33,3.78-12.92,8.89-17.11,15.6-4.06,6.52-6.04,14.09-6.04,23.14v216.52h-128.38Z"/>
  <path class="st0" d="M904.21,801.63l-28.88-352.89,105.97,27.9v54.16h3.48c6.18-18.76,16.67-33.22,31.62-43.37,15.05-10.3,32.23-15.45,51.55-15.45,4.41,0,9.29.21,14.72.64,5.53.28,10.12.78,13.79,1.48v70.46c-3.34-1.13-8.73-2.12-16.02-2.97-7.15-.99-14.12-1.48-20.85-1.48-14.44,0-27.49,3.03-39.01,9.1-11.47,5.93-20.43,14.17-27.03,24.75-6.59,10.58-9.89,22.78-9.89,36.61v191.06h-79.46Z"/>
  <path class="st2" d="M1347.26,789.67c-3.5,4.01-7.33,7.9-11.48,11.63-11.05,9.93-24.82,17.94-40.94,23.82l-.18.06c-15.74,5.61-34.06,8.46-54.43,8.46-24.72,0-47.51-4.39-67.74-13.06l-.25-.11c-21.39-9.43-38.59-23.56-51.13-41.98-12.72-18.85-19.14-41.72-19.14-68.07,0-22.9,4.73-42.55,14.06-58.4,9.17-15.67,21.87-28.4,37.73-37.77,13.66-8.11,29.09-14.37,45.87-18.6l-75.52-79.78,21.3-17.32c6.57-5.34,40.49-32.39,63.12-40.09,21.96-7.62,46.47-11.52,72.71-11.52,18.05,0,36.28,2.06,54.17,6.13,18.89,4.31,36.42,11.56,52.12,21.53,16.81,10.53,30.51,25.05,40.58,43.07,10.31,18.19,15.53,40.54,15.53,66.44v261.88l-96.38-56.33ZM1310.86,681.78c-7.35,1.28-14.97,2.47-22.63,3.52-7.17.99-13.42,1.84-18.7,2.55-9.95,1.3-18.76,3.38-26.29,6.22-5.24,1.98-9.19,4.49-11.7,7.46l-.18.22c-.47.54-1.89,2.18-1.89,7.43,0,7.03,2.26,9.14,4.78,10.83,6.35,4.28,15.3,6.44,26.59,6.44s21.7-2.08,29.67-6.2c7.64-4.05,13.24-9.07,17.12-15.36l.18-.28c3.82-6.02,5.68-12.42,5.68-19.56v-3.74c-.87.16-1.75.32-2.63.47ZM1281.7,556.47c-13.92,0-24.51,2.53-31.48,7.51-6.95,5.04-11.47,10.56-13.67,16.79l-2.83,7.98c6.27-.97,12.6-1.78,18.97-2.44,19.64-1.96,35.55-3.71,47.35-5.21,6.45-.89,10.61-1.89,13.19-2.67-.53-9.21-3.7-13.13-6.14-15.31-6.16-5.49-17.21-6.65-25.39-6.65Z"/>
  <path class="st4" d="M1240.23,808.19c-21.36,0-40.59-3.66-57.72-11-16.95-7.48-30.46-18.48-40.35-33.01-9.8-14.53-14.72-32.45-14.72-53.74,0-18.34,3.48-33.5,10.54-45.49,7.01-11.99,16.58-21.58,28.74-28.77,12.12-7.19,25.77-12.63,41.01-16.29,15.42-3.81,31.25-6.56,47.6-8.25,19.78-1.98,35.8-3.74,48.06-5.29,12.35-1.7,21.27-4.24,26.79-7.62,5.71-3.53,8.59-8.96,8.59-16.29v-1.27c0-15.93-4.92-28.28-14.72-37.03-9.8-8.74-23.92-13.12-42.35-13.12-19.46,0-34.88,4.09-46.3,12.27-11.28,8.18-18.9,17.85-22.85,28.99l-51.08-53.97s35.8-29.12,55.26-35.74c19.5-6.77,40.96-10.16,64.5-10.16,16.25,0,32.41,1.83,48.53,5.5,16.07,3.67,30.79,9.73,44.12,18.19,13.28,8.32,24.01,19.68,32.04,34.07,8.17,14.39,12.26,32.37,12.26,53.96v217.51l-76.39-44.65h-2.55c-4.88,9.03-11.7,17.49-20.48,25.39-8.64,7.76-19.5,14.04-32.65,18.84-13.05,4.65-28.33,6.98-45.88,6.98ZM1302.32,742.81c-11.7,6.07-25.54,9.1-41.47,9.1s-30.14-3.59-40.82-10.79c-10.68-7.19-16.02-17.84-16.02-31.95,0-9.87,2.74-17.92,8.13-24.12,5.39-6.35,12.82-11.28,22.15-14.81,9.38-3.53,19.97-6.07,31.86-7.62,5.25-.71,11.47-1.55,18.62-2.54,7.15-.98,14.44-2.11,21.73-3.39,7.29-1.27,13.88-2.75,19.78-4.44,5.99-1.69,10.17-3.53,12.68-5.5v38.3c0,11.99-3.2,23.06-9.66,33.22-6.27,10.16-15.23,18.34-26.98,24.54Z"/>
  <path class="st1" d="M1670.56,802.3v-210.14c0-12.79-4.49-18.54-7.87-21.75-3.64-3.51-9.88-8.02-23.28-8.02-6.77,0-12.65,1.57-17.98,4.79l-.3.18c-5.38,3.16-9.6,7.63-12.89,13.69l-.12.22c-3.46,6.22-5.15,13.66-5.15,22.74v229.99l-130.38-31.6v-380.42l126.85,35.32v9.33c20.16-13.03,44.3-19.68,71.6-19.68s52.14,6.89,72.01,20.46c8.34,5.6,15.69,12.08,22.04,19.4,7.22-7.51,15.59-14.15,25.06-19.89,21.81-13.25,47.6-19.97,76.63-19.97,37.7,0,69.19,11.94,93.6,35.49,24.67,23.79,37.18,57.79,37.18,101.05v250.49l-130.56-31.57v-207.08c0-12.18-2.55-20.5-7.57-24.71-6.65-5.64-14.4-8.23-24.51-8.23-15.84,0-22.63,5.3-26.36,9.28-6.19,6.62-9.2,15.53-9.2,27.25v235.22l-128.8-31.85Z"/>
  <path class="st5" d="M1498.06,782.37v-326.87l75.93,21.14v55.22h3.99c7.01-18.63,18.62-33.15,34.88-43.59,16.25-10.58,35.66-15.87,58.19-15.87s42.07,5.35,57.72,16.08c15.79,10.58,26.89,25.04,33.34,43.38h3.48c7.48-18.06,20.06-32.45,37.75-43.16,17.88-10.86,39.01-16.29,63.43-16.29,31.02,0,56.33,9.45,75.93,28.35,19.6,18.9,29.4,46.48,29.4,82.73v218.14l-79.64-19.26v-187.04c0-20.17-5.57-34.91-16.67-44.22-11.15-9.45-24.75-14.18-40.87-14.18-19.13,0-34.13,5.79-44.95,17.35-10.68,11.42-16.07,26.31-16.07,44.65v202.7l-77.88-19.26v-190.21c0-16.79-5.25-30.18-15.79-40.2-10.4-10.02-23.96-15.02-40.82-15.02-11.42,0-21.83,2.82-31.16,8.47-9.38,5.5-16.86,13.33-22.38,23.48-5.57,10.01-8.36,21.72-8.36,35.13v197.62l-79.46-19.26Z"/>
  <path class="st1" d="M2201.96,833.44c-37.94,0-71.55-7.89-99.88-23.45l-.19-.11c-28.62-16.03-50.97-39.01-66.44-68.29-15.07-28.79-22.68-62.59-22.68-100.55s7.61-70.95,22.61-99.78c15.55-29.61,37.54-52.94,65.4-69.41,27.6-16.5,60.27-24.91,97.01-24.91,23.51,0,46.09,3.74,67.13,11.13,21.89,7.48,41.51,19.31,58.31,35.16,17,15.93,30.47,36.26,39.98,60.39,9.33,23.37,14.08,51.32,14.08,82.97v48.94h-81.52l97.07,53.08-22.41,23.98c-16.5,17.66-66.69,48.99-89.57,57.74l-.17.07c-23.14,8.65-49.62,13.04-78.71,13.04ZM2170.12,715.45c8.57,4.66,18.54,7.08,30.42,7.37,10.06-3.68,41.82-21.64,67.16-37.28h-60.86l-64.39-37.26v9.9c0,14.63,2.62,26.99,7.79,36.72,4.84,9.01,11.36,15.77,19.88,20.56ZM2243.84,582.18c-.08-.14-.15-.28-.23-.41-4.22-7.57-9.93-13.33-17.48-17.65l-.16-.09c-7.48-4.36-16.35-6.48-27.11-6.48-11.52,0-21.11,2.48-29.33,7.59l-.23.14c-6.51,3.95-11.83,8.77-16.12,14.61l90.67,2.3Z"/>
  <path class="st6" d="M2201.96,807.98c-33.81,0-62.97-6.77-87.63-20.31-24.43-13.69-43.19-33.01-56.38-57.97-13.14-25.11-19.74-54.66-19.74-88.65s6.59-62.77,19.74-88.02c13.33-25.39,31.9-45.13,55.77-59.24,23.82-14.25,51.82-21.37,84.05-21.37,20.76,0,40.35,3.24,58.79,9.73,18.62,6.35,34.97,16.22,49.18,29.62,14.3,13.4,25.59,30.47,33.76,51.2,8.22,20.6,12.31,45.14,12.31,73.63v23.48h-138.15l-96.17-55.65,158.17,4.02c-.14-14.67-3.44-27.71-9.84-39.14-6.45-11.56-15.46-20.66-27.03-27.29-11.38-6.63-24.7-9.95-39.94-9.95-16.21,0-30.51,3.81-42.77,11.43-12.31,7.47-21.87,17.35-28.79,29.62-6.73,12.13-10.12,25.46-10.31,39.99v45.06c0,18.9,3.58,35.13,10.77,48.67,7.2,13.4,17.18,23.7,30.05,30.89,12.91,7.05,27.96,10.58,45.23,10.58,11.56,0,78.62-41.47,78.62-41.47l70.17,38.37c-13.05,13.96-59.77,43.58-80.06,51.34-20.39,7.62-43.61,11.42-69.8,11.42Z"/>
</svg>