<?xml version="1.0" encoding="UTF-8"?>
<svg id="Layer_1" xmlns="http://www.w3.org/2000/svg" version="1.1" xmlns:xlink="http://www.w3.org/1999/xlink" viewBox="0 0 3204 1116">
  <!-- Generator: Adobe Illustrator 29.3.1, SVG Export Plug-In . SVG Version: 2.1.0 Build 151)  -->
  <defs>
    <style>
      .st0 {
        fill: url(#linear-gradient2);
      }

      .st1, .st2 {
        fill: #fff;
      }

      .st3 {
        fill: url(#linear-gradient1);
      }

      .st2, .st4 {
        fill-rule: evenodd;
      }

      .st5 {
        fill: url(#linear-gradient4);
      }

      .st6 {
        fill: url(#linear-gradient5);
      }

      .st7 {
        fill: url(#linear-gradient);
      }

      .st4 {
        fill: url(#linear-gradient3);
      }
    </style>
    <linearGradient id="linear-gradient" x1="-1198.21" y1="481.39" x2="5249.84" y2="481.39" gradientTransform="translate(0 1118) scale(1 -1)" gradientUnits="userSpaceOnUse">
      <stop offset="0" stop-color="#194f63"/>
      <stop offset="1" stop-color="#2e9eca"/>
    </linearGradient>
    <linearGradient id="linear-gradient1" x1="-1198.21" y1="556.35" x2="5249.84" y2="556.35" xlink:href="#linear-gradient"/>
    <linearGradient id="linear-gradient2" x1="-1198.21" y1="480.31" x2="5249.84" y2="480.31" xlink:href="#linear-gradient"/>
    <linearGradient id="linear-gradient3" x1="-1198.21" x2="5249.84" xlink:href="#linear-gradient"/>
    <linearGradient id="linear-gradient4" x1="-1198.21" y1="504.15" x2="5249.84" y2="504.15" xlink:href="#linear-gradient"/>
    <linearGradient id="linear-gradient5" x1="-8985.46" y1="581.79" x2="13724.95" y2="581.79" gradientTransform="matrix(1,0,0,1,0,0)" xlink:href="#linear-gradient"/>
  </defs>
  <path class="st1" d="M1506.59,833.7c-47.05,0-86.06-10.02-115.92-29.77l-3.35-2.21-96.92-119.95,162.79,58.29c18.88-2.34,74.66-18.61,85.6-24.58,5.62-3.69,5.62-5.69,5.62-6.36,0-1.34,0-1.89-1.83-3.38l-.19-.16c-1.87-1.55-7.91-5.51-23.65-8.8l-58.45-11.84c-37.87-7.6-66.92-21.22-86.32-40.46-20.87-20.83-31.34-47.19-31.19-78.41-.16-26.21,7.46-49.43,22.66-69.01,14.69-18.8,34.87-33.32,60.04-43.21,23.94-9.49,51.63-14.31,82.23-14.31,45.66,0,82.76,9.98,110.25,29.66,28.68,20.4,46.73,48.41,53.58,83.21l9.66,49.06-116.19-51.68c-24.48.5-74.21,3.96-86.33,7.49-3.21,2.24-3.2,3.45-3.19,4.13v.73c-.02,1.67.11,1.95,1.19,2.83,2.18,1.68,8.98,5.79,26.87,9.79l58.42,12.04c37.66,7.82,65.43,20.43,84.96,38.55,21.31,19.6,32.26,45.36,32.46,76.48v.35c-.19,26.7-8.46,50.62-24.56,71.1-15.19,19.37-36.2,34.57-62.42,45.15-25.04,10.12-53.91,15.26-85.8,15.26Z"/>
  <path class="st7" d="M1646.05,557.42l-75.68-33.66c-16.86,0-92.59,3.52-104.05,10.57-11.36,7.05-16.96,16.18-16.81,27.41-.15,9.63,3.5,17.48,10.95,23.52,7.65,6.04,20.16,11,37.62,14.89l58.62,12.09c32.57,6.76,56.72,17.48,72.53,32.15,15.96,14.67,24.01,33.88,24.16,57.61-.15,20.86-6.45,39.27-19.01,55.24-12.41,15.82-29.62,28.2-51.72,37.12-22.06,8.92-47.42,13.37-76.09,13.37-42.07,0-75.93-8.49-101.59-25.46l-36.26-44.88,80.74,28.91c19.2,0,91.59-21.29,103.24-28.91,11.81-7.63,17.66-17.05,17.66-28.27,0-9.5-3.8-17.33-11.41-23.52-7.45-6.19-19.11-10.93-34.91-14.24l-58.62-11.87c-32.96-6.62-57.38-17.77-73.18-33.45-15.86-15.83-23.66-35.82-23.51-59.99-.15-20.43,5.6-38.13,17.21-53.08,11.81-15.11,28.17-26.76,49.02-34.96,21.06-8.35,45.32-12.51,72.73-12.51,40.31,0,72.03,8.27,95.14,24.81,23.26,16.54,37.67,38.91,43.22,67.11Z"/>
  <path class="st1" d="M698.8,846l-6.8-4.91c-287.45-207.35-313.89-226.71-315.14-227.7l-21.68-17.14,26.45-29.47q21.19-23.61,99.86-112.28c33.26-37.49,80.58-90.82,149.48-168.47l14.22-16.03,18.43,10.92c93.48,55.39,156.24,92.42,197.77,116.92q88.69,52.33,100.91,61.87l42.88,33.44-191.1,47.1-4.93-27.19c-1.8-9.9-5.05-18.66-9.66-26.02-4.81-7.78-10.53-14.07-17.57-19.37-7.01-5.28-15.21-9.32-24.39-12.02l-.33-.1c-9.55-2.95-20.15-4.45-31.5-4.45-20.14,0-37.3,4.63-52.47,14.15-15.14,9.41-26.72,23.04-35.49,41.71-9.22,19.47-13.88,44.12-13.88,73.33s4.65,54.76,13.83,74.31c8.89,18.51,20.44,31.99,35.29,41.21,15.24,9.19,32.41,13.66,52.48,13.66,11.19,0,21.69-1.39,31.21-4.13,9.31-2.78,17.34-6.66,24.56-11.88l.15-.11c7.06-5.02,12.83-11.06,17.65-18.47l.2-.31c4.82-7.18,8.09-15.39,10-25.09l4.15-21.05,135.06.7-4.36,29.6c-3.55,24.04-11.44,46.97-23.46,68.16-11.71,20.92-27.33,39.74-46.35,55.8-19.09,15.94-41.5,28.51-66.71,37.43-3.14,1.09-6.49,2.29-10.12,3.59-26.23,9.4-62.16,22.28-90.24,22.28h-8.39Z"/>
  <path class="st3" d="M947.05,480.74l-112.35,27.69c-2.4-13.23-6.81-24.95-13.21-35.17-6.4-10.36-14.41-19.14-23.96-26.33-9.55-7.19-20.46-12.59-32.66-16.18-12.11-3.74-25.16-5.61-39.17-5.61-24.91,0-47.02,6.03-66.28,18.12-19.21,11.94-34.3,29.49-45.19,52.66-10.9,23.02-16.34,51.14-16.34,84.37s5.45,62.29,16.34,85.45c11.04,23.01,26.13,40.42,45.19,52.22,19.26,11.65,41.27,17.48,66.03,17.48,13.75,0,26.56-1.72,38.51-5.18,12.11-3.6,22.91-8.85,32.47-15.75,9.7-6.91,17.81-15.4,24.36-25.47,6.75-10.07,11.36-21.58,13.91-34.53l83.68.43c-3.1,21-9.9,40.71-20.36,59.13-10.31,18.41-23.81,34.67-40.52,48.77-16.71,13.95-36.27,24.88-58.63,32.8-22.36,7.77-64.38,24.39-91.69,24.39-309.32-223.13-314.23-227.01-314.23-227.01,41.68-46.45,7.36-7.96,257.43-289.76,291.75,172.87,279.5,164.1,296.66,177.48Z"/>
  <path class="st1" d="M1105.46,831.54c-26.92,0-51.28-5.97-72.41-17.74l-.22-.12c-21.44-12.22-38.41-30.07-50.42-53.04-11.64-22.42-17.52-49.24-17.52-79.79v-223.11l122.22,68.89,10.74,141.15v.99c0,14.15,3.47,24.63,10.62,32.02,4.42,4.59,12.11,10.64,28.3,10.64,7.92,0,15.47-1.85,23.09-5.67,7.02-3.51,12.68-8.72,17.32-15.9,4.53-6.96,6.8-16.36,6.8-28v-233.19l132.97,63.37v335.18h-130.47v-18.75c-.51.35-1.02.69-1.53,1.03-21.79,14.6-48.57,22.03-79.5,22.03Z"/>
  <path class="st0" d="M1209.96,661.86v-192.05l81.04,38.62v292.83h-78.53v-58.91h-3.6c-7.75,18.56-20.51,33.74-38.27,45.53-17.61,11.8-39.32,17.69-65.13,17.69-22.56,0-42.47-4.82-59.77-14.46-17.16-9.78-30.56-23.96-40.27-42.51-9.7-18.7-14.56-41.28-14.56-67.75v-178.67l71.42,40.26,9.61,126.33c0,21,5.95,37.69,17.91,50.07,11.9,12.37,27.56,18.56,46.97,18.56,11.95,0,23.51-2.81,34.72-8.42,11.21-5.62,20.36-13.96,27.51-25.04,7.3-11.22,10.95-25.25,10.95-42.08Z"/>
  <path class="st2" d="M2105.95,833.7c-38.03,0-71.77-8.36-100.28-24.85-28.74-16.59-51.37-40.17-67.25-70.08-15.42-29.46-23.21-63.71-23.21-101.94s7.78-72.51,23.11-101.97c15.94-30.21,38.58-53.88,67.36-70.49,28.49-16.48,62.23-24.84,100.27-24.84s71.72,8.36,100.27,24.84c28.82,16.67,51.39,40.37,67.1,70.45,15.46,29.4,23.32,63.74,23.32,102.01s-7.87,72.58-23.38,101.91c-15.68,29.86-38.24,53.47-67.02,70.11-28.57,16.49-62.31,24.85-100.29,24.85ZM2075.9,710.31c7.72,5.97,17.68,8.88,30.43,8.88s22.05-2.9,29.62-8.87c8.41-6.71,14.64-15.8,18.94-27.7l.09-.25c5.04-13.54,7.6-28.93,7.6-45.74s-2.56-32.42-7.6-45.96l-.11-.32c-4.3-12.03-10.52-21.16-19.02-27.93-7.59-6.08-17.23-9.01-29.52-9.01s-22.68,2.97-30.39,9.07c-8.42,6.71-14.76,15.91-19.3,28.06-4.89,13.59-7.37,29.1-7.37,46.09s2.47,32.26,7.35,45.84c4.52,11.97,10.82,21.08,19.28,27.86Z"/>
  <path class="st4" d="M2105.95,807.73c-33.63,0-62.66-7.12-87.29-21.36-24.68-14.24-43.71-34.17-57.31-59.77-13.4-25.6-20.18-55.53-20.18-89.77s6.77-64.23,20.18-89.99c13.59-25.75,32.63-45.74,57.31-59.98,24.63-14.25,53.66-21.36,87.29-21.36s62.61,7.12,87.29,21.36c24.63,14.24,43.62,34.23,57.07,59.98,13.55,25.76,20.37,55.74,20.37,89.99s-6.82,64.17-20.37,89.77c-13.45,25.61-32.44,45.53-57.07,59.77-24.68,14.24-53.71,21.36-87.29,21.36ZM2152.03,730.7c-12.22,9.64-27.47,14.45-45.7,14.45s-34.15-4.82-46.51-14.45c-12.27-9.78-21.41-22.88-27.56-39.28-5.92-16.4-8.95-34.67-8.95-54.81s3.03-38.62,8.95-55.02c6.16-16.54,15.3-29.71,27.56-39.49,12.36-9.78,27.94-14.68,46.51-14.68s33.48,4.9,45.7,14.68c12.27,9.78,21.36,22.95,27.28,39.49,6.11,16.4,9.24,34.74,9.24,55.02s-3.13,38.41-9.24,54.81c-5.92,16.4-15.01,29.49-27.28,39.28Z"/>
  <path class="st1" d="M2515.33,778.92v-191.29c0-13.04-4.58-18.91-8.02-22.18-3.72-3.58-10.08-8.18-23.74-8.18-6.88,0-12.9,1.61-18.39,4.91l-.21.13c-5.49,3.23-9.82,7.84-13.25,14.07-3.61,6.48-5.32,14.07-5.32,23.33v242.67l-132.97-63.33v-396.92l129.42,72.45v5.01c20.63-13.32,45.16-20.07,72.92-20.07s53.18,7.02,73.44,20.87c8.52,5.72,16.03,12.34,22.52,19.8,7.36-7.66,15.9-14.44,25.57-20.3,22.17-13.5,48.5-20.37,78.19-20.37,38.39,0,70.5,12.17,95.44,36.17,25.16,24.32,37.89,58.99,37.89,103.08v263.56l-133.16-63.27v-188.21c0-12.44-2.58-20.91-7.68-25.17l-.15-.13c-6.67-5.66-14.56-8.29-24.83-8.29-16.2,0-23.13,5.4-26.93,9.47-6.28,6.71-9.33,15.81-9.33,27.79v248.2l-131.41-63.82Z"/>
  <path class="st5" d="M2339.39,762.67v-336.23l77.48,43.37v56.32h4.03c7.15-19,19.04-33.81,35.62-44.45,16.53-10.79,36.33-16.18,59.25-16.18s42.91,5.46,58.87,16.4c16.1,10.79,27.47,25.54,34.05,44.24h3.6c7.58-18.41,20.41-33.09,38.46-44.02,18.19-11.08,39.78-16.61,64.74-16.61,31.59,0,57.4,9.63,77.44,28.91,19.94,19.28,29.93,47.4,29.93,84.37v222.48l-81.22-38.59v-171.8c0-20.57-5.64-35.61-17-45.1-11.37-9.64-25.2-14.46-41.63-14.46-19.56,0-34.86,5.9-45.89,17.69-10.89,11.65-16.34,26.83-16.34,45.53v206.73l-79.47-38.59v-175.04c0-17.12-5.35-30.78-16.1-41-10.61-10.22-24.49-15.32-41.63-15.32-11.65,0-22.21,2.87-31.78,8.63-9.52,5.61-17.14,13.59-22.83,23.95-5.68,10.21-8.52,22.16-8.52,35.82v201.55l-81.04-38.59Z"/>
  <path class="st1" d="M1845.57,831.83c-21.56,0-41.57-3.62-59.5-10.77-21.09-8.56-38.02-21.99-50.47-39.98l-.13-.19c-12.18-17.92-18.37-39.85-18.42-65.18l-15.09-159.52h-25.72l-56.74-152.33,68.96,10.05-8.71-91.55,170.27,48.43v66.67l67.87,9.89v108.84h-67.87v145.37c0,7.09,1.02,10.11,1.31,10.83.08.1.14.18.18.23,2.57.92,5.69,1.38,9.29,1.38s6.77-.24,9.36-.69l.27-.05c4.75-.78,6.85-1.27,7.53-1.45l25.99-6.74,24.69,110.14-22.23,7.43c-5.24,1.75-12.23,3.56-21.36,5.51-9.5,2.08-20.63,3.26-33.91,3.59-1.82.05-3.7.08-5.56.08Z"/>
  <path class="st6" d="M1884.49,736.95c-2.23.58-5.49,1.23-9.85,1.94-4.12.72-8.81,1.08-13.83,1.08-6.73,0-12.88-1-18.38-3.02-5.49-2.01-9.99-5.75-13.4-11.22-3.32-5.61-4.97-13.66-4.97-24.16v-171.34h67.87v-60.42l-67.87-9.89v-69.52l-114.85-32.67,8.24,86.64-58.31-8.5,35.15,94.35h31.31l17.43,184.29c-.14,20.71,4.55,37.98,13.92,51.78,9.57,13.82,22.45,24.03,38.74,30.64,16.24,6.47,34.48,9.43,54.8,8.85,11.51-.29,21.22-1.3,29.13-3.03,8.05-1.72,14.26-3.31,18.57-4.75l-13.69-61.07Z"/>
</svg>