<svg width="7702" height="1106" viewBox="0 0 7702 1106" fill="none" xmlns="http://www.w3.org/2000/svg">
<path d="M646.233 733.968V362.044L296.568 305.221V55.793L877 161.6V733.968H646.233Z" fill="white"/>
<path d="M314.054 290.078V77.0137L859.527 176.443V716.208H663.719V346.89L314.054 290.078Z" fill="#194F63"/>
<path d="M0 0L230.779 50.2247V813.856H832.192V1061.51L0 1106V0Z" fill="white"/>
<path d="M213.294 64.5788L17.4854 21.9609V1087.28L814.708 1044.67V831.602H213.294V64.5788Z" fill="#0691B2"/>
<path d="M1707.24 834.58L1628.33 371.99L1832.65 463.34V466.6C1851.01 455.3 1871.83 449.57 1894.59 449.57C1899.56 449.57 1905.12 449.8 1911.12 450.27C1917.83 450.62 1923.46 451.24 1928.33 452.19L1949.2 456.22V584.62L1915.22 573.17C1915.12 573.14 1912.53 572.3 1904.28 571.34L1903.72 571.27C1897.68 570.44 1891.76 570.01 1886.15 570.01C1875.63 570.01 1866.62 572.06 1858.6 576.26C1851.06 580.18 1845.39 585.34 1841.18 592.11C1837.08 598.7 1835.08 606.37 1835.08 615.53V834.57H1707.22L1707.24 834.58Z" fill="white"/>
<path d="M1728.98 808.829L1661.83 415.189L1806.9 480.049V534.839H1810.46C1816.68 515.869 1827.33 501.239 1842.43 490.969C1857.67 480.549 1875.06 475.339 1894.6 475.339C1899.04 475.339 1904.01 475.559 1909.48 475.979C1915.1 476.259 1919.76 476.759 1923.47 477.479V548.759C1920.07 547.609 1914.66 546.609 1907.27 545.759C1900.02 544.759 1892.98 544.259 1886.18 544.259C1871.53 544.259 1858.35 547.329 1846.66 553.469C1835.12 559.459 1826.01 567.809 1819.35 578.509C1812.69 589.209 1809.36 601.559 1809.36 615.539V808.829H1728.99H1728.98Z" fill="url(#paint0_linear_3269_1172)"/>
<path d="M2523.62 841C2488.75 841 2458 834.66 2432.23 822.15C2405.76 809.31 2384.91 791.52 2370.24 769.27L2370.11 769.08C2355.44 746.38 2348 720.58 2348 692.39C2348 670.57 2352.79 650.71 2362.25 633.39L2362.35 633.2C2371.3 617.13 2383.61 602.15 2398.95 588.69C2406.08 582.51 2413.76 576.34 2421.94 570.23C2413.84 559.09 2406.82 547.63 2400.93 535.95L2400.8 535.69C2391.4 516.51 2386.63 495.56 2386.63 473.41C2386.63 448.02 2392.9 424.85 2405.27 404.57C2417.53 384.28 2434.85 368.07 2456.71 356.48C2478.35 345.1 2503.53 339.35 2531.61 339.35C2559.69 339.35 2584.57 344.97 2605.42 356.07C2626.61 367.34 2643.29 382.69 2654.99 401.68C2666.81 420.86 2672.81 442.04 2672.81 464.64C2672.81 490.28 2666.04 513.73 2652.68 534.31C2640.2 553.34 2622.99 570.6 2601.45 585.69L2596.35 589.29L2631.96 629.52C2633.58 620.89 2634.4 611.78 2634.4 602.27V576.51H2754.96V602.27C2754.96 632.4 2751.36 659.3 2744.26 682.24C2738.46 700.83 2731.12 717.4 2722.38 731.68L2813.47 834.59H2657.83L2636.46 810.99C2623.44 819 2609.23 825.37 2593.97 830.04C2570.35 837.31 2546.66 841.01 2523.61 841.01L2523.62 841ZM2498.93 720.18C2506.32 723.85 2515.45 725.7 2526.06 725.7C2535.81 725.7 2545.32 724.12 2554.88 720.89L2498.71 658.86C2492.27 664.36 2487.49 669.69 2484.42 674.81C2478.39 684.72 2478.32 688.79 2478.32 688.95C2478.32 695.52 2479.96 701.25 2483.32 706.47C2486.93 712.06 2492.03 716.55 2498.92 720.17L2498.93 720.18ZM2514.76 490.95C2517.02 494.9 2519.63 498.96 2522.56 503.12L2529.04 498.87C2538.05 493.23 2544.7 487.53 2548.8 481.93L2548.99 481.68C2551.83 477.9 2553.15 473.57 2553.15 468.05C2553.15 465.68 2551.46 462.76 2548.12 459.37L2547.96 459.2C2546.7 457.89 2543.34 454.42 2532.73 454.42C2527.8 454.42 2523.77 455.4 2520.41 457.41C2516.81 459.54 2514.29 461.98 2512.36 465.17C2510.66 468.2 2509.86 471.16 2509.86 474.47C2509.86 479.59 2511.46 484.98 2514.76 490.94V490.95Z" fill="white"/>
<path d="M2689.65 733.54C2691.45 731.25 2693.24 728.88 2695.02 726.41C2705.08 712.28 2713.29 695.02 2719.67 674.61C2726.03 654.06 2729.22 629.95 2729.22 602.26H2660.17C2660.17 624.66 2656.32 645.07 2648.62 663.48C2646.37 668.81 2643.9 673.91 2641.21 678.8L2558.01 584.81L2586.68 564.58C2605.62 551.31 2620.43 536.54 2631.08 520.27C2641.73 503.86 2647.06 485.3 2647.06 464.61C2647.06 446.77 2642.4 430.29 2633.07 415.16C2623.75 400.03 2610.5 387.91 2593.33 378.77C2576.16 369.64 2555.59 365.07 2531.61 365.07C2507.63 365.07 2486.69 369.78 2468.78 379.2C2451.02 388.62 2437.18 401.53 2427.26 417.94C2417.35 434.2 2412.39 452.68 2412.39 473.38C2412.39 491.64 2416.24 508.62 2423.93 524.32C2431.78 539.87 2441.77 554.86 2453.91 569.27C2455.67 571.33 2457.43 573.4 2459.21 575.47C2442.94 586.25 2428.52 597.1 2415.94 608.01C2402.77 619.57 2392.4 632.12 2384.86 645.68C2377.46 659.24 2373.76 674.79 2373.76 692.34C2373.76 715.6 2379.75 736.5 2391.74 755.05C2403.87 773.46 2421.12 788.09 2443.47 798.93C2465.82 809.78 2492.53 815.19 2523.61 815.19C2544.19 815.19 2565.13 811.91 2586.44 805.35C2606.81 799.12 2624.71 789.55 2640.15 776.63L2669.26 808.77H2756.28L2689.64 733.49L2689.65 733.54ZM2490.1 452.22C2494.24 445.23 2499.94 439.59 2507.19 435.31C2514.59 430.88 2523.1 428.68 2532.72 428.68C2547.08 428.68 2558.32 432.89 2566.47 441.31C2574.76 449.73 2578.91 458.65 2578.91 468.06C2578.91 479.19 2575.8 488.9 2569.58 497.17C2563.52 505.45 2554.56 513.3 2542.72 520.72L2516.99 537.6L2514.08 534.2C2505.2 523.64 2497.95 513.44 2492.32 503.59C2486.85 493.74 2484.11 484.04 2484.11 474.48C2484.11 466.63 2486.1 459.21 2490.1 452.22ZM2574.24 740.97C2558.4 747.97 2542.35 751.46 2526.06 751.46C2511.26 751.46 2498.3 748.68 2487.21 743.11C2476.26 737.4 2467.75 729.84 2461.68 720.42C2455.61 711 2452.58 700.51 2452.58 688.95C2452.58 681.39 2455.84 672.25 2462.35 661.55C2468.86 650.7 2479.67 640 2494.77 629.44L2502.13 624.24L2596.43 728.37C2589.37 733.28 2581.98 737.47 2574.25 740.95L2574.24 740.97Z" fill="url(#paint1_linear_3269_1172)"/>
<path d="M1566.43 834.58L1528.76 726.49H1394.43L1356.82 834.58H1220L1318.56 265L1532.6 350.82L1709.48 834.58H1566.43ZM1488.57 611.19L1461.53 533.59L1434.54 611.19H1488.58H1488.57Z" fill="white"/>
<path d="M1512.35 370.45L1338.51 300.75L1250.59 808.83H1338.51L1376.12 700.74H1547.06L1584.73 808.83H1672.64L1512.35 370.46V370.45ZM1398.3 636.94L1459.73 460.35H1463.28L1524.82 636.94H1398.3Z" fill="url(#paint2_linear_3269_1172)"/>
<path d="M2119.52 839.15C2098.13 839.15 2078.26 835.56 2060.47 828.47L2060.29 828.4C2039.52 819.95 2022.73 806.62 2010.4 788.79L2010.3 788.64C1998.32 771.04 1992.18 749.45 1992.07 724.45L1971.21 565.73H1953.19L1870.64 392.97L1950.67 409.47L1938.36 315.84L2123.95 383.22V445.18L2191.22 459.05V565.73H2123.95V709.93C2123.95 716.85 2124.92 719.9 2125.24 720.71C2125.3 720.79 2125.35 720.85 2125.39 720.9C2127.98 721.82 2131.07 722.28 2134.61 722.28C2138.15 722.28 2141.31 722.05 2144 721.58L2144.18 721.55C2148.95 720.76 2151.03 720.27 2151.71 720.1L2177.48 713.44L2201.9 822.69L2179.83 830.04C2174.6 831.78 2167.68 833.56 2158.66 835.5C2149.23 837.56 2138.2 838.73 2125.05 839.07C2123.25 839.12 2121.39 839.15 2119.54 839.15H2119.52Z" fill="white"/>
<path d="M2158.13 745.039C2155.91 745.609 2152.65 746.259 2148.36 746.969C2144.22 747.679 2139.63 748.039 2134.6 748.039C2127.94 748.039 2121.87 747.039 2116.39 745.039C2110.91 743.039 2106.47 739.329 2103.07 733.909C2099.81 728.349 2098.18 720.359 2098.18 709.939V539.979H2165.45V480.049L2098.18 466.179V401.279L1969.41 354.529L1980.91 442.009L1916.22 428.679L1969.41 539.979H1993.79L2017.82 722.779C2017.67 743.319 2022.26 760.449 2031.58 774.149C2041.06 787.849 2053.85 797.979 2069.99 804.549C2086.13 810.969 2104.26 813.899 2124.39 813.329C2135.79 813.039 2145.41 812.039 2153.25 810.329C2161.24 808.619 2167.38 807.049 2171.67 805.619L2158.13 745.049V745.039Z" fill="url(#paint3_linear_3269_1172)"/>
<path d="M3964.41 828.699C3917.36 828.699 3878.35 818.679 3848.49 798.929L3845.14 796.719L3748.22 676.769L3911.01 735.059C3929.89 732.719 3985.67 716.449 3996.61 710.479C4002.23 706.789 4002.23 704.789 4002.23 704.119C4002.23 702.779 4002.23 702.229 4000.4 700.739L4000.21 700.579C3998.34 699.029 3992.3 695.069 3976.56 691.779L3918.11 679.939C3880.24 672.339 3851.19 658.719 3831.79 639.479C3810.92 618.649 3800.45 592.289 3800.6 561.069C3800.44 534.859 3808.06 511.639 3823.26 492.059C3837.95 473.259 3858.13 458.739 3883.3 448.849C3907.24 439.359 3934.93 434.539 3965.53 434.539C4011.19 434.539 4048.29 444.519 4075.78 464.199C4104.46 484.599 4122.51 512.609 4129.36 547.409L4139.02 596.469L4022.83 544.789C3998.35 545.289 3948.62 548.749 3936.5 552.279C3933.29 554.519 3933.3 555.729 3933.31 556.409V557.139C3933.29 558.809 3933.42 559.089 3934.5 559.969C3936.68 561.649 3943.48 565.759 3961.37 569.759L4019.79 581.799C4057.45 589.619 4085.22 602.229 4104.75 620.349C4126.06 639.949 4137.01 665.709 4137.21 696.829V697.179C4137.02 723.879 4128.75 747.799 4112.65 768.279C4097.46 787.649 4076.45 802.849 4050.23 813.429C4025.19 823.549 3996.32 828.689 3964.43 828.689L3964.41 828.699Z" fill="white"/>
<path d="M4103.87 552.42L4028.19 518.76C4011.33 518.76 3935.6 522.28 3924.14 529.33C3912.78 536.38 3907.18 545.51 3907.33 556.74C3907.18 566.37 3910.83 574.22 3918.28 580.26C3925.93 586.3 3938.44 591.26 3955.9 595.15L4014.52 607.24C4047.09 614 4071.24 624.72 4087.05 639.39C4103.01 654.06 4111.06 673.27 4111.21 697C4111.06 717.86 4104.76 736.27 4092.2 752.24C4079.79 768.06 4062.58 780.44 4040.48 789.36C4018.42 798.28 3993.06 802.73 3964.39 802.73C3922.32 802.73 3888.46 794.24 3862.8 777.27L3826.54 732.39L3907.28 761.3C3926.48 761.3 3998.87 740.01 4010.52 732.39C4022.33 724.76 4028.18 715.34 4028.18 704.12C4028.18 694.62 4024.38 686.79 4016.77 680.6C4009.32 674.41 3997.66 669.67 3981.86 666.36L3923.24 654.49C3890.28 647.87 3865.86 636.72 3850.06 621.04C3834.2 605.21 3826.4 585.22 3826.55 561.05C3826.4 540.62 3832.15 522.92 3843.76 507.97C3855.57 492.86 3871.93 481.21 3892.78 473.01C3913.84 464.66 3938.1 460.5 3965.51 460.5C4005.82 460.5 4037.54 468.77 4060.65 485.31C4083.91 501.85 4098.32 524.22 4103.87 552.42Z" fill="url(#paint4_linear_3269_1172)"/>
<path d="M3156.62 841L3149.82 836.09C2862.37 628.74 2835.93 609.38 2834.68 608.39L2813 591.25L2839.45 561.78C2853.58 546.04 2886.86 508.613 2939.31 449.5C2972.57 412.01 3019.89 358.68 3088.79 281.03L3103.01 265L3121.44 275.92C3214.92 331.31 3277.68 368.34 3319.21 392.84C3378.34 427.727 3411.97 448.35 3420.12 454.71L3463 488.15L3271.9 535.25L3266.97 508.06C3265.17 498.16 3261.92 489.4 3257.31 482.04C3252.5 474.26 3246.78 467.97 3239.74 462.67C3232.73 457.39 3224.53 453.35 3215.35 450.65L3215.02 450.55C3205.47 447.6 3194.87 446.1 3183.52 446.1C3163.38 446.1 3146.22 450.73 3131.05 460.25C3115.91 469.66 3104.33 483.29 3095.56 501.96C3086.34 521.43 3081.68 546.08 3081.68 575.29C3081.68 604.5 3086.33 630.05 3095.51 649.6C3104.4 668.11 3115.95 681.59 3130.8 690.81C3146.04 700 3163.21 704.47 3183.28 704.47C3194.47 704.47 3204.97 703.08 3214.49 700.34C3223.8 697.56 3231.83 693.68 3239.05 688.46L3239.2 688.35C3246.26 683.33 3252.03 677.29 3256.85 669.88L3257.05 669.57C3261.87 662.39 3265.14 654.18 3267.05 644.48L3271.2 623.43L3406.26 624.13L3401.9 653.73C3398.35 677.77 3390.46 700.7 3378.44 721.89C3366.73 742.81 3351.11 761.63 3332.09 777.69C3313 793.63 3290.59 806.2 3265.38 815.12C3262.24 816.21 3258.89 817.41 3255.26 818.71C3229.03 828.11 3193.1 840.99 3165.02 840.99H3156.63L3156.62 841Z" fill="white"/>
<path d="M3404.87 475.74L3292.52 503.43C3290.12 490.2 3285.71 478.48 3279.31 468.26C3272.91 457.9 3264.9 449.12 3255.35 441.93C3245.8 434.74 3234.89 429.34 3222.69 425.75C3210.58 422.01 3197.53 420.14 3183.52 420.14C3158.61 420.14 3136.5 426.17 3117.24 438.26C3098.03 450.2 3082.94 467.75 3072.05 490.92C3061.15 513.94 3055.71 542.06 3055.71 575.29C3055.71 608.52 3061.16 637.58 3072.05 660.74C3083.09 683.75 3098.18 701.16 3117.24 712.96C3136.5 724.61 3158.51 730.44 3183.27 730.44C3197.02 730.44 3209.83 728.72 3221.78 725.26C3233.89 721.66 3244.69 716.41 3254.25 709.51C3263.95 702.6 3272.06 694.11 3278.61 684.04C3285.36 673.97 3289.97 662.46 3292.52 649.51L3376.2 649.94C3373.1 670.94 3366.3 690.65 3355.84 709.07C3345.53 727.48 3332.03 743.74 3315.32 757.84C3298.61 771.79 3279.05 782.72 3256.69 790.64C3234.33 798.41 3192.31 815.03 3165 815.03C2855.68 591.9 2850.77 588.02 2850.77 588.02C2892.45 541.57 2858.13 580.06 3108.2 298.26C3399.95 471.13 3387.7 462.36 3404.86 475.74H3404.87Z" fill="url(#paint5_linear_3269_1172)"/>
<path d="M3563.28 826.54C3536.36 826.54 3512 820.57 3490.87 808.8L3490.65 808.68C3469.21 796.46 3452.24 778.61 3440.23 755.64C3428.59 733.22 3422.71 706.4 3422.71 675.85V452.74L3544.93 521.63L3555.67 662.78V663.77C3555.67 677.92 3559.14 688.4 3566.29 695.79C3570.71 700.38 3578.4 706.43 3594.59 706.43C3602.51 706.43 3610.06 704.58 3617.68 700.76C3624.7 697.25 3630.36 692.04 3635 684.86C3639.53 677.9 3641.8 668.5 3641.8 656.86V423.67L3774.77 487.04V822.22H3644.3V803.47C3643.79 803.82 3643.28 804.16 3642.77 804.5C3620.98 819.1 3594.2 826.53 3563.27 826.53L3563.28 826.54Z" fill="white"/>
<path d="M3667.78 656.861V464.811L3748.82 503.431V796.261H3670.29V737.351H3666.69C3658.94 755.911 3646.18 771.091 3628.42 782.881C3610.81 794.681 3589.1 800.571 3563.29 800.571C3540.73 800.571 3520.82 795.751 3503.52 786.111C3486.36 776.331 3472.96 762.151 3463.25 743.601C3453.55 724.901 3448.69 702.321 3448.69 675.851V497.181L3520.11 537.441L3529.72 663.771C3529.72 684.771 3535.67 701.461 3547.63 713.841C3559.53 726.211 3575.19 732.401 3594.6 732.401C3606.55 732.401 3618.11 729.591 3629.32 723.981C3640.53 718.361 3649.68 710.021 3656.83 698.941C3664.13 687.721 3667.78 673.691 3667.78 656.861Z" fill="url(#paint6_linear_3269_1172)"/>
<path fill-rule="evenodd" clip-rule="evenodd" d="M4563.77 828.699C4525.74 828.699 4492 820.339 4463.49 803.849C4434.75 787.259 4412.12 763.679 4396.24 733.769C4380.82 704.309 4373.03 670.059 4373.03 631.829C4373.03 593.599 4380.81 559.319 4396.14 529.859C4412.08 499.649 4434.72 475.979 4463.5 459.369C4491.99 442.889 4525.73 434.529 4563.77 434.529C4601.81 434.529 4635.49 442.889 4664.04 459.369C4692.86 476.039 4715.43 499.739 4731.14 529.819C4746.6 559.219 4754.46 593.559 4754.46 631.829C4754.46 670.099 4746.59 704.409 4731.08 733.739C4715.4 763.599 4692.84 787.209 4664.06 803.849C4635.49 820.339 4601.75 828.699 4563.77 828.699ZM4533.72 705.309C4541.44 711.279 4551.4 714.189 4564.15 714.189C4576.9 714.189 4586.2 711.289 4593.77 705.319C4602.18 698.609 4608.41 689.519 4612.71 677.619L4612.8 677.369C4617.84 663.829 4620.4 648.439 4620.4 631.629C4620.4 614.819 4617.84 599.209 4612.8 585.669L4612.69 585.349C4608.39 573.319 4602.17 564.189 4593.67 557.419C4586.08 551.339 4576.44 548.409 4564.15 548.409C4551.86 548.409 4541.47 551.379 4533.76 557.479C4525.34 564.189 4519 573.389 4514.46 585.539C4509.57 599.129 4507.09 614.639 4507.09 631.629C4507.09 648.619 4509.56 663.889 4514.44 677.469C4518.96 689.439 4525.26 698.549 4533.72 705.329V705.309Z" fill="white"/>
<path fill-rule="evenodd" clip-rule="evenodd" d="M4563.77 802.73C4530.14 802.73 4501.11 795.61 4476.48 781.37C4451.8 767.13 4432.77 747.2 4419.17 721.6C4405.77 696 4398.99 666.07 4398.99 631.83C4398.99 597.59 4405.76 567.6 4419.17 541.84C4432.76 516.09 4451.8 496.1 4476.48 481.86C4501.11 467.61 4530.14 460.5 4563.77 460.5C4597.4 460.5 4626.38 467.62 4651.06 481.86C4675.69 496.1 4694.68 516.09 4708.13 541.84C4721.68 567.6 4728.5 597.58 4728.5 631.83C4728.5 666.08 4721.68 696 4708.13 721.6C4694.68 747.21 4675.69 767.13 4651.06 781.37C4626.38 795.61 4597.35 802.73 4563.77 802.73ZM4609.85 725.7C4597.63 735.34 4582.38 740.15 4564.15 740.15C4545.92 740.15 4530 735.33 4517.64 725.7C4505.37 715.92 4496.23 702.82 4490.08 686.42C4484.16 670.02 4481.13 651.75 4481.13 631.61C4481.13 611.47 4484.16 592.99 4490.08 576.59C4496.24 560.05 4505.38 546.88 4517.64 537.1C4530 527.32 4545.58 522.42 4564.15 522.42C4582.72 522.42 4597.63 527.32 4609.85 537.1C4622.12 546.88 4631.21 560.05 4637.13 576.59C4643.24 592.99 4646.37 611.33 4646.37 631.61C4646.37 651.89 4643.24 670.02 4637.13 686.42C4631.21 702.82 4622.12 715.91 4609.85 725.7Z" fill="url(#paint7_linear_3269_1172)"/>
<path d="M4973.15 773.921V582.631C4973.15 569.591 4968.57 563.721 4965.13 560.451C4961.41 556.871 4955.05 552.271 4941.39 552.271C4934.51 552.271 4928.49 553.881 4923 557.181L4922.79 557.311C4917.3 560.541 4912.97 565.151 4909.54 571.381C4905.93 577.861 4904.22 585.451 4904.22 594.711V837.381L4771.25 774.051V377.131L4900.67 449.581V454.591C4921.3 441.271 4945.83 434.521 4973.59 434.521C5001.35 434.521 5026.77 441.541 5047.03 455.391C5055.55 461.111 5063.06 467.731 5069.55 475.191C5076.91 467.531 5085.45 460.751 5095.12 454.891C5117.29 441.391 5143.62 434.521 5173.31 434.521C5211.7 434.521 5243.81 446.691 5268.75 470.691C5293.91 495.011 5306.64 529.681 5306.64 573.771V837.331L5173.48 774.061V585.851C5173.48 573.411 5170.9 564.941 5165.8 560.681L5165.65 560.551C5158.98 554.891 5151.09 552.261 5140.82 552.261C5124.62 552.261 5117.69 557.661 5113.89 561.731C5107.61 568.441 5104.56 577.541 5104.56 589.521V837.721L4973.15 773.901V773.921Z" fill="white"/>
<path d="M4797.21 757.669V421.439L4874.69 464.809V521.129H4878.72C4885.87 502.129 4897.76 487.319 4914.34 476.679C4930.87 465.889 4950.67 460.499 4973.59 460.499C4996.51 460.499 5016.5 465.959 5032.46 476.899C5048.56 487.689 5059.93 502.439 5066.51 521.139H5070.11C5077.69 502.729 5090.52 488.049 5108.57 477.119C5126.76 466.039 5148.35 460.509 5173.31 460.509C5204.9 460.509 5230.71 470.139 5250.75 489.419C5270.69 508.699 5280.68 536.819 5280.68 573.789V796.269L5199.46 757.679V585.879C5199.46 565.309 5193.82 550.269 5182.46 540.779C5171.09 531.139 5157.26 526.319 5140.83 526.319C5121.27 526.319 5105.97 532.219 5094.94 544.009C5084.05 555.659 5078.6 570.839 5078.6 589.539V796.269L4999.13 757.679V582.639C4999.13 565.519 4993.78 551.859 4983.03 541.639C4972.42 531.419 4958.54 526.319 4941.4 526.319C4929.75 526.319 4919.19 529.189 4909.62 534.949C4900.1 540.559 4892.48 548.539 4886.79 558.899C4881.11 569.109 4878.27 581.059 4878.27 594.719V796.269L4797.23 757.679L4797.21 757.669Z" fill="url(#paint8_linear_3269_1172)"/>
<path d="M4303.39 826.829C4281.83 826.829 4261.82 823.209 4243.89 816.059C4222.8 807.499 4205.87 794.069 4193.42 776.079L4193.29 775.889C4181.11 757.969 4174.92 736.039 4174.87 710.709L4159.78 551.189H4134.06L4077.32 398.859L4146.28 408.909L4137.57 317.359L4307.84 365.789V432.459L4375.71 442.349V551.189H4307.84V696.559C4307.84 703.649 4308.86 706.669 4309.15 707.389C4309.23 707.489 4309.29 707.569 4309.33 707.619C4311.9 708.539 4315.02 708.999 4318.62 708.999C4322.22 708.999 4325.39 708.759 4327.98 708.309L4328.25 708.259C4333 707.479 4335.1 706.989 4335.78 706.809L4361.77 700.069L4386.46 810.209L4364.23 817.639C4358.99 819.389 4352 821.199 4342.87 823.149C4333.37 825.229 4322.24 826.409 4308.96 826.739C4307.14 826.789 4305.26 826.819 4303.4 826.819L4303.39 826.829Z" fill="white"/>
<path d="M4342.31 731.95C4340.08 732.53 4336.82 733.18 4332.46 733.89C4328.34 734.61 4323.65 734.97 4318.63 734.97C4311.9 734.97 4305.75 733.97 4300.25 731.95C4294.76 729.94 4290.26 726.2 4286.85 720.73C4283.53 715.12 4281.88 707.07 4281.88 696.57V525.23H4349.75V464.81L4281.88 454.92V385.4L4167.03 352.73L4175.27 439.37L4116.96 430.87L4152.11 525.22H4183.42L4200.85 709.51C4200.71 730.22 4205.4 747.49 4214.77 761.29C4224.34 775.11 4237.22 785.32 4253.51 791.93C4269.75 798.4 4287.99 801.36 4308.31 800.78C4319.82 800.49 4329.53 799.48 4337.44 797.75C4345.49 796.03 4351.7 794.44 4356.01 793L4342.32 731.93L4342.31 731.95Z" fill="url(#paint9_linear_3269_1172)"/>
<path d="M7530.5 828.439C7484.38 828.439 7446.14 818.619 7416.85 799.249C7385.59 778.399 7366.74 749.079 7360.76 712.039L7352.84 662.959L7466.19 719.699C7493.79 719.199 7549.82 715.589 7563.33 711.659C7566.22 709.579 7567.65 707.789 7567.65 706.279C7567.65 705.039 7567.65 704.469 7565.83 702.979L7565.66 702.839C7563.8 701.309 7557.82 697.389 7542.41 694.179L7485.11 682.569C7447.98 675.109 7419.48 661.769 7400.45 642.899C7379.98 622.359 7369.74 596.529 7369.88 566.009C7369.73 540.249 7377.23 517.469 7392.16 498.309C7406.52 479.899 7426.32 465.669 7451.01 455.969C7474.44 446.669 7501.6 441.939 7531.64 441.939C7576.38 441.939 7612.74 451.729 7639.7 471.019C7667.87 491.019 7685.57 518.509 7692.22 552.659L7701.58 600.689L7587.84 550.039C7563.81 550.529 7515 553.929 7503.14 557.389C7500 559.579 7500.01 560.769 7500.02 561.439V562.139C7500 563.699 7500.11 564.019 7501.26 564.959C7503.38 566.599 7510 570.609 7527.51 574.529L7584.84 586.339C7621.74 594.009 7648.97 606.369 7668.12 624.139C7689.05 643.319 7699.81 668.589 7699.99 699.139V699.469C7699.81 725.569 7691.69 749.019 7675.84 769.189C7661.04 788.139 7640.45 803.049 7614.69 813.459C7590.05 823.389 7561.74 828.429 7530.53 828.429L7530.5 828.439Z" fill="white"/>
<path d="M7667.21 557.54L7593.1 524.54C7576.57 524.54 7502.31 528 7491.03 534.9C7479.89 541.81 7474.41 550.77 7474.54 561.77C7474.4 571.22 7478.02 578.91 7485.31 584.83C7492.79 590.76 7505.05 595.62 7522.14 599.43L7579.68 611.28C7611.58 617.91 7635.27 628.42 7650.78 642.81C7666.48 657.2 7674.37 676.03 7674.51 699.3C7674.37 719.75 7668.1 737.81 7655.8 753.47C7643.68 768.98 7626.78 781.12 7605.14 789.86C7583.45 798.6 7558.61 802.97 7530.51 802.97C7489.27 802.97 7456.07 794.65 7430.9 778C7405.73 761.22 7390.73 737.87 7385.9 707.97L7460.29 745.21C7479.19 745.21 7564.31 741.47 7575.73 734C7587.29 726.52 7593.1 717.28 7593.1 706.28C7593.1 696.97 7589.34 689.29 7581.86 683.22C7574.52 677.16 7563.15 672.5 7547.59 669.26L7490.15 657.62C7457.83 651.13 7433.87 640.2 7418.36 624.83C7402.9 609.31 7395.19 589.71 7395.33 566.01C7395.19 545.98 7400.81 528.63 7412.23 513.96C7423.79 499.14 7439.81 487.72 7460.29 479.68C7480.91 471.5 7504.69 467.41 7531.62 467.41C7571.09 467.41 7602.21 475.52 7624.87 491.74C7647.72 507.96 7661.83 529.89 7667.22 557.54H7667.21Z" fill="url(#paint10_linear_3269_1172)"/>
<path d="M5511.54 822.09L5466 265L5878.94 349.32L5745.76 454.57H5639.09V521.29H5747.74L5860.34 638.01H5639.09V822.09H5511.54Z" fill="white"/>
<path d="M5535.01 796.63L5494.14 296.73L5820.18 363.31L5736.92 429.11H5613.63V546.75H5736.92L5800.4 612.55H5613.63V796.63H5535.01Z" fill="url(#paint11_linear_3269_1172)"/>
<path d="M5862.52 822.091L5828.79 409.961L5988.53 452.011V458.341C6006.64 447.191 6027.22 441.521 6049.72 441.521C6054.69 441.521 6060.04 441.751 6066.07 442.211C6072.67 442.551 6078.22 443.171 6083.04 444.101L6103.69 448.071V575.061L6070.06 563.671C6069.96 563.641 6067.41 562.821 6059.27 561.881L6058.72 561.811C6052.77 560.991 6046.92 560.571 6041.36 560.571C6031.12 560.571 6021.99 562.641 6014.22 566.741L6014.03 566.841C6006.7 570.621 6001.11 575.731 5996.92 582.441C5992.86 588.961 5990.88 596.531 5990.88 605.581V822.101H5862.5L5862.52 822.091Z" fill="white"/>
<path d="M5885.99 796.63L5857.11 443.74L5963.08 471.64V525.8H5966.56C5972.74 507.04 5983.23 492.58 5998.18 482.43C6013.23 472.13 6030.41 466.98 6049.73 466.98C6054.14 466.98 6059.02 467.19 6064.45 467.62C6069.98 467.9 6074.57 468.4 6078.24 469.1V539.56C6074.9 538.43 6069.51 537.44 6062.22 536.59C6055.07 535.6 6048.1 535.11 6041.37 535.11C6026.93 535.11 6013.88 538.14 6002.36 544.21C5990.89 550.14 5981.93 558.38 5975.33 568.96C5968.74 579.54 5965.44 591.74 5965.44 605.57V796.63H5885.98H5885.99Z" fill="url(#paint12_linear_3269_1172)"/>
<path fill-rule="evenodd" clip-rule="evenodd" d="M6329.04 784.669C6325.54 788.679 6321.71 792.569 6317.56 796.299C6306.51 806.229 6292.74 814.239 6276.62 820.119L6276.44 820.179C6260.7 825.789 6242.38 828.639 6222.01 828.639C6197.29 828.639 6174.5 824.249 6154.27 815.579L6154.02 815.469C6132.63 806.039 6115.43 791.909 6102.89 773.489C6090.17 754.639 6083.75 731.769 6083.75 705.419C6083.75 682.519 6088.48 662.869 6097.81 647.019C6106.98 631.349 6119.68 618.619 6135.54 609.249C6149.2 601.139 6164.63 594.879 6181.41 590.649L6105.89 510.869L6127.19 493.549C6133.76 488.209 6167.68 461.159 6190.31 453.459C6212.27 445.839 6236.78 441.939 6263.02 441.939C6281.07 441.939 6299.3 443.999 6317.19 448.069C6336.08 452.379 6353.61 459.629 6369.31 469.599C6386.12 480.129 6399.82 494.649 6409.89 512.669C6420.2 530.859 6425.42 553.209 6425.42 579.109V840.989L6329.04 784.659V784.669ZM6292.64 676.779C6285.29 678.059 6277.67 679.249 6270.01 680.299C6262.84 681.289 6256.59 682.139 6251.31 682.849C6241.36 684.149 6232.55 686.229 6225.02 689.069C6219.78 691.049 6215.83 693.559 6213.32 696.529L6213.14 696.749C6212.67 697.289 6211.25 698.929 6211.25 704.179C6211.25 711.209 6213.51 713.319 6216.03 715.009C6222.38 719.289 6231.33 721.449 6242.62 721.449C6253.91 721.449 6264.32 719.369 6272.29 715.249C6279.93 711.199 6285.53 706.179 6289.41 699.889L6289.59 699.609C6293.41 693.589 6295.27 687.189 6295.27 680.049V676.309C6294.4 676.469 6293.52 676.629 6292.64 676.779ZM6263.48 551.469C6249.56 551.469 6238.97 553.999 6232 558.979C6225.05 564.019 6220.53 569.539 6218.33 575.769L6215.5 583.749C6221.77 582.779 6228.1 581.969 6234.47 581.309C6254.11 579.349 6270.02 577.599 6281.82 576.099C6288.27 575.209 6292.43 574.209 6295.01 573.429C6294.48 564.219 6291.31 560.299 6288.87 558.119C6282.71 552.629 6271.66 551.469 6263.48 551.469Z" fill="white"/>
<path fill-rule="evenodd" clip-rule="evenodd" d="M6222.01 803.19C6200.65 803.19 6181.42 799.53 6164.29 792.19C6147.34 784.71 6133.83 773.71 6123.94 759.18C6114.14 744.65 6109.22 726.73 6109.22 705.44C6109.22 687.1 6112.7 671.94 6119.76 659.95C6126.77 647.96 6136.34 638.37 6148.5 631.18C6160.62 623.99 6174.27 618.55 6189.51 614.89C6204.93 611.08 6220.76 608.33 6237.11 606.64C6256.89 604.66 6272.91 602.9 6285.17 601.35C6297.52 599.65 6306.44 597.11 6311.96 593.73C6317.67 590.2 6320.55 584.77 6320.55 577.44V576.17C6320.55 560.24 6315.63 547.89 6305.83 539.14C6296.03 530.4 6281.91 526.02 6263.48 526.02C6244.02 526.02 6228.6 530.11 6217.18 538.29C6205.9 546.47 6198.28 556.14 6194.33 567.28L6143.25 513.31C6143.25 513.31 6179.05 484.19 6198.51 477.57C6218.01 470.8 6239.47 467.41 6263.01 467.41C6279.26 467.41 6295.42 469.24 6311.54 472.91C6327.61 476.58 6342.33 482.64 6355.66 491.1C6368.94 499.42 6379.67 510.78 6387.7 525.17C6395.87 539.56 6399.96 557.54 6399.96 579.13V796.64L6323.57 751.99H6321.02C6316.14 761.02 6309.32 769.48 6300.54 777.38C6291.9 785.14 6281.04 791.42 6267.89 796.22C6254.84 800.87 6239.56 803.2 6222.01 803.2V803.19ZM6284.1 737.81C6272.4 743.88 6258.56 746.91 6242.63 746.91C6226.7 746.91 6212.49 743.32 6201.81 736.12C6191.13 728.93 6185.79 718.28 6185.79 704.17C6185.79 694.3 6188.53 686.25 6193.92 680.05C6199.31 673.7 6206.74 668.77 6216.07 665.24C6225.45 661.71 6236.04 659.17 6247.93 657.62C6253.18 656.91 6259.4 656.07 6266.55 655.08C6273.7 654.1 6280.99 652.97 6288.28 651.69C6295.57 650.42 6302.16 648.94 6308.06 647.25C6314.05 645.56 6318.23 643.72 6320.74 641.75V680.05C6320.74 692.04 6317.54 703.11 6311.08 713.27C6304.81 723.43 6295.85 731.61 6284.1 737.81Z" fill="url(#paint13_linear_3269_1172)"/>
<path d="M6652.34 797.3V587.16C6652.34 574.37 6647.85 568.62 6644.47 565.41C6640.83 561.9 6634.59 557.39 6621.19 557.39C6614.42 557.39 6608.54 558.96 6603.21 562.18L6602.91 562.36C6597.53 565.52 6593.31 569.99 6590.02 576.05L6589.9 576.27C6586.44 582.49 6584.75 589.93 6584.75 599.01V829L6454.37 797.4V416.98L6581.22 452.3V461.63C6601.38 448.6 6625.52 441.95 6652.82 441.95C6680.12 441.95 6704.96 448.84 6724.83 462.41C6733.17 468.01 6740.52 474.49 6746.87 481.81C6754.09 474.3 6762.46 467.66 6771.93 461.92C6793.74 448.67 6819.53 441.95 6848.56 441.95C6886.26 441.95 6917.75 453.89 6942.16 477.44C6966.83 501.23 6979.34 535.23 6979.34 578.49V828.98L6848.78 797.41V590.33C6848.78 578.15 6846.23 569.83 6841.21 565.62C6834.56 559.98 6826.81 557.39 6816.7 557.39C6800.86 557.39 6794.07 562.69 6790.34 566.67C6784.15 573.29 6781.14 582.2 6781.14 593.92V829.14L6652.34 797.29V797.3Z" fill="white"/>
<path d="M6479.84 777.37V450.5L6555.77 471.64V526.86H6559.76C6566.77 508.23 6578.38 493.71 6594.64 483.27C6610.89 472.69 6630.3 467.4 6652.83 467.4C6675.36 467.4 6694.9 472.75 6710.55 483.48C6726.34 494.06 6737.44 508.52 6743.89 526.86H6747.37C6754.85 508.8 6767.43 494.41 6785.12 483.7C6803 472.84 6824.13 467.41 6848.55 467.41C6879.57 467.41 6904.88 476.86 6924.48 495.76C6944.08 514.66 6953.88 542.24 6953.88 578.49V796.63L6874.24 777.37V590.33C6874.24 570.16 6868.67 555.42 6857.57 546.11C6846.42 536.66 6832.82 531.93 6816.7 531.93C6797.57 531.93 6782.57 537.72 6771.75 549.28C6761.07 560.7 6755.68 575.59 6755.68 593.93V796.63L6677.8 777.37V587.16C6677.8 570.37 6672.55 556.98 6662.01 546.96C6651.61 536.94 6638.05 531.94 6621.19 531.94C6609.77 531.94 6599.36 534.76 6590.03 540.41C6580.65 545.91 6573.17 553.74 6567.65 563.89C6562.08 573.9 6559.29 585.61 6559.29 599.02V796.64L6479.83 777.38L6479.84 777.37Z" fill="url(#paint14_linear_3269_1172)"/>
<path d="M7183.74 828.439C7145.8 828.439 7112.19 820.549 7083.86 804.989L7083.67 804.879C7055.05 788.849 7032.7 765.869 7017.23 736.589C7002.16 707.799 6994.55 673.999 6994.55 636.039C6994.55 598.079 7002.16 565.089 7017.16 536.259C7032.71 506.649 7054.7 483.319 7082.56 466.849C7110.16 450.349 7142.83 441.939 7179.57 441.939C7203.08 441.939 7225.66 445.679 7246.7 453.069C7268.59 460.549 7288.21 472.379 7305.01 488.229C7322.01 504.159 7335.48 524.489 7344.99 548.619C7354.32 571.989 7359.07 599.939 7359.07 631.589V680.529H7277.55L7374.62 733.609L7352.21 757.589C7335.71 775.249 7285.52 806.579 7262.64 815.329L7262.47 815.399C7239.33 824.049 7212.85 828.439 7183.76 828.439H7183.74ZM7151.9 710.449C7160.47 715.109 7170.44 717.529 7182.32 717.819C7192.38 714.139 7224.14 696.179 7249.48 680.539H7188.62L7124.23 643.279V653.179C7124.23 667.809 7126.85 680.169 7132.02 689.899C7136.86 698.909 7143.38 705.669 7151.9 710.459V710.449ZM7225.62 577.179C7225.54 577.039 7225.47 576.899 7225.39 576.769C7221.17 569.199 7215.46 563.439 7207.91 559.119L7207.75 559.029C7200.27 554.669 7191.4 552.549 7180.64 552.549C7169.12 552.549 7159.53 555.029 7151.31 560.139L7151.08 560.279C7144.57 564.229 7139.25 569.049 7134.96 574.889L7225.63 577.189L7225.62 577.179Z" fill="white"/>
<path d="M7183.74 802.98C7149.93 802.98 7120.77 796.21 7096.11 782.67C7071.68 768.98 7052.92 749.66 7039.73 724.7C7026.59 699.59 7019.99 670.04 7019.99 636.05C7019.99 602.06 7026.58 573.28 7039.73 548.03C7053.06 522.64 7071.63 502.9 7095.5 488.79C7119.32 474.54 7147.32 467.42 7179.55 467.42C7200.31 467.42 7219.9 470.66 7238.34 477.15C7256.96 483.5 7273.31 493.37 7287.52 506.77C7301.82 520.17 7313.11 537.24 7321.28 557.97C7329.5 578.57 7333.59 603.11 7333.59 631.6V655.08H7195.44L7099.27 599.43L7257.44 603.45C7257.3 588.78 7254 575.74 7247.6 564.31C7241.15 552.75 7232.14 543.65 7220.57 537.02C7209.19 530.39 7195.87 527.07 7180.63 527.07C7164.42 527.07 7150.12 530.88 7137.86 538.5C7125.55 545.97 7115.99 555.85 7109.07 568.12C7102.34 580.25 7098.95 593.58 7098.76 608.11V653.17C7098.76 672.07 7102.34 688.3 7109.53 701.84C7116.73 715.24 7126.71 725.54 7139.58 732.73C7152.49 739.78 7167.54 743.31 7184.81 743.31C7196.37 743.31 7263.43 701.84 7263.43 701.84L7333.6 740.21C7320.55 754.17 7273.83 783.79 7253.54 791.55C7233.15 799.17 7209.93 802.97 7183.74 802.97V802.98Z" fill="url(#paint15_linear_3269_1172)"/>
<defs>
<linearGradient id="paint0_linear_3269_1172" x1="1250.59" y1="612.009" x2="7646.62" y2="612.009" gradientUnits="userSpaceOnUse">
<stop stop-color="#194F63"/>
<stop offset="1" stop-color="#2E9ECA"/>
</linearGradient>
<linearGradient id="paint1_linear_3269_1172" x1="479.95" y1="590.17" x2="10905.9" y2="590.17" gradientUnits="userSpaceOnUse">
<stop stop-color="#194F63"/>
<stop offset="1" stop-color="#2E9ECA"/>
</linearGradient>
<linearGradient id="paint2_linear_3269_1172" x1="-803.27" y1="554.79" x2="47099.9" y2="554.79" gradientUnits="userSpaceOnUse">
<stop stop-color="#194F63"/>
<stop offset="1" stop-color="#2E9ECA"/>
</linearGradient>
<linearGradient id="paint3_linear_3269_1172" x1="-1302.08" y1="583.959" x2="22983.6" y2="583.959" gradientUnits="userSpaceOnUse">
<stop stop-color="#194F63"/>
<stop offset="1" stop-color="#2E9ECA"/>
</linearGradient>
<linearGradient id="paint4_linear_3269_1172" x1="1259.61" y1="631.61" x2="7707.66" y2="631.61" gradientUnits="userSpaceOnUse">
<stop stop-color="#194F63"/>
<stop offset="1" stop-color="#2E9ECA"/>
</linearGradient>
<linearGradient id="paint5_linear_3269_1172" x1="1259.61" y1="556.65" x2="7707.66" y2="556.65" gradientUnits="userSpaceOnUse">
<stop stop-color="#194F63"/>
<stop offset="1" stop-color="#2E9ECA"/>
</linearGradient>
<linearGradient id="paint6_linear_3269_1172" x1="1259.61" y1="632.691" x2="7707.66" y2="632.691" gradientUnits="userSpaceOnUse">
<stop stop-color="#194F63"/>
<stop offset="1" stop-color="#2E9ECA"/>
</linearGradient>
<linearGradient id="paint7_linear_3269_1172" x1="1259.61" y1="1113" x2="7707.66" y2="1113" gradientUnits="userSpaceOnUse">
<stop stop-color="#194F63"/>
<stop offset="1" stop-color="#2E9ECA"/>
</linearGradient>
<linearGradient id="paint8_linear_3269_1172" x1="1259.61" y1="608.849" x2="7707.66" y2="608.849" gradientUnits="userSpaceOnUse">
<stop stop-color="#194F63"/>
<stop offset="1" stop-color="#2E9ECA"/>
</linearGradient>
<linearGradient id="paint9_linear_3269_1172" x1="-6527.64" y1="576.791" x2="16182.8" y2="576.791" gradientUnits="userSpaceOnUse">
<stop stop-color="#194F63"/>
<stop offset="1" stop-color="#2E9ECA"/>
</linearGradient>
<linearGradient id="paint10_linear_3269_1172" x1="1352.15" y1="635.19" x2="7674.5" y2="635.19" gradientUnits="userSpaceOnUse">
<stop stop-color="#194F63"/>
<stop offset="1" stop-color="#2E9ECA"/>
</linearGradient>
<linearGradient id="paint11_linear_3269_1172" x1="1352.15" y1="546.68" x2="7674.5" y2="546.68" gradientUnits="userSpaceOnUse">
<stop stop-color="#194F63"/>
<stop offset="1" stop-color="#2E9ECA"/>
</linearGradient>
<linearGradient id="paint12_linear_3269_1172" x1="1352.15" y1="620.19" x2="7674.5" y2="620.19" gradientUnits="userSpaceOnUse">
<stop stop-color="#194F63"/>
<stop offset="1" stop-color="#2E9ECA"/>
</linearGradient>
<linearGradient id="paint13_linear_3269_1172" x1="1352.15" y1="635.3" x2="7674.5" y2="635.3" gradientUnits="userSpaceOnUse">
<stop stop-color="#194F63"/>
<stop offset="1" stop-color="#2E9ECA"/>
</linearGradient>
<linearGradient id="paint14_linear_3269_1172" x1="1352.15" y1="623.57" x2="7674.5" y2="623.57" gradientUnits="userSpaceOnUse">
<stop stop-color="#194F63"/>
<stop offset="1" stop-color="#2E9ECA"/>
</linearGradient>
<linearGradient id="paint15_linear_3269_1172" x1="1352.15" y1="1113" x2="7674.5" y2="1113" gradientUnits="userSpaceOnUse">
<stop stop-color="#194F63"/>
<stop offset="1" stop-color="#2E9ECA"/>
</linearGradient>
</defs>
</svg>
